<?xml version="1.0" encoding="UTF-8"?>
<svg width="16px" height="16px" viewBox="0 0 16 16" version="1.1" xmlns="http://www.w3.org/2000/svg" xmlns:xlink="http://www.w3.org/1999/xlink">
    <!-- Generator: Sketch 51.2 (57519) - http://www.bohemiancoding.com/sketch -->
    <title>ups关闭</title>
    <desc>Created with Sketch.</desc>
    <defs></defs>
    <g id="运营风控后台" stroke="none" stroke-width="1" fill="none" fill-rule="evenodd">
        <g id="驾驶舱_设置面板内容_弹窗" transform="translate(-1226.000000, -493.000000)" fill="#989DA3" fill-rule="nonzero">
            <g id="Group-29" transform="translate(660.000000, 470.000000)">
                <g id="ups关闭" transform="translate(566.000000, 23.000000)">
                    <path d="M0.74616293,15.9792208 C0.553949613,15.9785248 0.369762213,15.9020696 0.233558442,15.7664416 C0.0965227961,15.6310686 0.0193956538,15.4464626 0.0193956538,15.2538371 C0.0193956538,15.0612115 0.0965227961,14.8766056 0.233558442,14.7412326 L14.7412326,0.233558442 C14.9220665,0.039491056 15.1944093,-0.0403939975 15.4514209,0.025242242 C15.7084324,0.0908784815 15.9091215,0.291567609 15.9747578,0.548579143 C16.040394,0.805590678 15.9605089,1.07793353 15.7664416,1.25876742 L1.25876742,15.7664416 C1.12256365,15.9020696 0.938376247,15.9785248 0.74616293,15.9792208 Z" id="Shape"></path>
                    <path d="M15.2538371,15.9792208 C15.0616238,15.9785248 14.8774364,15.9020696 14.7412326,15.7664416 L0.233558442,1.25876742 C0.039491056,1.07793353 -0.0403939975,0.805590678 0.025242242,0.548579143 C0.0908784815,0.291567609 0.291567609,0.0908784815 0.548579143,0.025242242 C0.805590678,-0.0403939975 1.07793353,0.039491056 1.25876742,0.233558442 L15.7664416,14.7412326 C15.9034772,14.8766056 15.9806043,15.0612115 15.9806043,15.2538371 C15.9806043,15.4464626 15.9034772,15.6310686 15.7664416,15.7664416 C15.6302378,15.9020696 15.4460504,15.9785248 15.2538371,15.9792208 Z" id="Shape"></path>
                </g>
            </g>
        </g>
    </g>
</svg>