<?xml version="1.0" standalone="no"?><!DOCTYPE svg PUBLIC "-//W3C//DTD SVG 1.1//EN" "http://www.w3.org/Graphics/SVG/1.1/DTD/svg11.dtd"><svg t="1550719963353" class="icon" style="" viewBox="0 0 5741 1024" version="1.1" xmlns="http://www.w3.org/2000/svg" p-id="4982" xmlns:xlink="http://www.w3.org/1999/xlink" width="1121.2890625" height="200"><defs><style type="text/css"></style></defs><path d="M1857.024 412.635429c0 18.285714-5.705143 35.035429-17.152 50.249142-11.410286 15.250286-30.354286 27.904-56.685714 37.997715v1.243428c14.628571 3.584 28.050286 8.155429 40.228571 13.714286 12.141714 5.558857 22.564571 12.178286 31.195429 19.858286 8.630857 7.68 15.36 16.310857 20.224 25.965714 4.827429 9.691429 7.241143 20.48 7.241143 32.475429 0 10.313143-2.267429 21.321143-6.802286 33.097142-4.534857 11.776-12.544 23.149714-23.954286 34.194286-11.446857 11.008-26.697143 21.174857-45.714286 30.390857-19.053714 9.252571-43.117714 16.603429-72.118857 22.089143a492.141714 492.141714 0 0 1-52.772571 6.144c-10.532571 0.731429-22.272 1.243429-35.145143 1.572572a1799.314286 1799.314286 0 0 1-43.52 0.475428h-171.044571V300.434286h204.434285c43.666286 0 78.848 3.181714 105.508572 9.472a228.022857 228.022857 0 0 1 51.894857 18.102857c14.628571 7.460571 26.733714 15.762286 36.278857 24.905143 9.508571 9.142857 16.566857 18.797714 21.101714 29.001143 4.534857 10.166857 6.802286 20.406857 6.802286 30.72z m-318.281143 126.061714v118.784h70.326857c18.761143 0 34.889143-0.365714 48.347429-1.097143 13.494857-0.731429 25.088-1.938286 34.742857-3.657143 14.957714-2.267429 27.428571-5.376 37.376-9.252571 9.947429-3.913143 18.029714-8.301714 24.173714-13.238857 6.144-4.937143 10.569143-10.422857 13.165715-16.384 2.669714-5.997714 3.986286-12.361143 3.986285-19.090286 0-11.739429-4.534857-22.052571-13.641143-30.866286-9.069714-8.813714-23.296-15.433143-42.642285-19.858286a210.212571 210.212571 0 0 0-29.878857-4.096 621.897143 621.897143 0 0 0-43.958858-1.243428h-102.034285z m97.133714-64.621714c29.330286 0 51.163429-2.084571 65.499429-6.290286 16.128-4.827429 27.648-11.52 34.523429-20.004572a44.617143 44.617143 0 0 0 10.349714-28.854857c0-11.117714-3.986286-21.065143-11.885714-29.769143-7.899429-8.704-21.394286-15.177143-40.448-19.382857a202.569143 202.569143 0 0 0-27.684572-3.620571c-10.569143-0.731429-23.588571-1.097143-39.131428-1.097143h-88.356572v109.019429h97.133714zM2232.466286 722.102857H2124.8V365.056h-189.915429V300.434286h487.131429v64.621714h-189.513143zM2769.737143 357.814857c-29.330286 0-56.356571 3.437714-81.115429 10.386286-24.795429 6.948571-46.043429 17.005714-63.744 30.244571a140.361143 140.361143 0 0 0-41.545143 49.005715c-9.984 19.419429-14.994286 41.654857-14.994285 66.669714 0 24.758857 4.571429 46.555429 13.641143 65.389714 9.106286 18.797714 22.162286 34.486857 39.131428 47.104 17.005714 12.580571 37.741714 22.089143 62.208 28.525714 24.502857 6.4 52.260571 9.581714 83.346286 9.581715 22.272 0 44.982857-1.243429 68.132571-3.766857 23.149714-2.523429 44.836571-6.217143 65.060572-11.044572v66.486857c-20.48 4.205714-42.642286 7.533714-66.377143 9.947429-23.771429 2.413714-48.384 3.620571-73.874286 3.620571-49.810286 0-93.622857-5.12-131.437714-15.286857-37.814857-10.203429-69.412571-24.576-94.72-43.154286-25.380571-18.614857-44.434286-40.886857-57.197714-66.816-12.726857-25.965714-19.126857-54.564571-19.126858-85.869714 0-32.182857 6.838857-61.988571 20.48-89.490286a207.725714 207.725714 0 0 1 58.88-71.533714c25.636571-20.187429 57.782857-36.059429 96.292572-47.579428 38.546286-11.556571 82.139429-17.444571 130.779428-17.664 24.941714 0 48.530286 1.206857 70.802286 3.657142 22.272 2.377143 42.349714 5.778286 60.233143 10.24v65.499429a571.172571 571.172571 0 0 0-65.499429-11.008 574.281143 574.281143 0 0 0-59.355428-3.145143z" fill="#FFFFFF" p-id="4983"></path><path d="M3347.858286 411.392a2125.275429 2125.275429 0 0 1-39.570286 121.636571l-65.938286 189.074286h-107.300571l-186.843429-421.668571h114.761143l70.765714 167.972571a1796.388571 1796.388571 0 0 1 51.894858 143.067429h2.633142a2274.377143 2274.377143 0 0 1 44.836572-140.873143l60.708571-170.166857h110.774857l60.672 170.166857a2107.062857 2107.062857 0 0 1 44.836572 140.873143h2.633143c16.091429-50.432 33.426286-98.121143 51.858285-143.067429l70.802286-167.972571h114.761143l-186.88 421.668571H3456l-65.938286-189.074286a2664.082286 2664.082286 0 0 1-39.570285-121.636571h-2.633143zM3829.248 722.102857h107.739429V300.434286h-107.739429zM4384.073143 496.457143c42.203429 43.081143 76.507429 81.298286 102.875428 114.724571h2.669715c-3.547429-54.857143-5.302857-94.756571-5.302857-119.771428V300.434286h107.739428v421.668571h-113.005714l-191.670857-194.121143a1518.555429 1518.555429 0 0 1-104.630857-116.918857h-2.669715c3.547429 51.675429 5.302857 91.684571 5.302857 120.064v190.976h-107.739428V300.434286h113.005714l193.462857 196.022857zM4840.448 657.481143h289.28v64.621714H4732.708571V300.434286h381.147429v64.621714h-273.444571v109.019429h234.788571v64.621714h-234.788571zM5399.222857 387.108571c28.416 29.622857 48.347429 50.834286 59.794286 63.634286h2.194286c15.835429-17.627429 35.620571-38.765714 59.355428-63.305143l83.968-87.003428h123.977143l-204.873143 207.36 213.686857 214.308571h-122.221714l-91.904-94.244571a3372.690286 3372.690286 0 0 1-62.427429-65.536h-1.755428c-19.931429 21.430857-40.740571 43.264-62.427429 65.536l-91.904 94.244571h-122.185143l213.650286-214.308571-204.873143-207.36h123.977143l83.968 86.674285z" fill="#3E85A2" p-id="4984"></path><path d="M426.057143 202.605714H24.32l-14.628571 83.382857a102.4 102.4 0 0 0 22.125714 83.163429c19.2 23.04 47.542857 36.388571 77.385143 36.388571h281.307428l35.474286-202.971428zM355.145143 607.744H153.819429l-14.738286 84.114286a101.851429 101.851429 0 0 0 21.979428 82.651428c19.090286 22.930286 47.286857 36.205714 76.982858 36.205715H319.634286l35.474285-202.971429z" fill="#3E85A2" p-id="4985"></path><path d="M619.227429 405.540571A100.717714 100.717714 0 0 0 718.153143 321.828571l0.073143-0.438857a101.851429 101.851429 0 0 0-21.942857-82.651428 100.169143 100.169143 0 0 0-76.982858-36.205715h-193.28L461.531429 0h315.684571c208.932571 0 299.812571 118.125714 269.202286 293.156571-20.150857 115.273143-110.445714 179.309714-145.225143 200.667429 36.461714 25.6 110.555429 78.262857 85.650286 220.598857-33.865143 193.536-186.404571 298.861714-365.714286 298.861714H284.233143l35.437714-202.605714h228.681143a100.717714 100.717714 0 0 0 98.998857-84.114286 101.851429 101.851429 0 0 0-21.942857-82.651428 100.169143 100.169143 0 0 0-76.982857-36.205714H355.108571l35.401143-202.166858h228.681143z" fill="#3E85A2" p-id="4986"></path></svg>