<?xml version="1.0" standalone="no"?><!DOCTYPE svg PUBLIC "-//W3C//DTD SVG 1.1//EN" "http://www.w3.org/Graphics/SVG/1.1/DTD/svg11.dtd"><svg t="1517454818157" class="icon" style="" viewBox="0 0 5407 1024" version="1.1" xmlns="http://www.w3.org/2000/svg" p-id="2731" xmlns:xlink="http://www.w3.org/1999/xlink" width="1056.0546875" height="200"><defs><style type="text/css"></style></defs><path d="M340.992 45.056C336.896 40.96 328.704 32.768 324.608 32.768h-12.288c-24.576 0-45.056 12.288-57.344 32.768l-245.76 421.888c-12.288 20.48-12.288 40.96 0 61.44l245.76 421.888c12.288 20.48 32.768 32.768 53.248 32.768h380.928c4.096 0 4.096 0 4.096-4.096v-8.192l-258.048-442.368c-12.288-20.48-12.288-40.96 0-61.44l73.728-126.976c4.096-4.096 4.096-16.384 0-20.48L340.992 45.056z" fill="#ffffff" p-id="2732"></path><path d="M1147.904 507.904v8.192c0 8.192-4.096 20.48-8.192 28.672l-249.856 425.984c-12.288 20.48-32.768 28.672-53.248 28.672h-24.576c-8.192 0-16.384-4.096-16.384-12.288l-94.208-159.744 45.056-81.92c4.096-8.192 8.192-16.384 8.192-28.672 0-8.192-4.096-16.384-8.192-20.48s-12.288-8.192-20.48-8.192h-106.496L533.504 544.768c-8.192-12.288-8.192-28.672-4.096-40.96 4.096-8.192 12.288-16.384 20.48-16.384h573.44c8.192 4.096 20.48 8.192 24.576 20.48zM635.904 339.968c-20.48 0-40.96-12.288-49.152-32.768l-155.648-262.144V36.864l4.096-4.096h405.504c20.48 0 40.96 12.288 49.152 32.768L1045.504 327.68v8.192l-4.096 4.096h-405.504z" fill="#97C554" p-id="2733"></path><path d="M1860.608 532.48c-16.384-20.48-40.96-32.768-73.728-40.96 24.576-8.192 45.056-24.576 57.344-40.96 12.288-20.48 20.48-45.056 20.48-69.632 0-36.864-12.288-69.632-40.96-90.112-28.672-24.576-69.632-36.864-118.784-36.864H1475.584v499.712h229.376c53.248 0 94.208-8.192 126.976-28.672 32.768-24.576 53.248-61.44 53.248-110.592 0-32.768-8.192-61.44-24.576-81.92zM1557.504 323.584h126.976c32.768 0 57.344 4.096 73.728 16.384 12.288 12.288 20.48 28.672 20.48 53.248 0 24.576-8.192 45.056-20.48 57.344-16.384 12.288-40.96 16.384-73.728 16.384H1557.504V323.584z m208.896 348.16c-16.384 8.192-40.96 16.384-73.728 16.384H1557.504V532.48h139.264c36.864 0 61.44 8.192 81.92 20.48 16.384 12.288 24.576 32.768 24.576 61.44 0 24.576-12.288 45.056-36.864 57.344zM1963.008 253.952h81.92v499.712h-81.92zM2102.272 253.952v69.632h167.936v430.08h81.92V323.584h163.84V253.952zM2794.496 245.76c-73.728 0-135.168 24.576-176.128 77.824-40.96 49.152-61.44 110.592-61.44 184.32 0 73.728 20.48 135.168 61.44 180.224 45.056 49.152 106.496 73.728 188.416 73.728 45.056 0 86.016-4.096 122.88-16.384 32.768-12.288 65.536-24.576 90.112-49.152v-208.896h-217.088v69.632h135.168v102.4c-16.384 8.192-32.768 16.384-53.248 24.576-20.48 4.096-45.056 8.192-69.632 8.192-61.44 0-106.496-16.384-135.168-49.152-28.672-32.768-40.96-77.824-40.96-135.168 0-61.44 16.384-106.496 45.056-143.36 28.672-32.768 65.536-49.152 110.592-49.152 36.864 0 69.632 8.192 94.208 24.576 24.576 16.384 36.864 40.96 45.056 73.728h81.92c-8.192-57.344-32.768-98.304-69.632-126.976-36.864-28.672-86.016-40.96-151.552-40.96zM3109.888 253.952v499.712h352.256v-69.632h-270.336V253.952zM3929.088 319.488c-40.96-49.152-102.4-73.728-180.224-73.728-77.824 0-139.264 24.576-180.224 73.728-40.96 49.152-61.44 110.592-61.44 184.32 0 73.728 20.48 135.168 61.44 184.32 45.056 49.152 102.4 73.728 180.224 73.728 77.824 0 139.264-24.576 180.224-73.728 40.96-45.056 61.44-106.496 61.44-184.32 4.096-73.728-16.384-139.264-61.44-184.32z m-57.344 323.584c-28.672 32.768-69.632 49.152-118.784 49.152-53.248 0-94.208-16.384-122.88-53.248-28.672-32.768-40.96-77.824-40.96-135.168s12.288-102.4 40.96-135.168c28.672-36.864 69.632-53.248 122.88-53.248s94.208 16.384 118.784 49.152c28.672 32.768 40.96 77.824 40.96 139.264s-16.384 106.496-40.96 139.264zM4457.472 532.48c-16.384-20.48-40.96-32.768-73.728-40.96 24.576-8.192 45.056-24.576 57.344-40.96 12.288-20.48 20.48-45.056 20.48-69.632 0-36.864-12.288-69.632-40.96-90.112-28.672-24.576-69.632-36.864-118.784-36.864h-229.376v499.712h229.376c53.248 0 94.208-8.192 126.976-28.672 32.768-24.576 53.248-61.44 53.248-110.592 0-32.768-8.192-61.44-24.576-81.92z m-303.104-208.896h126.976c32.768 0 57.344 4.096 73.728 16.384 12.288 12.288 20.48 28.672 20.48 53.248 0 24.576-8.192 45.056-20.48 57.344-16.384 12.288-40.96 16.384-73.728 16.384h-126.976V323.584z m208.896 348.16c-16.384 8.192-40.96 16.384-73.728 16.384h-135.168V532.48h139.264c36.864 0 61.44 8.192 81.92 20.48 16.384 12.288 24.576 32.768 24.576 61.44 0 24.576-12.288 45.056-36.864 57.344zM4793.344 253.952h-94.208L4506.624 753.664h90.112l45.056-122.88h208.896l45.056 122.88h90.112L4793.344 253.952z m-126.976 307.2l77.824-217.088h4.096l77.824 217.088h-159.744zM5035.008 253.952v499.712h356.352v-69.632h-274.432V253.952z" fill="#FFFFFF" p-id="2734"></path></svg>