<?xml version="1.0" encoding="UTF-8"?>
<svg width="72px" height="60px" viewBox="0 0 72 60" version="1.1" xmlns="http://www.w3.org/2000/svg" xmlns:xlink="http://www.w3.org/1999/xlink">
    <!-- Generator: Sketch 51.2 (57519) - http://www.bohemiancoding.com/sketch -->
    <title>fsux_图表_地图</title>
    <desc>Created with Sketch.</desc>
    <defs></defs>
    <g id="运营风控后台" stroke="none" stroke-width="1" fill="none" fill-rule="evenodd">
        <g id="驾驶舱_设置面板内容_弹窗" transform="translate(-765.000000, -1297.000000)" fill-rule="nonzero">
            <g id="list-copy-4" transform="translate(686.000000, 1267.000000)">
                <g id="fsux_图表_地图" transform="translate(79.000000, 30.000000)">
                    <path d="M71.9719251,10.9656 L71.9719251,4.77393488 L71.4922061,4.77393488 L69.8136112,6.67908837 C69.5737518,6.9171907 69.3338923,6.9171907 69.0941171,6.9171907 L68.3747073,6.9171907 C68.1349321,6.9171907 67.6552974,6.67908837 67.6552974,6.44090233 L66.4561686,5.4884093 C66.2163934,5.25022326 65.9766183,5.01203721 65.7367588,5.01203721 L64.2978548,5.01203721 C64.0580796,5.01203721 63.578445,4.77393488 63.3386698,4.53583256 L60.700637,0.725609302 C60.4608618,0.487423256 60.2210867,0.249237209 59.9812272,0.249237209 L58.3026323,0.0111348837 L57.8229133,0.0111348837 L55.1850492,0.963711628 L55.1850492,2.39257674 L54.7053302,5.4884093 C54.7053302,5.72651163 54.465555,5.96461395 54.465555,5.96461395 L53.9859204,6.44098605 C53.7461452,6.67908837 53.5062857,6.67908837 53.2665105,6.67908837 L52.7868759,6.67908837 C52.3072412,6.67908837 51.8276066,6.9171907 51.8276066,7.39347907 L51.3479719,8.58415814 C51.1081967,9.29863256 51.5878314,10.0130233 52.3072412,10.0130233 L53.5062857,10.0130233 L54.465555,9.29863256 L55.1850492,9.77492093 C55.6645995,10.2511256 55.4248244,11.2037023 54.7053302,11.4418047 L52.5470164,12.1562791 L52.5470164,13.5851442 L50.3887026,13.5851442 L49.9091522,15.0139256 L47.9906136,14.7758233 C47.5109789,14.7758233 47.2712037,15.0139256 47.0313443,15.2521116 L46.5517939,15.9665023 L47.2712037,16.680893 L45.3526651,18.8241488 C45.1128899,19.0623349 44.8730304,19.0623349 44.6332553,19.0623349 L41.7555316,19.0623349 C41.5156721,19.0623349 41.2758126,19.0623349 41.0360375,19.3004372 L40.3166276,20.0149116 C40.0768525,20.253014 39.836993,20.253014 39.5972178,20.253014 L37.438904,20.253014 C37.1990445,20.253014 36.959185,20.253014 36.7194098,20.0149116 L35.2805902,18.8241488 C35.0407307,18.8241488 35.0407307,18.5860465 34.8008712,18.5860465 L29.5250585,18.3479442 C29.2852834,18.3479442 29.0454239,18.1097581 28.8056487,17.8715721 L25.9278407,14.0614326 C25.6880656,13.8232465 25.4482061,13.5850605 25.2084309,13.5850605 L24.9686557,13.5850605 C24.4889368,13.5850605 24.0093864,13.1088558 24.0093864,12.6325674 L24.0093864,10.9656 L23.7695269,9.53673488 C23.7695269,9.29863256 23.5297518,9.06044651 23.2898923,8.82234419 L21.6112974,8.82234419 C21.3714379,8.82234419 21.1315785,8.58415814 21.1315785,8.34597209 L20.6520281,6.9171907 L19.4528993,6.9171907 L18.7334895,7.86976744 L17.534445,7.86976744 L17.534445,9.06044651 L15.1362717,9.06044651 C14.8964965,9.06044651 14.4168618,9.29863256 14.4168618,9.5368186 L13.4575925,10.9656 C13.2178173,11.2037023 12.9779578,11.4418884 12.4983232,11.4418884 L11.2992787,11.4418884 C10.819644,11.4418884 10.3400094,11.9181767 10.3400094,12.3943814 L10.3400094,13.8232465 C10.3400094,14.0614326 10.3400094,14.2995349 10.1002342,14.2995349 L9.38082436,15.490214 C9.14096487,15.7284 9.14096487,15.966586 8.66133021,15.966586 L6.02338173,16.680893 L1.94669789,16.680893 C1.70683841,16.680893 1.46706323,16.9190791 1.22728806,16.9190791 L0.507793911,17.8716558 C0.0281592506,18.5860465 0.0281592506,18.8241488 0.0281592506,19.0623349 L0.0281592506,20.253014 L0.987428571,20.253014 L0.987428571,24.0632372 C0.987428571,24.3014233 1.22728806,24.5396093 1.46706323,24.7777116 L3.14574239,26.206493 C3.38560187,26.4446791 3.38560187,26.4446791 3.38560187,26.6828651 L3.86515222,28.3497488 L3.86515222,31.4455814 L2.90596721,31.4455814 L2.90596721,33.3507349 C2.90596721,33.5888372 3.14574239,33.8269395 3.14574239,34.0651256 L5.30405621,35.9701953 L6.5031007,35.9701953 L11.2994473,40.7330791 L11.5392225,40.9711814 L15.6159906,42.6380651 L16.3354848,41.6855721 L17.7743044,41.6855721 C18.2540234,41.6855721 18.4937986,41.9237581 18.7335738,42.1618605 L19.4529836,43.5907256 C19.6928431,43.8288279 19.9327026,44.067014 20.4122529,44.067014 L21.6112974,44.067014 C21.8511569,44.067014 21.8511569,44.067014 22.0910164,43.8288279 L24.4891054,42.3999628 C24.7288806,42.1618605 25.2085152,42.1618605 25.4482904,42.3999628 L27.6066042,43.3525395 L27.6066042,42.3999628 L28.805733,42.3999628 L29.2853677,43.8288279 L29.2853677,45.9720837 C29.2853677,46.2102698 29.2853677,46.4483721 29.0455082,46.6864744 L27.8464637,47.8772372 L27.8464637,49.0679163 L28.805733,49.3060186 C29.0455082,49.3060186 29.5251429,49.5442047 29.5251429,50.020493 L29.764918,50.7348837 L29.764918,52.4018512 L32.1630913,54.0688186 C32.4028665,54.3070047 32.642726,54.3070047 32.642726,54.3070047 L33.1223607,54.3070047 C33.6019953,54.3070047 34.0815457,53.8306326 34.0815457,53.3544279 C34.0815457,52.8782233 34.5612646,52.4018512 35.040815,52.4018512 L37.4389883,52.4018512 C37.6787635,52.4018512 37.918623,52.4018512 38.1583981,52.1637488 L38.877808,51.6873767 C39.3575269,51.4492744 39.8370773,51.4492744 40.3167119,51.9255628 L41.9953911,53.8307163 C42.2352506,54.0688186 42.4750258,54.3070047 42.7148009,54.3070047 L45.5926089,54.3070047 L45.8323841,55.4976837 L44.1537892,57.4027535 L44.1537892,58.5935163 L45.3527494,59.307907 C45.8324684,59.5460093 46.5518782,59.307907 46.7916534,58.8316186 L47.9906979,57.1646512 C48.2305574,56.9265488 48.2305574,56.6883628 48.2305574,56.4502605 L47.9906979,54.783293 C47.9906979,54.3069209 48.2305574,53.5925302 48.710192,53.5925302 L50.3887869,53.1162419 L50.8685059,53.1162419 L51.8276909,53.3544279 L53.0268197,52.8781395 L53.2665948,51.6874605 C53.2665948,51.2110884 53.7462295,50.972986 53.9860047,50.972986 L55.4249087,50.4967814 C55.6646838,50.4967814 55.6646838,50.4967814 55.9045433,50.2585953 L60.4609461,46.2102698 C60.7008056,45.9720837 60.7008056,45.9720837 60.7008056,45.7338977 L61.4202155,42.1618605 C61.4202155,41.9237581 61.6600749,41.6855721 61.8998501,41.4474698 L63.0988946,40.7329953 C63.3387541,40.494893 63.5786136,40.0186047 63.5786136,39.7805023 L63.0988946,35.4939907 C63.0988946,35.2558047 62.8591194,35.0176186 62.61926,34.7795163 L61.6600749,34.0651256 C61.4202155,33.8269395 61.180356,33.5888372 61.180356,33.3507349 L60.9405808,32.3981581 C60.9405808,32.1599721 60.7008056,31.921786 60.4609461,31.6836837 L58.7823513,30.2549023 C58.3026323,30.0167163 58.3026323,29.3023256 58.5424918,28.8260372 L59.5017611,27.1590698 C59.5017611,26.9209674 59.7415363,26.9209674 59.9813115,26.6827814 L61.8998501,25.9683907 L61.8998501,24.7777116 L59.9813115,24.7777116 C59.7415363,24.7777116 59.2619016,25.015814 59.0221265,25.2539163 L58.3026323,26.206493 L57.5832225,26.9209674 L57.3434473,25.7302047 L55.6646838,25.2539163 L59.7415363,20.0149116 L60.221171,20.7293023 L60.221171,22.1581674 C60.221171,22.3962698 60.221171,22.8725581 60.4609461,22.8725581 L60.7008056,23.1106605 C61.1804403,23.3488465 61.6600749,23.3488465 62.1396253,23.1106605 L65.4970679,19.7767256 C65.7368431,19.5386233 65.7368431,19.3004372 65.7368431,18.8241488 L65.4970679,17.8716558 L67.6553817,17.6334698 C67.8951569,17.6334698 68.1350164,17.3953674 68.3747916,17.3953674 L70.2933302,15.490214 C70.5331054,15.2521116 70.7728806,14.7758233 70.5331054,14.2995349 L69.3340609,11.6799907 L70.2933302,10.727414 L71.9719251,10.727414 L71.9719251,10.9656 Z" id="Shape" fill="#D7EAF9"></path>
                    <path d="M60.2210867,50.2585953 C60.2210867,50.4967814 59.9812272,50.4967814 59.9812272,50.7348837 L59.9812272,52.6400372 C59.9812272,52.8781395 59.9812272,53.1162419 60.2210867,53.3544279 L61.180356,54.783293 L61.8997658,53.8307163 C61.8997658,53.5925302 62.139541,53.5925302 62.139541,53.3543442 L62.61926,48.3535256 L61.4200468,48.3535256 L60.221171,50.2585116 L60.2210867,50.2585953 Z" id="Shape" fill="#C9D4F0"></path>
                    <path d="M14.4168618,26.6267721 C14.4168618,29.0947143 16.4315805,31.0953767 18.9168618,31.0953767 C21.4021432,31.0953767 23.4168618,29.0947143 23.4168618,26.6267721 C23.4168618,24.1588299 21.4021432,22.1581674 18.9168618,22.1581674 C16.4315805,22.1581674 14.4168618,24.1588299 14.4168618,26.6267721 Z" id="Path" fill="#76A4D6"></path>
                    <path d="M52.7868714,38.7460042 C52.7783613,41.4124046 54.2059783,43.8798838 56.5299645,45.2155295 C58.8539507,46.5511751 61.7196786,46.5511751 64.0436647,45.2155295 C66.3676509,43.8798838 67.795268,41.4124046 67.7867579,38.7460042 C67.7988034,36.0772878 66.3719697,33.6061582 64.0465426,32.2683351 C61.7211154,30.930512 58.8525892,30.930512 56.527162,32.2683351 C54.2017348,33.6061582 52.7749011,36.0772878 52.7869467,38.7460042 L52.7868714,38.7460042 Z" id="Path" fill="#76A4D6"></path>
                </g>
            </g>
        </g>
    </g>
</svg>