<?xml version="1.0" standalone="no"?><!DOCTYPE svg PUBLIC "-//W3C//DTD SVG 1.1//EN" "http://www.w3.org/Graphics/SVG/1.1/DTD/svg11.dtd"><svg t="1519871458451" class="icon" style="" viewBox="0 0 7577 1024" version="1.1" xmlns="http://www.w3.org/2000/svg" p-id="2192" xmlns:xlink="http://www.w3.org/1999/xlink" width="1479.8828125" height="200"><defs><style type="text/css"></style></defs><path d="M1888.256 544.768c-16.384-20.48-45.056-36.864-77.824-40.96 24.576-12.288 45.056-24.576 61.44-45.056 12.288-20.48 20.48-45.056 20.48-73.728 0-40.96-12.288-69.632-40.96-94.208-28.672-24.576-69.632-36.864-122.88-36.864h-241.664V778.24h241.664c57.344 0 98.304-12.288 131.072-32.768 36.864-24.576 53.248-65.536 53.248-118.784 0-32.768-8.192-61.44-24.576-81.92z m-315.392-221.184h135.168c36.864 0 61.44 4.096 77.824 16.384 16.384 12.288 24.576 28.672 24.576 53.248 0 28.672-8.192 49.152-24.576 61.44-16.384 12.288-40.96 16.384-77.824 16.384h-131.072V323.584z m217.088 368.64c-16.384 12.288-45.056 16.384-77.824 16.384h-143.36v-163.84h143.36c36.864 0 65.536 8.192 86.016 20.48 16.384 12.288 24.576 32.768 24.576 65.536 4.096 28.672-8.192 49.152-32.768 61.44zM2043.904 241.664c16.384 0 28.672 4.096 40.96 16.384 12.288 12.288 16.384 24.576 16.384 40.96s-4.096 28.672-16.384 40.96-24.576 16.384-40.96 16.384-28.672-4.096-40.96-16.384c-12.288-12.288-16.384-24.576-16.384-40.96s4.096-28.672 16.384-40.96c12.288-12.288 24.576-16.384 40.96-16.384zM2002.944 397.312H2088.96V778.24h-86.016zM2310.144 274.432v122.88h86.016v69.632h-86.016v217.088c0 8.192 0 16.384 4.096 20.48 4.096 4.096 12.288 8.192 20.48 8.192h49.152V778.24h-65.536c-32.768 0-57.344-8.192-73.728-24.576-16.384-16.384-20.48-40.96-20.48-69.632v-217.088h-69.632V397.312h69.632V307.2l86.016-32.768zM2691.072 241.664c69.632 0 122.88 16.384 159.744 45.056 36.864 28.672 61.44 73.728 69.632 131.072h-86.016c-8.192-32.768-24.576-57.344-49.152-77.824-24.576-16.384-57.344-24.576-98.304-24.576-49.152 0-90.112 16.384-118.784 49.152-32.768 36.864-49.152 86.016-49.152 151.552 0 61.44 12.288 110.592 40.96 143.36 28.672 36.864 77.824 53.248 143.36 53.248 24.576 0 49.152-4.096 69.632-8.192s40.96-12.288 57.344-24.576V573.44h-139.264v-73.728h225.28v221.184c-28.672 20.48-61.44 36.864-94.208 49.152-36.864 12.288-81.92 16.384-126.976 16.384-86.016 0-147.456-24.576-196.608-77.824-45.056-49.152-65.536-114.688-65.536-192.512 0-77.824 20.48-143.36 65.536-196.608 53.248-53.248 114.688-77.824 192.512-77.824zM3022.848 241.664h86.016V778.24h-86.016zM3518.464 442.368c-36.864-36.864-81.92-57.344-139.264-57.344s-106.496 20.48-139.264 57.344c-36.864 36.864-53.248 86.016-53.248 143.36s16.384 106.496 53.248 143.36c36.864 36.864 81.92 57.344 139.264 57.344s106.496-20.48 139.264-57.344c32.768-36.864 53.248-86.016 53.248-143.36-4.096-57.344-20.48-106.496-53.248-143.36z m-61.44 237.568c-20.48 28.672-45.056 40.96-81.92 40.96-36.864 0-61.44-12.288-81.92-40.96-16.384-24.576-24.576-53.248-24.576-90.112 0-36.864 8.192-69.632 24.576-90.112 20.48-28.672 45.056-40.96 81.92-40.96 32.768 0 61.44 12.288 81.92 40.96 16.384 24.576 24.576 53.248 24.576 90.112 4.096 32.768-8.192 65.536-24.576 90.112zM3969.024 446.464c-32.768-40.96-73.728-61.44-126.976-61.44-45.056 0-81.92 20.48-114.688 61.44v-204.8h-86.016V778.24h77.824v-40.96c24.576 32.768 65.536 49.152 114.688 49.152 57.344 0 98.304-20.48 131.072-61.44 28.672-36.864 45.056-86.016 45.056-143.36 4.096-53.248-12.288-98.304-40.96-135.168z m-61.44 233.472c-16.384 24.576-45.056 40.96-81.92 40.96-32.768 0-57.344-12.288-77.824-40.96-16.384-24.576-24.576-53.248-24.576-90.112v-4.096c0-40.96 8.192-73.728 28.672-98.304 16.384-20.48 40.96-32.768 65.536-32.768 36.864 0 65.536 12.288 81.92 36.864 16.384 20.48 24.576 53.248 24.576 94.208s-4.096 73.728-16.384 94.208zM4386.816 430.08c-24.576-28.672-69.632-40.96-122.88-40.96-49.152 0-86.016 8.192-114.688 24.576-32.768 20.48-53.248 49.152-61.44 90.112l81.92 8.192c4.096-20.48 16.384-32.768 32.768-45.056 12.288-8.192 32.768-12.288 57.344-12.288 53.248 0 81.92 24.576 81.92 73.728v16.384l-81.92 4.096c-57.344 0-98.304 12.288-131.072 36.864-32.768 24.576-49.152 57.344-49.152 98.304 0 32.768 12.288 57.344 36.864 77.824 24.576 20.48 53.248 28.672 94.208 28.672 32.768 0 61.44-4.096 86.016-16.384 20.48-12.288 40.96-24.576 53.248-45.056V778.24h77.824v-241.664c-8.192-49.152-20.48-81.92-40.96-106.496z m-49.152 192.512c0 28.672-12.288 53.248-32.768 73.728s-49.152 28.672-81.92 28.672c-16.384 0-32.768-4.096-45.056-12.288-12.288-8.192-16.384-20.48-16.384-32.768 0-45.056 32.768-69.632 98.304-69.632l77.824-4.096v16.384zM4517.888 241.664h86.016V778.24h-86.016zM4882.432 655.36v-32.768h356.352v-159.744h-434.176v393.216h77.824v-24.576h315.392v24.576h77.824V655.36h-393.216z m0-131.072h282.624v36.864h-282.624v-36.864z m315.392 237.568h-315.392v-49.152h315.392v49.152z" fill="#FFFFFF" p-id="2193"></path><path d="M5337.088 368.64v143.36h-73.728v-77.824h-487.424v77.824h-73.728V368.64h282.624c-4.096-12.288-12.288-24.576-16.384-36.864l65.536-12.288-16.384-8.192c32.768-45.056 57.344-90.112 73.728-143.36l73.728 16.384c-4.096 12.288-8.192 20.48-12.288 32.768h200.704V286.72h-114.688c12.288 16.384 20.48 28.672 24.576 40.96l-69.632 24.576c-12.288-24.576-24.576-45.056-40.96-69.632h-32.768c-12.288 24.576-24.576 45.056-40.96 65.536l-32.768-20.48 12.288 36.864h278.528z" fill="#FFFFFF" p-id="2194"></path><path d="M4804.608 286.72c-16.384 24.576-32.768 49.152-53.248 73.728l-65.536-40.96c40.96-45.056 73.728-94.208 90.112-147.456l73.728 16.384c-4.096 12.288-8.192 20.48-12.288 32.768h180.224V286.72H4915.2c12.288 16.384 20.48 32.768 28.672 49.152l-69.632 24.576c-12.288-24.576-24.576-53.248-40.96-77.824h-28.672zM5914.624 761.856v-69.632h159.744v-69.632h-159.744v-69.632h151.552V196.608h-376.832v356.352h151.552v69.632h-159.744v69.632h159.744v69.632H5652.48v73.728h446.464v-73.728h-184.32z m0-499.712h77.824v77.824h-77.824V262.144z m0 143.36h77.824v77.824h-77.824V405.504z m-77.824 81.92h-77.824v-81.92h77.824v81.92z m0-147.456h-77.824V262.144h77.824v77.824zM5435.392 438.272h69.632V286.72h-81.92V212.992h241.664V286.72h-81.92v151.552h69.632v73.728h-69.632v139.264c24.576-8.192 45.056-16.384 69.632-24.576v73.728c-69.632 24.576-139.264 49.152-217.088 65.536l-20.48-73.728c28.672-4.096 61.44-12.288 90.112-16.384v-163.84h-69.632v-73.728zM6303.744 450.56v4.096c-4.096 167.936-36.864 299.008-98.304 397.312l-57.344-61.44c49.152-81.92 73.728-192.512 77.824-339.968V221.184c196.608 0 368.64-16.384 520.192-45.056l36.864 69.632c-143.36 24.576-303.104 40.96-483.328 45.056v81.92h520.192V450.56h-516.096z" fill="#FFFFFF" p-id="2195"></path><path d="M6356.992 532.48v323.584h77.824v-28.672h262.144v28.672h77.824V532.48h-417.792z m339.968 221.184h-262.144v-147.456h262.144v147.456zM6979.584 540.672v315.392h77.824v-28.672h352.256v28.672h77.824v-315.392h-507.904z m430.08 212.992h-352.256V614.4h352.256v139.264zM6930.432 475.136l-12.288-73.728c53.248-8.192 126.976-86.016 229.376-233.472l77.824 28.672c-57.344 77.824-114.688 147.456-176.128 200.704 118.784-4.096 237.568-12.288 348.16-24.576-20.48-32.768-45.056-61.44-69.632-94.208l69.632-32.768c57.344 73.728 114.688 155.648 167.936 245.76l-69.632 40.96-49.152-86.016c-155.648 12.288-327.68 20.48-516.096 28.672zM360.448 12.288l184.32 307.2c4.096 4.096 4.096 16.384 0 20.48l-81.92 135.168c-12.288 20.48-12.288 45.056 0 65.536l278.528 466.944v8.192l-4.096 4.096H331.776c-24.576 0-45.056-12.288-57.344-32.768L8.192 544.768c-12.288-20.48-12.288-45.056 0-65.536L274.432 32.768c8.192-20.48 32.768-32.768 57.344-32.768h12.288c8.192 0 16.384 4.096 16.384 12.288z" fill="#FFFFFF" p-id="2196"></path><path d="M1220.608 499.712v12.288c0 12.288 0 20.48-8.192 28.672l-266.24 450.56c-12.288 20.48-32.768 32.768-57.344 32.768H860.16c-8.192 0-16.384-4.096-20.48-12.288L737.28 839.68l49.152-86.016c4.096-8.192 8.192-20.48 8.192-28.672 0-8.192-4.096-16.384-8.192-20.48-4.096-4.096-12.288-8.192-20.48-8.192H655.36l-90.112-151.552c-8.192-12.288-8.192-28.672-4.096-45.056 0-8.192 12.288-16.384 20.48-16.384h610.304c12.288 0 24.576 4.096 28.672 16.384zM671.744 323.584c-24.576 0-45.056-12.288-53.248-32.768l-163.84-278.528V4.096c0-4.096 4.096 0 4.096 0h434.176c24.576 0 40.96 12.288 53.248 32.768l163.84 278.528v8.192L1105.92 327.68l-434.176-4.096c4.096 0 0 0 0 0z" fill="#97C554" p-id="2197"></path></svg>