<?xml version="1.0" standalone="no"?><!DOCTYPE svg PUBLIC "-//W3C//DTD SVG 1.1//EN" "http://www.w3.org/Graphics/SVG/1.1/DTD/svg11.dtd"><svg t="1523332262538" class="icon" style="" viewBox="0 0 3379 1024" version="1.1" xmlns="http://www.w3.org/2000/svg" p-id="2111" xmlns:xlink="http://www.w3.org/1999/xlink" width="659.9609375" height="200"><defs><style type="text/css"></style></defs><path d="M610.986667 512L375.466667 276.48 139.946667 512 0 372.053333 375.466667 0l375.466666 372.053333-139.946666 139.946667z" fill="#29C59A" p-id="2112"></path><path d="M375.466667 744.106667l235.52-232.106667 139.946666 136.533333-375.466666 372.053334L0 648.533333l139.946667-136.533333 235.52 232.106667z" fill="#2190D2" p-id="2113"></path><path d="M1409.706667 453.973333v133.12h-296.96v27.306667h324.266666v167.253333h-64.853333v-20.48h-262.826667v20.48h-64.853333v-327.68h365.226667z m-296.96 249.173334h262.826666v-40.96h-262.826666v40.96z m0-167.253334h235.52v-30.72h-235.52v30.72zM1495.04 375.466667v119.466666H1433.6v-64.853333H1027.413333v64.853333h-61.44V375.466667h235.52c-3.413333-10.24-10.24-20.48-13.653333-30.72l54.613333-10.24-13.653333-6.826667c27.306667-37.546667 47.786667-75.093333 61.44-119.466667l61.44 13.653334c-3.413333 10.24-6.826667 17.066667-10.24 27.306666h170.666667V307.2h-95.573334c10.24 13.653333 17.066667 23.893333 20.48 34.133333l-58.026666 20.48c-10.24-20.48-20.48-37.546667-34.133334-58.026666h-27.306666c-10.24 20.48-20.48 37.546667-34.133334 54.613333l-27.306666-17.066667 10.24 30.72h228.693333z m-443.733333-68.266667c-13.653333 20.48-27.306667 40.96-44.373334 61.44l-54.613333-34.133333c34.133333-37.546667 61.44-78.506667 75.093333-122.88l61.44 13.653333c-3.413333 10.24-6.826667 17.066667-10.24 27.306667H1228.8V307.2h-88.746667c10.24 13.653333 17.066667 27.306667 23.893334 40.96l-58.026667 23.893333c-10.24-20.48-20.48-44.373333-34.133333-64.853333h-20.48z m733.866666-75.093333h314.026667v296.96h-126.293333v58.026666h133.12v58.026667h-133.12v58.026667h153.6v61.44H1754.453333v-61.44H1911.466667v-58.026667h-133.12v-58.026667H1911.466667v-58.026666h-126.293334V232.106667z m252.586667 242.346666V409.6h-64.853333v64.853333h64.853333z m-126.293333 0V409.6h-64.853334v64.853333H1911.466667z m-64.853334-122.88H1911.466667V286.72h-64.853334v64.853333z m126.293334-64.853333v64.853333h64.853333V286.72h-64.853333z m-399.36 146.773333h58.026666V307.2h-68.266666V245.76h201.386666V307.2h-68.266666v126.293333h58.026666v61.44h-58.026666v116.053334c20.48-6.826667 37.546667-13.653333 58.026666-20.48v61.44c-58.026667 20.48-116.053333 40.96-180.906666 54.613333l-17.066667-61.44c23.893333-3.413333 51.2-10.24 75.093333-13.653333v-136.533334h-58.026666v-61.44z m727.04 10.24v3.413334c-3.413333 139.946667-30.72 249.173333-81.92 331.093333l-47.786667-51.2c40.96-68.266667 61.44-160.426667 64.853333-283.306667V252.586667c163.84 0 307.2-13.653333 433.493334-37.546667l30.72 58.026667c-119.466667 20.48-252.586667 34.133333-402.773334 37.546666v68.266667H2730.666667V443.733333H2300.586667z m389.12 68.266667v269.653333h-64.853334v-23.893333h-218.453333v23.893333h-64.853333V512h348.16z m-283.306667 184.32h218.453333v-122.88h-218.453333v122.88z m877.226667-177.493333v262.826666h-64.853334v-23.893333h-293.546666v23.893333h-64.853334v-262.826666h423.253334z m-358.4 177.493333h293.546666V580.266667h-293.546666v116.053333z m-102.4-232.106667l-10.24-61.44c44.373333-6.826667 105.813333-71.68 191.146666-194.56l64.853334 23.893334c-47.786667 64.853333-95.573333 122.88-146.773334 167.253333 98.986667-3.413333 197.973333-10.24 290.133334-20.48-17.066667-27.306667-37.546667-51.2-58.026667-75.093333l58.026667-27.306667c47.786667 61.44 95.573333 129.706667 139.946666 204.8l-61.44 30.72-40.96-71.68c-129.706667 10.24-273.066667 17.066667-426.666666 23.893333z" fill="#FFFFFF" p-id="2114"></path></svg>