<?xml version="1.0" standalone="no"?><!DOCTYPE svg PUBLIC "-//W3C//DTD SVG 1.1//EN" "http://www.w3.org/Graphics/SVG/1.1/DTD/svg11.dtd"><svg t="1566963345294" class="icon" viewBox="0 0 1024 1024" version="1.1" xmlns="http://www.w3.org/2000/svg" p-id="6459" width="16" height="16" xmlns:xlink="http://www.w3.org/1999/xlink"><defs><style type="text/css"></style></defs><path d="M512 0C229.12 0 0 229.12 0 512s229.12 512 512 512 512-229.12 512-512S794.88 0 512 0z" fill="#3E85A2" p-id="6460"></path><path d="M510.6688 643.072c-25.9584 0-46.9504-27.2896-46.9504-61.7984V291.7376c0-34.4576 20.992-61.7984 46.9504-61.7984 25.4976 0 46.4896 27.3408 46.4896 61.7984v289.536c0 34.5088-20.992 61.8496-46.4896 61.8496zM512 685.568c29.952 0 54.1184 24.1664 54.1184 54.1184s-24.1664 54.1184-54.1184 54.1184a54.016 54.016 0 0 1-54.1184-54.1184c0-29.952 24.1664-54.1184 54.1184-54.1184z" fill="#FFFFFF" p-id="6461"></path></svg>