<?xml version="1.0" encoding="UTF-8" standalone="no"?>
<svg width="50px" height="250px" viewBox="0 0 50 250" version="1.1" xmlns="http://www.w3.org/2000/svg" xmlns:xlink="http://www.w3.org/1999/xlink">
    <!-- Generator: Sketch 44.1 (41455) - http://www.bohemiancoding.com/sketch -->
    <title>Artboard</title>
    <desc>Created with Sketch.</desc>
    <defs></defs>
    <g id="Page-1" stroke="none" stroke-width="1" fill="none" fill-rule="evenodd">
        <g id="Artboard" fill-rule="nonzero">
            <g id="微博-移上" transform="translate(10.000000, 50.000000)" fill="#D81E06">
                <path d="M25.414202,29.9713351 L4.58579796,29.9713351 C2.06863604,29.9713351 0.02604375,27.9339165 0.02604375,25.4116152 L0.0260437835,4.58838479 C0.0260437835,2.06608349 2.06863604,0.0286305804 4.58579799,0.0286305804 L25.414202,0.0286305804 C27.9312955,0.0286305804 29.973922,2.06608346 29.973922,4.58838479 L29.973922,25.4116152 C29.973922,27.9339165 27.9312954,29.9713351 25.414202,29.9713351 L25.414202,29.9713351 Z M15.0905497,10.9119731 C15.0905497,9.92775383 14.7500451,8.26252539 11.8555632,9.24671711 C8.96524658,10.2350741 6.47772056,13.7026265 6.47772056,13.7026265 C4.75431616,16.0115697 4.9827444,17.7931225 4.9827444,17.7931225 C5.41047154,21.7257516 9.59230018,22.8054965 12.8397549,23.0588336 C16.2616548,23.3287492 20.8753483,21.8794256 22.274854,18.9102169 C23.6743322,15.9327053 21.1328507,14.7533248 20.3230766,14.5913754 C19.5174125,14.4335638 19.9077901,14.0016714 19.9077901,14.0016714 C19.9077901,14.0016714 20.6968206,12.7018565 19.7499785,11.7550419 C18.583011,10.5839644 15.7342644,11.904523 15.7342644,11.904523 C14.6462166,12.2408623 14.9369033,11.7508215 15.0905497,10.9119731 L15.0905497,10.9119731 Z M21.4235374,12.6478182 C21.4235374,12.9592762 21.6768746,13.2042828 21.9883326,13.2042828 C22.2624133,13.2042828 22.4949241,13.000791 22.5323289,12.7350132 C22.5364666,12.7184073 22.5406319,12.7017737 22.5406319,12.6768648 C22.960056,8.92692861 19.4675947,9.57475347 19.4675947,9.57475347 C19.1602744,9.57475347 18.9111025,9.82392536 18.9111025,10.1395486 C18.9111025,10.4427036 19.1602744,10.6960132 19.4675947,10.6960132 C21.9758367,10.1437138 21.4235374,12.6478182 21.4235374,12.6478182 L21.4235374,12.6478182 Z M21.5771838,6.66369315 C20.3728944,6.38130937 19.1312002,6.62217829 18.7865028,6.68860205 C18.7574562,6.69273975 18.7325197,6.71767625 18.7076384,6.72181395 C18.6951426,6.72597922 18.6868396,6.73844748 18.6868396,6.73844748 C18.346335,6.83394544 18.0930254,7.1495687 18.0930254,7.52747799 C18.0930254,7.97181106 18.4584665,8.34141741 18.911075,8.34141741 C18.911075,8.34141741 19.3471603,8.28326904 19.64615,8.16699985 C19.9409744,8.04656539 22.4409135,8.07563959 23.67847,10.1603198 C24.3595067,11.6802325 23.9774873,12.7018013 23.9318071,12.8637782 C23.9318071,12.8637782 23.7698578,13.2582935 23.7698578,13.6486434 C23.7698578,14.0971418 24.1311612,14.3795256 24.5796044,14.3795256 C24.9574861,14.3795256 25.268944,14.3255425 25.3603319,13.6943236 L25.3686349,13.6943236 C26.7016893,9.2508548 23.7366183,7.16617463 21.5771838,6.66369315 L21.5771838,6.66369315 Z M19.239194,17.4069102 C19.239194,19.6701732 16.4900555,21.7963683 13.0930921,21.9500146 C9.70029395,22.1119639 6.95532068,20.4051931 6.95532068,18.14193 C6.95532068,15.8745293 9.70029395,14.0555993 13.0930921,13.8978153 C16.4900555,13.7400037 19.239194,15.1395095 19.239194,17.4069102 L19.239194,17.4069102 Z M12.4161931,15.3927915 C9.00262371,15.791472 9.39711139,18.9890813 9.39711139,18.9890813 C9.39711139,18.9890813 9.3638995,20.0023473 10.310714,20.517297 C12.3081993,21.6011795 14.3679705,20.9450517 15.4061453,19.6036943 C16.448513,18.2623645 15.8380929,14.9982762 12.4161931,15.3927915 L12.4161931,15.3927915 Z M12.9726576,18.1128834 C12.8522232,17.9260252 12.8979033,17.6187049 13.118001,17.4608933 C13.3713381,17.2740351 13.6329507,17.3280182 13.7450546,17.5148764 C13.8613514,17.7100376 13.7782665,18.0007244 13.5664718,18.1668665 C13.3505669,18.3288159 13.0889268,18.3080446 12.9726576,18.1128834 L12.9726576,18.1128834 Z M11.5565459,19.8819404 C10.917024,19.9566947 10.4062396,19.5912536 10.4062396,19.0555327 C10.4062396,18.5239771 10.8588756,17.9675125 11.4984251,17.9010611 C12.2293072,17.8304445 12.7068798,18.2540339 12.7068798,18.7855896 C12.7068798,19.3171728 12.1919577,19.8113513 11.5565459,19.8819404 L11.5565459,19.8819404 Z" id="Shape"></path>
            </g>
            <g id="微博-默认" transform="translate(10.000000, 10.000000)" fill="#B1B1B1">
                <path d="M25.414202,29.9713351 L4.58579796,29.9713351 C2.06863604,29.9713351 0.02604375,27.9339165 0.02604375,25.4116152 L0.0260437835,4.58838479 C0.0260437835,2.06608349 2.06863604,0.0286305804 4.58579799,0.0286305804 L25.414202,0.0286305804 C27.9312955,0.0286305804 29.973922,2.06608346 29.973922,4.58838479 L29.973922,25.4116152 C29.973922,27.9339165 27.9312954,29.9713351 25.414202,29.9713351 L25.414202,29.9713351 Z M15.0905497,10.9119731 C15.0905497,9.92775383 14.7500451,8.26252539 11.8555632,9.24671711 C8.96524658,10.2350741 6.47772056,13.7026265 6.47772056,13.7026265 C4.75431616,16.0115697 4.9827444,17.7931225 4.9827444,17.7931225 C5.41047154,21.7257516 9.59230018,22.8054965 12.8397549,23.0588336 C16.2616548,23.3287492 20.8753483,21.8794256 22.274854,18.9102169 C23.6743322,15.9327053 21.1328507,14.7533248 20.3230766,14.5913754 C19.5174125,14.4335638 19.9077901,14.0016714 19.9077901,14.0016714 C19.9077901,14.0016714 20.6968206,12.7018565 19.7499785,11.7550419 C18.583011,10.5839644 15.7342644,11.904523 15.7342644,11.904523 C14.6462166,12.2408623 14.9369033,11.7508215 15.0905497,10.9119731 L15.0905497,10.9119731 Z M21.4235374,12.6478182 C21.4235374,12.9592762 21.6768746,13.2042828 21.9883326,13.2042828 C22.2624133,13.2042828 22.4949241,13.000791 22.5323289,12.7350132 C22.5364666,12.7184073 22.5406319,12.7017737 22.5406319,12.6768648 C22.960056,8.92692861 19.4675947,9.57475347 19.4675947,9.57475347 C19.1602744,9.57475347 18.9111025,9.82392536 18.9111025,10.1395486 C18.9111025,10.4427036 19.1602744,10.6960132 19.4675947,10.6960132 C21.9758367,10.1437138 21.4235374,12.6478182 21.4235374,12.6478182 L21.4235374,12.6478182 Z M21.5771838,6.66369315 C20.3728944,6.38130937 19.1312002,6.62217829 18.7865028,6.68860205 C18.7574562,6.69273975 18.7325197,6.71767625 18.7076384,6.72181395 C18.6951426,6.72597922 18.6868396,6.73844748 18.6868396,6.73844748 C18.346335,6.83394544 18.0930254,7.1495687 18.0930254,7.52747799 C18.0930254,7.97181106 18.4584665,8.34141741 18.911075,8.34141741 C18.911075,8.34141741 19.3471603,8.28326904 19.64615,8.16699985 C19.9409744,8.04656539 22.4409135,8.07563959 23.67847,10.1603198 C24.3595067,11.6802325 23.9774873,12.7018013 23.9318071,12.8637782 C23.9318071,12.8637782 23.7698578,13.2582935 23.7698578,13.6486434 C23.7698578,14.0971418 24.1311612,14.3795256 24.5796044,14.3795256 C24.9574861,14.3795256 25.268944,14.3255425 25.3603319,13.6943236 L25.3686349,13.6943236 C26.7016893,9.2508548 23.7366183,7.16617463 21.5771838,6.66369315 L21.5771838,6.66369315 Z M19.239194,17.4069102 C19.239194,19.6701732 16.4900555,21.7963683 13.0930921,21.9500146 C9.70029395,22.1119639 6.95532068,20.4051931 6.95532068,18.14193 C6.95532068,15.8745293 9.70029395,14.0555993 13.0930921,13.8978153 C16.4900555,13.7400037 19.239194,15.1395095 19.239194,17.4069102 L19.239194,17.4069102 Z M12.4161931,15.3927915 C9.00262371,15.791472 9.39711139,18.9890813 9.39711139,18.9890813 C9.39711139,18.9890813 9.3638995,20.0023473 10.310714,20.517297 C12.3081993,21.6011795 14.3679705,20.9450517 15.4061453,19.6036943 C16.448513,18.2623645 15.8380929,14.9982762 12.4161931,15.3927915 L12.4161931,15.3927915 Z M12.9726576,18.1128834 C12.8522232,17.9260252 12.8979033,17.6187049 13.118001,17.4608933 C13.3713381,17.2740351 13.6329507,17.3280182 13.7450546,17.5148764 C13.8613514,17.7100376 13.7782665,18.0007244 13.5664718,18.1668665 C13.3505669,18.3288159 13.0889268,18.3080446 12.9726576,18.1128834 L12.9726576,18.1128834 Z M11.5565459,19.8819404 C10.917024,19.9566947 10.4062396,19.5912536 10.4062396,19.0555327 C10.4062396,18.5239771 10.8588756,17.9675125 11.4984251,17.9010611 C12.2293072,17.8304445 12.7068798,18.2540339 12.7068798,18.7855896 C12.7068798,19.3171728 12.1919577,19.8113513 11.5565459,19.8819404 L11.5565459,19.8819404 Z" id="Shape"></path>
            </g>
            <g id="facebook-移上" transform="translate(10.000000, 130.000000)" fill="#5D82D1">
                <path d="M26.9906323,0.0117095902 L3.00936769,0.0117095902 C1.36065573,0.0117095902 0.0117095902,1.36065573 0.0117095902,3.00936769 L0.0117095902,26.9906323 C0.0117095902,28.6393442 1.36065573,29.9882904 3.00936769,29.9882904 L26.9906323,29.9882904 C28.6393442,29.9882904 29.9882904,28.6393443 29.9882904,26.9906323 L29.9882904,3.00936769 C29.9882904,1.36065576 28.6393443,0.0117096253 26.9906323,0.0117095902 L26.9906323,0.0117095902 Z M25.4918033,5.01170959 L25.4918033,8.94174472 L22.8717798,8.94174472 C22.1512734,8.94174472 21.5617681,9.53124999 21.5617682,10.2517564 L21.5617682,12.8717798 L25.4918033,12.8717798 L25.4918033,16.801815 L21.5617682,16.801815 L21.5617682,25.9718969 L17.631733,25.9718969 L17.631733,16.801815 L15.0117096,16.801815 L15.0117096,12.8717798 L17.631733,12.8717798 L17.631733,9.59675056 C17.631733,7.04222773 19.6622512,5.01170959 22.216774,5.01170959 L25.4918033,5.01170959 Z" id="Shape"></path>
            </g>
            <g id="facebook-默认" transform="translate(10.000000, 90.000000)" fill="#B1B1B1">
                <path d="M26.9906323,0.0117095902 L3.00936769,0.0117095902 C1.36065573,0.0117095902 0.0117095902,1.36065573 0.0117095902,3.00936769 L0.0117095902,26.9906323 C0.0117095902,28.6393442 1.36065573,29.9882904 3.00936769,29.9882904 L26.9906323,29.9882904 C28.6393442,29.9882904 29.9882904,28.6393443 29.9882904,26.9906323 L29.9882904,3.00936769 C29.9882904,1.36065576 28.6393443,0.0117096253 26.9906323,0.0117095902 L26.9906323,0.0117095902 Z M25.4918033,5.01170959 L25.4918033,8.94174472 L22.8717798,8.94174472 C22.1512734,8.94174472 21.5617681,9.53124999 21.5617682,10.2517564 L21.5617682,12.8717798 L25.4918033,12.8717798 L25.4918033,16.801815 L21.5617682,16.801815 L21.5617682,25.9718969 L17.631733,25.9718969 L17.631733,16.801815 L15.0117096,16.801815 L15.0117096,12.8717798 L17.631733,12.8717798 L17.631733,9.59675056 C17.631733,7.04222773 19.6622512,5.01170959 22.216774,5.01170959 L25.4918033,5.01170959 Z" id="Shape"></path>
            </g>
            <g id="twitter-移上" transform="translate(10.000000, 210.000000)" fill="#5EAADE">
                <path d="M27.0586957,0.014673913 L2.93347826,0.014673913 C1.3473913,0.014673913 0.0117391304,1.35032609 0.0117391304,2.93641304 L0.0117391304,27.0616304 C0.0117391304,28.6477174 1.3473913,29.9833696 2.93347826,29.9833696 L27.0586957,29.9833696 C28.6447826,29.9833696 29.9804348,28.6477174 29.9804348,27.0616304 L29.9804348,2.93641304 C29.9804348,1.35032609 28.6447826,0.014673913 27.0586957,0.014673913 Z M23.383913,11.5329348 C23.383913,11.6998913 23.383913,11.8668478 23.383913,12.0755435 C23.383913,17.4181522 19.2934783,23.5955435 11.863913,23.5955435 C9.56826087,23.5955435 7.43956522,22.9277174 5.68652174,21.7590217 C6.02043478,21.8007609 6.3126087,21.8007609 6.64652174,21.8007609 C8.56652174,21.8007609 10.3195652,21.1329348 11.6969565,20.0477174 C9.90217391,20.0059783 8.44130435,18.8372826 7.89869565,17.2094565 C8.14913043,17.2511957 8.39956522,17.2929348 8.65,17.2929348 C9.02565217,17.2929348 9.35956522,17.2511957 9.73521739,17.1677174 C7.89869565,16.7920652 6.47956522,15.1642391 6.47956522,13.2025 L6.47956522,13.1607609 C7.02217391,13.4529348 7.64826087,13.6616304 8.31608696,13.6616304 C7.23086957,12.9520652 6.52130435,11.6998913 6.52130435,10.2807609 C6.52130435,9.52945652 6.73,8.8198913 7.06391304,8.23554348 C9.0673913,10.6981522 12.0726087,12.3259783 15.37,12.4929348 C15.2865217,12.2007609 15.2447826,11.8668478 15.2447826,11.5746739 C15.2447826,9.32076087 17.0813043,7.52597826 19.2934783,7.52597826 C20.4621739,7.52597826 21.5056522,8.02684783 22.2569565,8.8198913 C23.1752174,8.65293478 24.0517391,8.31902174 24.8447826,7.81815217 C24.5526087,8.77815217 23.8847826,9.57119565 23.05,10.0720652 C23.8847826,9.98858696 24.636087,9.73815217 25.3873913,9.44597826 C24.8865217,10.2807609 24.2186957,10.9903261 23.383913,11.5329348 Z" id="Shape"></path>
            </g>
            <g id="twitter-默认" transform="translate(10.000000, 170.000000)" fill="#B1B1B1">
                <path d="M27.0586957,0.014673913 L2.93347826,0.014673913 C1.3473913,0.014673913 0.0117391304,1.35032609 0.0117391304,2.93641304 L0.0117391304,27.0616304 C0.0117391304,28.6477174 1.3473913,29.9833696 2.93347826,29.9833696 L27.0586957,29.9833696 C28.6447826,29.9833696 29.9804348,28.6477174 29.9804348,27.0616304 L29.9804348,2.93641304 C29.9804348,1.35032609 28.6447826,0.014673913 27.0586957,0.014673913 Z M23.383913,11.5329348 C23.383913,11.6998913 23.383913,11.8668478 23.383913,12.0755435 C23.383913,17.4181522 19.2934783,23.5955435 11.863913,23.5955435 C9.56826087,23.5955435 7.43956522,22.9277174 5.68652174,21.7590217 C6.02043478,21.8007609 6.3126087,21.8007609 6.64652174,21.8007609 C8.56652174,21.8007609 10.3195652,21.1329348 11.6969565,20.0477174 C9.90217391,20.0059783 8.44130435,18.8372826 7.89869565,17.2094565 C8.14913043,17.2511957 8.39956522,17.2929348 8.65,17.2929348 C9.02565217,17.2929348 9.35956522,17.2511957 9.73521739,17.1677174 C7.89869565,16.7920652 6.47956522,15.1642391 6.47956522,13.2025 L6.47956522,13.1607609 C7.02217391,13.4529348 7.64826087,13.6616304 8.31608696,13.6616304 C7.23086957,12.9520652 6.52130435,11.6998913 6.52130435,10.2807609 C6.52130435,9.52945652 6.73,8.8198913 7.06391304,8.23554348 C9.0673913,10.6981522 12.0726087,12.3259783 15.37,12.4929348 C15.2865217,12.2007609 15.2447826,11.8668478 15.2447826,11.5746739 C15.2447826,9.32076087 17.0813043,7.52597826 19.2934783,7.52597826 C20.4621739,7.52597826 21.5056522,8.02684783 22.2569565,8.8198913 C23.1752174,8.65293478 24.0517391,8.31902174 24.8447826,7.81815217 C24.5526087,8.77815217 23.8847826,9.57119565 23.05,10.0720652 C23.8847826,9.98858696 24.636087,9.73815217 25.3873913,9.44597826 C24.8865217,10.2807609 24.2186957,10.9903261 23.383913,11.5329348 Z" id="Shape"></path>
            </g>
        </g>
    </g>
</svg>