<?xml version="1.0" encoding="UTF-8" standalone="no"?>
<svg width="180px" height="450px" viewBox="0 0 180 450" version="1.1" xmlns="http://www.w3.org/2000/svg" xmlns:xlink="http://www.w3.org/1999/xlink">
    <!-- Generator: Sketch 46.2 (44496) - http://www.bohemiancoding.com/sketch -->
    <title>Artboard 3</title>
    <desc>Created with Sketch.</desc>
    <defs></defs>
    <g id="Page-1" stroke="none" stroke-width="1" fill="none" fill-rule="evenodd">
        <g id="Artboard-3" fill-rule="nonzero">
            <g id="微信-默认" transform="translate(20.000000, 160.000000)" fill="#77BA72">
                <path d="M30,60 C46.5685425,60 60,46.5685425 60,30 C60,13.4314575 46.5685425,0 30,0 C13.4314575,0 0,13.4314575 0,30 C0,46.5685425 13.4314575,60 30,60 Z M21.1329545,21.1759091 C20.2196591,21.1759091 19.30125,21.7793182 19.30125,22.6926136 C19.30125,23.6059091 20.2196591,24.2144318 21.1329545,24.2144318 C22.0452273,24.2144318 22.6506818,23.6048864 22.6506818,22.6926136 C22.6506818,21.7782955 22.0431818,21.1759091 21.1329545,21.1759091 M33.5989773,29.9979545 C32.9935227,29.9979545 32.3839773,30.6075 32.3839773,31.2139773 C32.3839773,31.8296591 32.9945455,32.43 33.5989773,32.43 C34.5184091,32.43 35.1218182,31.8286364 35.1218182,31.2139773 C35.1218182,30.6075 34.5184091,29.9979545 33.5989773,29.9979545 M25.0827273,36.6968182 C23.5660227,36.6968182 22.3438636,36.3859091 20.8230682,36.08625 L16.5715909,38.2176136 L17.7876136,34.5593182 C14.7429545,32.4310227 12.9204545,29.6901136 12.9204545,26.3488636 C12.9204545,20.56125 18.3961364,16.005 25.0827273,16.005 C31.0636364,16.005 36.3020455,19.6469318 37.3534091,24.5457955 C36.9668182,24.5028409 36.5761364,24.4752273 36.1813636,24.4752273 C30.4060227,24.4752273 25.8426136,28.7870455 25.8426136,34.1001136 C25.8426136,34.9827273 25.9817045,35.8346591 26.2189773,36.6477273 C25.8436364,36.6763636 25.4631818,36.6968182 25.0827273,36.6968182 M43.0223864,40.9564773 L43.9367045,43.995 L40.6005682,42.1694318 C39.3845455,42.4731818 38.1613636,42.78 36.9514773,42.78 C31.1659091,42.78 26.6076136,38.8240909 26.6076136,33.9538636 C26.6076136,29.0907955 31.1659091,25.12875 36.9514773,25.12875 C42.4169318,25.12875 47.2820455,29.0918182 47.2820455,33.9538636 C47.2830682,36.6968182 45.4626136,39.1247727 43.0223864,40.9564773 M40.2896591,29.9979545 C39.6872727,29.9979545 39.0807955,30.6075 39.0807955,31.2139773 C39.0807955,31.8296591 39.6872727,32.43 40.2896591,32.43 C41.2009091,32.43 41.8114773,31.8286364 41.8114773,31.2139773 C41.8114773,30.6075 41.1988636,29.9979545 40.2896591,29.9979545 M29.6430682,24.2154545 C30.5594318,24.2154545 31.1659091,23.6059091 31.1659091,22.6936364 C31.1659091,21.7782955 30.5584091,21.1769318 29.6430682,21.1769318 C28.7307955,21.1769318 27.8175,21.7803409 27.8175,22.6936364 C27.8175,23.6059091 28.7318182,24.2154545 29.6430682,24.2154545" id="Shape"></path>
            </g>
            <g id="QQ-默认" transform="translate(20.000000, 230.000000)" fill="#57B5DB">
                <path d="M30,60 C13.4314575,60 0,46.5685425 0,30 C0,13.4314575 13.4314575,0 30,0 C46.5685425,0 60,13.4314575 60,30 C60,46.5685425 46.5685425,60 30,60 Z M41.7208878,36.7953785 L41.7208878,36.7953785 C42.4961995,36.3894801 42.3456978,34.2186075 41.3742779,31.9519611 C40.6172089,30.1687443 39.5865005,28.8552752 38.8020675,28.5633931 C38.8157495,28.4493767 38.8203101,28.3353603 38.8203101,28.2213439 C38.8203101,27.5326847 38.6287625,26.8941928 38.3003953,26.3742779 C38.3049559,26.333232 38.3049559,26.2921861 38.3049559,26.2511402 C38.3049559,25.9364548 38.2274247,25.6354515 38.0997264,25.3800547 C37.8990575,20.7418668 34.8799027,17.0568562 29.9908787,17.0568562 C25.1018547,17.0568562 22.0781393,20.7418668 21.882031,25.3800547 C21.749772,25.6354515 21.6768015,25.9364548 21.6768015,26.2511402 C21.6768015,26.2921861 21.6813621,26.333232 21.6813621,26.3742779 C21.3575555,26.8941928 21.1660079,27.5326847 21.1660079,28.2213439 C21.1660079,28.3353603 21.1705686,28.4493767 21.1796899,28.5633931 C20.3998176,28.8507145 19.3691092,30.1687443 18.6120401,31.9519611 C17.6497416,34.2231681 17.4901186,36.3894801 18.2654302,36.7953785 C18.8035877,37.0735786 19.6381879,36.4396473 20.4226209,35.2721192 C20.7327455,36.5445424 21.4989358,37.6938279 22.5980541,38.6150806 C21.4487686,39.0392216 20.6962603,39.7370021 20.6962603,40.5214351 C20.6962603,41.8166616 22.7303132,42.861052 25.2386744,42.861052 C27.5007601,42.861052 29.37519,42.0127698 29.7217999,40.8954089 L30.2645181,40.8954089 C30.611128,42.0082092 32.4901186,42.861052 34.7522043,42.861052 C37.2605655,42.861052 39.2946184,41.8121009 39.2946184,40.5214351 C39.2946184,39.7370021 38.5421101,39.0392216 37.3928246,38.6150806 C38.4873822,37.6892673 39.2581332,36.5399818 39.5682578,35.2721192 C40.3526908,36.4396473 41.187291,37.0735786 41.7208878,36.7953785 Z" id="Shape"></path>
            </g>
            <g id="邮箱-默认" transform="translate(20.000000, 299.000000)" fill="#E7B773">
                <g id="邮箱-(2)" transform="translate(0.000000, 0.454545)">
                    <path d="M30,0.545454545 L30,0.545454545 C46.5685425,0.545454545 60,13.9769121 60,30.5454545 L60,30.5454545 C60,47.113997 46.5685425,60.5454545 30,60.5454545 L30,60.5454545 L30,60.5454545 C13.4314575,60.5454545 -1.21817935e-14,47.113997 -1.42108547e-14,30.5454545 L0,30.5454545 C-2.02906125e-15,13.9769121 13.4314575,0.545454545 30,0.545454545 L30,0.545454545 Z M30.0004035,31.8721154 L43.9720353,21.0421656 C43.8963518,21.0293407 43.8283341,21 43.7497927,21 L16.2510143,21 C16.1740867,21 16.1056656,21.0289966 16.029982,21.0421656 L30.0004035,31.8721467 L30.0004035,31.8721154 Z M45,22.1630564 C45,22.041064 44.963957,21.9280491 44.9242828,21.8169109 L35.0202293,29.4969242 L44.9392447,38.7268974 C44.9647639,38.6338704 45,38.5442216 45,38.4436561 L45,22.1630564 Z M15.0769276,21.8157848 C15.0384638,21.9276737 15,22.0391247 15,22.1630564 L15,38.4432808 C15,38.5449411 15.0376568,38.6342457 15.0623692,38.7272727 L24.9845786,29.4965488 L15.0769276,21.8157848 Z M33.9312295,30.5454545 L30.3851793,33.4328627 C30.2740002,33.5254113 30.1365271,33.5699635 29.9978469,33.5699635 C29.8603737,33.5699635 29.722085,33.5254113 29.6097316,33.4328308 L26.0668457,30.5469853 L16.3636364,40.0321653 C16.4590911,40.0567216 16.553763,40.0909091 16.6570799,40.0909091 L43.3390054,40.0909091 C43.4442797,40.0909091 43.5389515,40.0571043 43.6363636,40.0321653 L33.9312295,30.5454545 L33.9312295,30.5454545 Z" id="Combined-Shape"></path>
                </g>
            </g>
            <g id="facebook-默认" transform="translate(20.000000, 20.000000)" fill="#7695D8">
                <path d="M30,60 C46.5685425,60 60,46.5685425 60,30 C60,13.4314575 46.5685425,0 30,0 C13.4314575,0 0,13.4314575 0,30 C0,46.5685425 13.4314575,60 30,60 Z M37.472855,16.3636364 L37.472855,21.7227752 L33.9000958,21.7227752 C32.917587,21.7227752 32.1137162,22.526646 32.1137162,23.5091548 L32.1137162,27.081914 L37.472855,27.081914 L37.472855,32.4410528 L32.1137162,32.4410528 L32.1137162,44.94571 L26.7545774,44.94571 L26.7545774,32.4410528 L23.1818182,32.4410528 L23.1818182,27.081914 L26.7545774,27.081914 L26.7545774,22.615965 C26.7545774,19.1325247 29.5234658,16.3636364 33.006906,16.3636364 L37.472855,16.3636364 Z" id="Shape"></path>
            </g>
            <g id="twitter-默认" transform="translate(20.000000, 90.000000)" fill="#79B8E3">
                <path d="M30,60 C46.5685425,60 60,46.5685425 60,30 C60,13.4314575 46.5685425,1.24344979e-13 30,1.24344979e-13 C13.4314575,1.24344979e-13 -1.27897692e-13,13.4314575 -1.27897692e-13,30 C-1.27897692e-13,46.5685425 13.4314575,60 30,60 Z M41.4166008,26.6330656 C41.4166008,26.8609638 41.4166008,27.0888619 41.4166008,27.3737345 C41.4166008,34.6664744 35.8387352,43.0987048 25.7075099,43.0987048 C22.5770751,43.0987048 19.6743083,42.1871123 17.2837945,40.5918255 C17.7391304,40.6488 18.1375494,40.6488 18.5928854,40.6488 C21.2110672,40.6488 23.601581,39.7372075 25.4798419,38.2558698 C23.0324111,38.1988952 21.0403162,36.6036084 20.3003953,34.3816017 C20.6418972,34.4385762 20.9833992,34.4955508 21.3249012,34.4955508 C21.8371542,34.4955508 22.2924901,34.4385762 22.8047431,34.3246272 C20.3003953,33.8118564 18.3652174,31.5898498 18.3652174,28.9120468 L18.3652174,28.8550723 C19.1051383,29.253894 19.9588933,29.5387667 20.8695652,29.5387667 C19.3897233,28.5701997 18.4221344,26.8609638 18.4221344,24.9238298 C18.4221344,23.8982882 18.7067194,22.9297212 19.1620553,22.1320778 C21.8940711,25.493575 25.9920949,27.7155817 30.4885375,27.9434798 C30.3747036,27.5446581 30.3177866,27.0888619 30.3177866,26.6900402 C30.3177866,23.6134156 32.8221344,21.1635108 35.8387352,21.1635108 C37.4324111,21.1635108 38.855336,21.8472051 39.8798419,22.9297212 C41.1320158,22.7018231 42.3272727,22.2460268 43.4086957,21.5623325 C43.0102767,22.8727467 42.0996047,23.9552627 40.9612648,24.6389571 C42.0996047,24.525008 43.1241107,24.1831609 44.1486166,23.7843392 C43.4656126,24.9238298 42.5549407,25.8923968 41.4166008,26.6330656 Z" id="Shape"></path>
            </g>
            <g id="微博-默认" transform="translate(20.000000, 370.000000)" fill="#E06656">
                <path d="M30,60 C13.4314575,60 0,46.5685425 0,30 C0,13.4314575 13.4314575,0 30,0 C46.5685425,0 60,13.4314575 60,30 C60,46.5685425 46.5685425,60 30,60 Z M30.1237152,24.4122056 C30.1237152,23.0677525 29.6585826,20.7930344 25.7046924,22.1374498 C21.756492,23.487555 18.3585074,28.2242651 18.3585074,28.2242651 C16.0043203,31.3783038 16.3163555,33.8119221 16.3163555,33.8119221 C16.9006349,39.1839315 22.6130532,40.6588734 27.0491077,41.0049344 C31.723456,41.3736416 38.0258059,39.3938515 39.9375443,35.3378838 C41.849245,31.2705742 38.3775567,29.659529 37.2713974,29.4383047 C36.1708526,29.2227325 36.7041121,28.6327633 36.7041121,28.6327633 C36.7041121,28.6327633 37.7819354,26.8572035 36.4885399,25.5638457 C34.8944511,23.9641425 31.0030357,25.7680383 31.0030357,25.7680383 C29.5167519,26.227481 29.9138328,25.5580805 30.1237152,24.4122056 Z M38.7746376,26.7833867 C38.7746376,27.2088413 39.1206986,27.5435227 39.5461532,27.5435227 C39.9205502,27.5435227 40.2381622,27.265551 40.2892574,26.9024959 C40.2949096,26.8798121 40.3005994,26.8570905 40.3005994,26.8230647 C40.8735369,21.7006156 36.1028009,22.5855506 36.1028009,22.5855506 C35.6829984,22.5855506 35.3426272,22.9259218 35.3426272,23.3570662 C35.3426272,23.7711788 35.6829984,24.1172022 36.1028009,24.1172022 C39.5290838,23.362756 38.7746376,26.7833867 38.7746376,26.7833867 L38.7746376,26.7833867 Z M38.98452,18.6090141 C37.3394491,18.2232751 35.6432828,18.5523044 35.1724228,18.6430399 C35.1327449,18.648692 35.0986814,18.6827555 35.0646933,18.6884077 C35.0476238,18.6940975 35.0362819,18.7111292 35.0362819,18.7111292 C34.5711494,18.8415804 34.225126,19.2727248 34.225126,19.7889525 C34.225126,20.3959158 34.7243221,20.9008017 35.3425896,20.9008017 C35.3425896,20.9008017 35.9382863,20.8213704 36.3467092,20.6625456 C36.7494422,20.4980309 40.1643831,20.5377466 41.8548972,23.3854399 C42.7852,25.4616552 42.2633577,26.8571282 42.2009582,27.0783902 C42.2009582,27.0783902 41.9797339,27.6173018 41.9797339,28.1505237 C41.9797339,28.7631767 42.4732778,29.1489157 43.0858555,29.1489157 C43.6020456,29.1489157 44.0275002,29.0751743 44.1523368,28.2129232 L44.1636788,28.2129232 C45.984644,22.1431019 41.9343284,19.2954087 38.98452,18.6090141 L38.98452,18.6090141 Z M35.7908034,33.2843524 C35.7908034,36.3759915 32.0354536,39.2803945 27.3951688,39.4902769 C22.7605738,39.7115012 19.0109138,37.3800357 19.0109138,34.2883965 C19.0109138,31.1911053 22.7605738,28.7064294 27.3951688,28.4908949 C32.0354536,28.2753227 35.7908034,30.1870611 35.7908034,33.2843524 L35.7908034,33.2843524 Z M26.4705182,30.5330467 C21.8075495,31.0776482 22.3464235,35.4456134 22.3464235,35.4456134 C22.3464235,35.4456134 22.3010557,36.8297445 23.5944135,37.5331707 C26.3229976,39.0137647 29.1366651,38.1174878 30.5548219,36.2851807 C31.9787062,34.4529112 31.1448665,29.9941351 26.4705182,30.5330467 L26.4705182,30.5330467 Z M27.2306542,34.2487186 C27.0661395,33.9934685 27.128539,33.573666 27.4291946,33.3580938 C27.7752556,33.1028437 28.1326209,33.1765851 28.2857559,33.4318353 C28.4446184,33.6984273 28.3311237,34.0955082 28.04181,34.32246 C27.7468819,34.5436844 27.389479,34.5153107 27.2306542,34.2487186 L27.2306542,34.2487186 Z M25.2962318,36.6652675 C24.4226388,36.7673826 23.7249023,36.2681866 23.7249023,35.5363866 C23.7249023,34.8102765 24.3432075,34.0501405 25.2168383,33.9593673 C26.2152303,33.8629043 26.867599,34.4415316 26.867599,35.1676418 C26.867599,35.8937896 26.1642105,36.5688422 25.2962318,36.6652675 L25.2962318,36.6652675 Z" id="Shape"></path>
            </g>
            <g id="微信-默认-copy" transform="translate(100.000000, 160.000000)" fill="#4FB348">
                <path d="M30,60 C46.5685425,60 60,46.5685425 60,30 C60,13.4314575 46.5685425,0 30,0 C13.4314575,0 0,13.4314575 0,30 C0,46.5685425 13.4314575,60 30,60 Z M21.1329545,21.1759091 C20.2196591,21.1759091 19.30125,21.7793182 19.30125,22.6926136 C19.30125,23.6059091 20.2196591,24.2144318 21.1329545,24.2144318 C22.0452273,24.2144318 22.6506818,23.6048864 22.6506818,22.6926136 C22.6506818,21.7782955 22.0431818,21.1759091 21.1329545,21.1759091 M33.5989773,29.9979545 C32.9935227,29.9979545 32.3839773,30.6075 32.3839773,31.2139773 C32.3839773,31.8296591 32.9945455,32.43 33.5989773,32.43 C34.5184091,32.43 35.1218182,31.8286364 35.1218182,31.2139773 C35.1218182,30.6075 34.5184091,29.9979545 33.5989773,29.9979545 M25.0827273,36.6968182 C23.5660227,36.6968182 22.3438636,36.3859091 20.8230682,36.08625 L16.5715909,38.2176136 L17.7876136,34.5593182 C14.7429545,32.4310227 12.9204545,29.6901136 12.9204545,26.3488636 C12.9204545,20.56125 18.3961364,16.005 25.0827273,16.005 C31.0636364,16.005 36.3020455,19.6469318 37.3534091,24.5457955 C36.9668182,24.5028409 36.5761364,24.4752273 36.1813636,24.4752273 C30.4060227,24.4752273 25.8426136,28.7870455 25.8426136,34.1001136 C25.8426136,34.9827273 25.9817045,35.8346591 26.2189773,36.6477273 C25.8436364,36.6763636 25.4631818,36.6968182 25.0827273,36.6968182 M43.0223864,40.9564773 L43.9367045,43.995 L40.6005682,42.1694318 C39.3845455,42.4731818 38.1613636,42.78 36.9514773,42.78 C31.1659091,42.78 26.6076136,38.8240909 26.6076136,33.9538636 C26.6076136,29.0907955 31.1659091,25.12875 36.9514773,25.12875 C42.4169318,25.12875 47.2820455,29.0918182 47.2820455,33.9538636 C47.2830682,36.6968182 45.4626136,39.1247727 43.0223864,40.9564773 M40.2896591,29.9979545 C39.6872727,29.9979545 39.0807955,30.6075 39.0807955,31.2139773 C39.0807955,31.8296591 39.6872727,32.43 40.2896591,32.43 C41.2009091,32.43 41.8114773,31.8286364 41.8114773,31.2139773 C41.8114773,30.6075 41.1988636,29.9979545 40.2896591,29.9979545 M29.6430682,24.2154545 C30.5594318,24.2154545 31.1659091,23.6059091 31.1659091,22.6936364 C31.1659091,21.7782955 30.5584091,21.1769318 29.6430682,21.1769318 C28.7307955,21.1769318 27.8175,21.7803409 27.8175,22.6936364 C27.8175,23.6059091 28.7318182,24.2154545 29.6430682,24.2154545" id="Shape"></path>
            </g>
            <g id="QQ-默认-Copy" transform="translate(100.000000, 230.000000)" fill="#30A5DD">
                <path d="M30,60 C13.4314575,60 0,46.5685425 0,30 C0,13.4314575 13.4314575,0 30,0 C46.5685425,0 60,13.4314575 60,30 C60,46.5685425 46.5685425,60 30,60 Z M41.7208878,36.7953785 L41.7208878,36.7953785 C42.4961995,36.3894801 42.3456978,34.2186075 41.3742779,31.9519611 C40.6172089,30.1687443 39.5865005,28.8552752 38.8020675,28.5633931 C38.8157495,28.4493767 38.8203101,28.3353603 38.8203101,28.2213439 C38.8203101,27.5326847 38.6287625,26.8941928 38.3003953,26.3742779 C38.3049559,26.333232 38.3049559,26.2921861 38.3049559,26.2511402 C38.3049559,25.9364548 38.2274247,25.6354515 38.0997264,25.3800547 C37.8990575,20.7418668 34.8799027,17.0568562 29.9908787,17.0568562 C25.1018547,17.0568562 22.0781393,20.7418668 21.882031,25.3800547 C21.749772,25.6354515 21.6768015,25.9364548 21.6768015,26.2511402 C21.6768015,26.2921861 21.6813621,26.333232 21.6813621,26.3742779 C21.3575555,26.8941928 21.1660079,27.5326847 21.1660079,28.2213439 C21.1660079,28.3353603 21.1705686,28.4493767 21.1796899,28.5633931 C20.3998176,28.8507145 19.3691092,30.1687443 18.6120401,31.9519611 C17.6497416,34.2231681 17.4901186,36.3894801 18.2654302,36.7953785 C18.8035877,37.0735786 19.6381879,36.4396473 20.4226209,35.2721192 C20.7327455,36.5445424 21.4989358,37.6938279 22.5980541,38.6150806 C21.4487686,39.0392216 20.6962603,39.7370021 20.6962603,40.5214351 C20.6962603,41.8166616 22.7303132,42.861052 25.2386744,42.861052 C27.5007601,42.861052 29.37519,42.0127698 29.7217999,40.8954089 L30.2645181,40.8954089 C30.611128,42.0082092 32.4901186,42.861052 34.7522043,42.861052 C37.2605655,42.861052 39.2946184,41.8121009 39.2946184,40.5214351 C39.2946184,39.7370021 38.5421101,39.0392216 37.3928246,38.6150806 C38.4873822,37.6892673 39.2581332,36.5399818 39.5682578,35.2721192 C40.3526908,36.4396473 41.187291,37.0735786 41.7208878,36.7953785 Z" id="Shape"></path>
            </g>
            <g id="邮箱-默认-copy" transform="translate(100.000000, 299.000000)" fill="#F0AD4E">
                <g id="邮箱-(2)" transform="translate(0.000000, 0.454545)">
                    <path d="M30,0.545454545 L30,0.545454545 C46.5685425,0.545454545 60,13.9769121 60,30.5454545 L60,30.5454545 C60,47.113997 46.5685425,60.5454545 30,60.5454545 L30,60.5454545 L30,60.5454545 C13.4314575,60.5454545 -1.21817935e-14,47.113997 -1.42108547e-14,30.5454545 L0,30.5454545 C-2.02906125e-15,13.9769121 13.4314575,0.545454545 30,0.545454545 L30,0.545454545 Z M30.0004035,31.8721154 L43.9720353,21.0421656 C43.8963518,21.0293407 43.8283341,21 43.7497927,21 L16.2510143,21 C16.1740867,21 16.1056656,21.0289966 16.029982,21.0421656 L30.0004035,31.8721467 L30.0004035,31.8721154 Z M45,22.1630564 C45,22.041064 44.963957,21.9280491 44.9242828,21.8169109 L35.0202293,29.4969242 L44.9392447,38.7268974 C44.9647639,38.6338704 45,38.5442216 45,38.4436561 L45,22.1630564 Z M15.0769276,21.8157848 C15.0384638,21.9276737 15,22.0391247 15,22.1630564 L15,38.4432808 C15,38.5449411 15.0376568,38.6342457 15.0623692,38.7272727 L24.9845786,29.4965488 L15.0769276,21.8157848 Z M33.9312295,30.5454545 L30.3851793,33.4328627 C30.2740002,33.5254113 30.1365271,33.5699635 29.9978469,33.5699635 C29.8603737,33.5699635 29.722085,33.5254113 29.6097316,33.4328308 L26.0668457,30.5469853 L16.3636364,40.0321653 C16.4590911,40.0567216 16.553763,40.0909091 16.6570799,40.0909091 L43.3390054,40.0909091 C43.4442797,40.0909091 43.5389515,40.0571043 43.6363636,40.0321653 L33.9312295,30.5454545 L33.9312295,30.5454545 Z" id="Combined-Shape"></path>
                </g>
            </g>
            <g id="facebook-默认-copy" transform="translate(100.000000, 20.000000)" fill="#5D82D1">
                <path d="M30,60 C46.5685425,60 60,46.5685425 60,30 C60,13.4314575 46.5685425,0 30,0 C13.4314575,0 0,13.4314575 0,30 C0,46.5685425 13.4314575,60 30,60 Z M37.472855,16.3636364 L37.472855,21.7227752 L33.9000958,21.7227752 C32.917587,21.7227752 32.1137162,22.526646 32.1137162,23.5091548 L32.1137162,27.081914 L37.472855,27.081914 L37.472855,32.4410528 L32.1137162,32.4410528 L32.1137162,44.94571 L26.7545774,44.94571 L26.7545774,32.4410528 L23.1818182,32.4410528 L23.1818182,27.081914 L26.7545774,27.081914 L26.7545774,22.615965 C26.7545774,19.1325247 29.5234658,16.3636364 33.006906,16.3636364 L37.472855,16.3636364 Z" id="Shape"></path>
            </g>
            <g id="twitter-默认-copy" transform="translate(100.000000, 90.000000)" fill="#5EAADE">
                <path d="M30,60 C46.5685425,60 60,46.5685425 60,30 C60,13.4314575 46.5685425,1.24344979e-13 30,1.24344979e-13 C13.4314575,1.24344979e-13 -1.27897692e-13,13.4314575 -1.27897692e-13,30 C-1.27897692e-13,46.5685425 13.4314575,60 30,60 Z M41.4166008,26.6330656 C41.4166008,26.8609638 41.4166008,27.0888619 41.4166008,27.3737345 C41.4166008,34.6664744 35.8387352,43.0987048 25.7075099,43.0987048 C22.5770751,43.0987048 19.6743083,42.1871123 17.2837945,40.5918255 C17.7391304,40.6488 18.1375494,40.6488 18.5928854,40.6488 C21.2110672,40.6488 23.601581,39.7372075 25.4798419,38.2558698 C23.0324111,38.1988952 21.0403162,36.6036084 20.3003953,34.3816017 C20.6418972,34.4385762 20.9833992,34.4955508 21.3249012,34.4955508 C21.8371542,34.4955508 22.2924901,34.4385762 22.8047431,34.3246272 C20.3003953,33.8118564 18.3652174,31.5898498 18.3652174,28.9120468 L18.3652174,28.8550723 C19.1051383,29.253894 19.9588933,29.5387667 20.8695652,29.5387667 C19.3897233,28.5701997 18.4221344,26.8609638 18.4221344,24.9238298 C18.4221344,23.8982882 18.7067194,22.9297212 19.1620553,22.1320778 C21.8940711,25.493575 25.9920949,27.7155817 30.4885375,27.9434798 C30.3747036,27.5446581 30.3177866,27.0888619 30.3177866,26.6900402 C30.3177866,23.6134156 32.8221344,21.1635108 35.8387352,21.1635108 C37.4324111,21.1635108 38.855336,21.8472051 39.8798419,22.9297212 C41.1320158,22.7018231 42.3272727,22.2460268 43.4086957,21.5623325 C43.0102767,22.8727467 42.0996047,23.9552627 40.9612648,24.6389571 C42.0996047,24.525008 43.1241107,24.1831609 44.1486166,23.7843392 C43.4656126,24.9238298 42.5549407,25.8923968 41.4166008,26.6330656 Z" id="Shape"></path>
            </g>
            <g id="微博-默认-copy" transform="translate(100.000000, 370.000000)" fill="#D81E06">
                <path d="M30,60 C13.4314575,60 0,46.5685425 0,30 C0,13.4314575 13.4314575,0 30,0 C46.5685425,0 60,13.4314575 60,30 C60,46.5685425 46.5685425,60 30,60 Z M30.1237152,24.4122056 C30.1237152,23.0677525 29.6585826,20.7930344 25.7046924,22.1374498 C21.756492,23.487555 18.3585074,28.2242651 18.3585074,28.2242651 C16.0043203,31.3783038 16.3163555,33.8119221 16.3163555,33.8119221 C16.9006349,39.1839315 22.6130532,40.6588734 27.0491077,41.0049344 C31.723456,41.3736416 38.0258059,39.3938515 39.9375443,35.3378838 C41.849245,31.2705742 38.3775567,29.659529 37.2713974,29.4383047 C36.1708526,29.2227325 36.7041121,28.6327633 36.7041121,28.6327633 C36.7041121,28.6327633 37.7819354,26.8572035 36.4885399,25.5638457 C34.8944511,23.9641425 31.0030357,25.7680383 31.0030357,25.7680383 C29.5167519,26.227481 29.9138328,25.5580805 30.1237152,24.4122056 Z M38.7746376,26.7833867 C38.7746376,27.2088413 39.1206986,27.5435227 39.5461532,27.5435227 C39.9205502,27.5435227 40.2381622,27.265551 40.2892574,26.9024959 C40.2949096,26.8798121 40.3005994,26.8570905 40.3005994,26.8230647 C40.8735369,21.7006156 36.1028009,22.5855506 36.1028009,22.5855506 C35.6829984,22.5855506 35.3426272,22.9259218 35.3426272,23.3570662 C35.3426272,23.7711788 35.6829984,24.1172022 36.1028009,24.1172022 C39.5290838,23.362756 38.7746376,26.7833867 38.7746376,26.7833867 L38.7746376,26.7833867 Z M38.98452,18.6090141 C37.3394491,18.2232751 35.6432828,18.5523044 35.1724228,18.6430399 C35.1327449,18.648692 35.0986814,18.6827555 35.0646933,18.6884077 C35.0476238,18.6940975 35.0362819,18.7111292 35.0362819,18.7111292 C34.5711494,18.8415804 34.225126,19.2727248 34.225126,19.7889525 C34.225126,20.3959158 34.7243221,20.9008017 35.3425896,20.9008017 C35.3425896,20.9008017 35.9382863,20.8213704 36.3467092,20.6625456 C36.7494422,20.4980309 40.1643831,20.5377466 41.8548972,23.3854399 C42.7852,25.4616552 42.2633577,26.8571282 42.2009582,27.0783902 C42.2009582,27.0783902 41.9797339,27.6173018 41.9797339,28.1505237 C41.9797339,28.7631767 42.4732778,29.1489157 43.0858555,29.1489157 C43.6020456,29.1489157 44.0275002,29.0751743 44.1523368,28.2129232 L44.1636788,28.2129232 C45.984644,22.1431019 41.9343284,19.2954087 38.98452,18.6090141 L38.98452,18.6090141 Z M35.7908034,33.2843524 C35.7908034,36.3759915 32.0354536,39.2803945 27.3951688,39.4902769 C22.7605738,39.7115012 19.0109138,37.3800357 19.0109138,34.2883965 C19.0109138,31.1911053 22.7605738,28.7064294 27.3951688,28.4908949 C32.0354536,28.2753227 35.7908034,30.1870611 35.7908034,33.2843524 L35.7908034,33.2843524 Z M26.4705182,30.5330467 C21.8075495,31.0776482 22.3464235,35.4456134 22.3464235,35.4456134 C22.3464235,35.4456134 22.3010557,36.8297445 23.5944135,37.5331707 C26.3229976,39.0137647 29.1366651,38.1174878 30.5548219,36.2851807 C31.9787062,34.4529112 31.1448665,29.9941351 26.4705182,30.5330467 L26.4705182,30.5330467 Z M27.2306542,34.2487186 C27.0661395,33.9934685 27.128539,33.573666 27.4291946,33.3580938 C27.7752556,33.1028437 28.1326209,33.1765851 28.2857559,33.4318353 C28.4446184,33.6984273 28.3311237,34.0955082 28.04181,34.32246 C27.7468819,34.5436844 27.389479,34.5153107 27.2306542,34.2487186 L27.2306542,34.2487186 Z M25.2962318,36.6652675 C24.4226388,36.7673826 23.7249023,36.2681866 23.7249023,35.5363866 C23.7249023,34.8102765 24.3432075,34.0501405 25.2168383,33.9593673 C26.2152303,33.8629043 26.867599,34.4415316 26.867599,35.1676418 C26.867599,35.8937896 26.1642105,36.5688422 25.2962318,36.6652675 L25.2962318,36.6652675 Z" id="Shape"></path>
            </g>
        </g>
    </g>
</svg>