<?xml version="1.0" encoding="UTF-8"?>
<svg width="53px" height="53px" viewBox="0 0 53 53" version="1.1" xmlns="http://www.w3.org/2000/svg" xmlns:xlink="http://www.w3.org/1999/xlink">
    <!-- Generator: Sketch 46.2 (44496) - http://www.bohemiancoding.com/sketch -->
    <title>投票</title>
    <desc>Created with Sketch.</desc>
    <defs></defs>
    <g id="移动端适配" stroke="none" stroke-width="1" fill="none" fill-rule="evenodd">
        <g id="投票小广告适配" transform="translate(-90.000000, -1133.000000)">
            <g id="Group-8" transform="translate(0.000000, 1097.000000)">
                <g id="投票" transform="translate(90.000000, 36.000000)">
                    <path d="M35.4823846,35.9999346 L17.5176154,35.9999346 C16.1389875,36.0098586 15.0126492,34.8894168 15,33.4954993 L15,20.6155464 C15,19.2345292 16.1287692,18.1111111 17.5176154,18.1111111 L17.7281538,18.1111111 C18.2167134,18.1111111 18.6127692,18.5115661 18.6127692,19.0055523 C18.6127692,19.4995385 18.2167134,19.8999935 17.7281538,19.8999935 L17.5176154,19.8999935 C17.1156587,19.8889703 16.7807947,20.2091438 16.7692308,20.6155464 L16.7692308,33.4954993 C16.7692308,33.8890534 17.1036154,34.2110522 17.5176154,34.2110522 L35.4823846,34.2110522 C35.8963846,34.2110522 36.2307692,33.8890534 36.2307692,33.4954993 L36.2307692,20.6155464 C36.2307692,20.2202034 35.8963846,19.8999935 35.4823846,19.8999935 L35.2346923,19.8999935 C34.7461327,19.8999935 34.3500769,19.4995385 34.3500769,19.0055523 C34.3500769,18.5115661 34.7461327,18.1111111 35.2346923,18.1111111 L35.4823846,18.1111111 C36.8694616,18.1111111 38,19.2345292 38,20.6155464 L38,33.4954993 C38,34.8765165 36.8694615,35.9999346 35.4823846,35.9999346 L35.4823846,35.9999346 Z" id="Shape" fill="#FFFFFF" fill-rule="nonzero"></path>
                    <path d="M20.5036907,18 C19.8742894,19.0198765 20.0017015,20.3742139 20.885927,21.258678 L24.6286423,25.0001783 C25.1241051,25.4979342 25.7975719,25.7777778 26.5,25.7777778 C27.2024281,25.7777778 27.8758949,25.4979342 28.3713577,25.0001783 L32.114073,21.258678 C32.9982985,20.3742139 33.1257106,19.0198765 32.4963093,18 L36,18 C37.1045695,18 38,18.8954305 38,20 L38,34 C38,35.1045695 37.1045695,36 36,36 L17,36 C15.8954305,36 15,35.1045695 15,34 L15,20 L15,20 C15,18.8954305 15.8954305,18 17,18 L17,18 L20.5036907,18 Z M33.6934156,27.4814815 L19.3065844,27.4814815 C18.8099826,27.4814815 18.4074074,27.8628685 18.4074074,28.3333333 C18.4074074,28.8037981 18.8099826,29.1851852 19.3065844,29.1851852 L33.6934156,29.1851852 C34.1900174,29.1851852 34.5925926,28.8037981 34.5925926,28.3333333 C34.5925926,27.8628685 34.1900174,27.4814815 33.6934156,27.4814815 Z" id="Combined-Shape" fill="#FFFFFF"></path>
                    <path d="M26.5,14.8251227 C26.6278,14.8251227 26.8706201,14.8561498 27.0805773,15.0660389 L30.8232926,18.8075391 C31.1436545,19.1281958 31.1436545,19.6476601 30.8232926,19.9683167 L27.0805773,23.709817 C26.9272535,23.8649735 26.7181683,23.9522996 26.5,23.9522996 C26.2818317,23.9522996 26.0727465,23.8649735 25.9194227,23.709817 L22.1767074,19.9683167 C21.8563455,19.6476601 21.8563455,19.1281958 22.1767074,18.8075391 L25.9194227,15.0660389 C26.0730055,14.9114573 26.2820585,14.8247087 26.5,14.8251227 L26.5,14.8251227 Z" id="Shape" fill="#FFFFFF" fill-rule="nonzero"></path>
                    <circle id="Oval-12" stroke="#FFFFFF" cx="26.5" cy="26.5" r="25.5"></circle>
                    <path d="M26.5,50 C13.5213084,50 3,39.4786916 3,26.5 C3,13.5213084 13.5213084,3 26.5,3 C39.4786916,3 50,13.5213084 50,26.5 C50,39.4786916 39.4786916,50 26.5,50 Z M26.5,5 L7.88045382,15.75 L7.88045382,37.25 L26.5,48 L45.1195462,37.25 L45.1195462,15.75 L26.5,5 Z" id="Combined-Shape" fill="#FFFFFF"></path>
                </g>
            </g>
        </g>
    </g>
</svg>