<?xml version="1.0" standalone="no"?><!DOCTYPE svg PUBLIC "-//W3C//DTD SVG 1.1//EN" "http://www.w3.org/Graphics/SVG/1.1/DTD/svg11.dtd"><svg t="1490063363918" class="icon" style="" viewBox="0 0 1198 1024" version="1.1" xmlns="http://www.w3.org/2000/svg" p-id="1593" xmlns:xlink="http://www.w3.org/1999/xlink" width="233.984375" height="200"><defs><style type="text/css"></style></defs><path d="M456.882562 478.747331L727.459075 10.021352c1.822064-3.188612 0.911032-7.288256-2.733096-9.11032-0.455516-0.455516-1.822064-0.911032-3.188612-0.911032H323.41637c-23.686833 0-45.551601 12.754448-57.395018 32.797153L9.11032 478.747331c-11.843416 20.498221-11.843416 45.551601 0 66.049822l257.366548 445.950178c11.843416 20.498221 33.252669 32.797153 56.939502 32.797153h398.576513c3.644128 0 6.83274-3.188612 6.83274-6.83274 0-1.366548-0.455516-2.27758-0.911032-3.188612l-270.576513-468.725979c-12.298932-20.498221-12.298932-45.551601-0.455516-66.049822z" fill="#FFFFFF" p-id="1594"></path><path d="M1196.185053 501.523132c-4.55516-11.3879-15.487544-19.131673-27.786476-19.131673H570.761566c-9.565836 0-17.765125 6.377224-20.042705 15.487545-3.644128 14.576512-1.366548 30.519573 6.377224 43.729537l89.281139 154.419929c0.455516 0.911032 0.911032 1.366548 1.822064 1.822064h110.234876c15.94306-0.455516 29.153025 11.843416 29.608541 27.786477v1.366548c0 10.476868-2.733096 20.498221-7.743773 29.608541l-49.195729 85.181494 98.391459 170.818506c4.099644 6.83274 11.3879 10.932384 19.131673 10.932384h25.964412c23.231317 0 44.185053-12.298932 56.02847-32.341637l259.644128-450.049822c5.010676-9.11032 7.743772-19.131673 7.743772-29.608541-0.455516-3.188612-0.911032-6.83274-1.822064-10.021352zM1091.871886 312.02847L931.074733 32.797153C919.231317 12.754448 897.366548 0 873.679715 0c-23.686833 0-45.096085 12.754448-56.939501 32.797153L655.94306 312.02847c-1.822064 3.188612-0.911032 7.288256 2.733097 9.11032 0.911032 0.455516 2.27758 0.911032 3.188612 0.911032h424.540925c3.644128 0 6.83274-3.188612 6.377224-6.83274 0-0.911032 0-2.27758-0.911032-3.188612z" fill="#9BBB63" p-id="1595"></path></svg>