<?xml version="1.0" standalone="no"?><!DOCTYPE svg PUBLIC "-//W3C//DTD SVG 1.1//EN" "http://www.w3.org/Graphics/SVG/1.1/DTD/svg11.dtd"><svg t="1557194089983" class="icon" style="" viewBox="0 0 1024 1024" version="1.1" xmlns="http://www.w3.org/2000/svg" p-id="12399" xmlns:xlink="http://www.w3.org/1999/xlink" width="0.8rem" height="0.8rem"><defs><style type="text/css"></style></defs><path d="M1004.24512 897.536l-205.12 121.024a40.32 40.32 0 0 1-18.56 4.608 33.92 33.92 0 0 1-17.28-4.608L558.16512 897.536a33.344 33.344 0 0 1-17.92-30.848v-10.24l-11.2 6.848a33.92 33.92 0 0 1-17.408 4.544 40.256 40.256 0 0 1-18.432-4.544l-11.264-6.848v10.24a33.344 33.344 0 0 1-17.92 30.848l-205.056 121.024a39.168 39.168 0 0 1-17.92 4.608 39.168 39.168 0 0 1-17.92-4.608L18.00512 897.536a33.344 33.344 0 0 1-17.92-30.848V624.64c0-13.696 5.952-24 17.92-30.848l205.12-121.024a39.168 39.168 0 0 1 17.92-4.608c5.952 0 11.904 1.536 17.92 4.608l11.2 6.848v-10.24c0-13.76 5.952-24.064 17.92-30.912l6.72-4.544-6.72-4.544a33.344 33.344 0 0 1-17.92-30.848V156.416c0-13.696 5.952-23.936 17.92-30.784L493.20512 4.48A39.168 39.168 0 0 1 511.12512 0c5.952 0 11.904 1.536 17.92 4.544l205.056 121.088c11.968 6.848 17.92 17.088 17.92 30.784v242.112a33.344 33.344 0 0 1-17.92 30.848l-6.72 4.544 6.72 4.544c11.968 6.848 17.92 17.152 17.92 30.848v10.24l11.264-6.784a33.92 33.92 0 0 1 17.28-4.608c6.4 0 12.544 1.536 18.56 4.608l205.056 121.024c11.968 6.848 17.92 17.152 17.92 30.848v242.048a33.344 33.344 0 0 1-17.92 30.848zM240.98112 557.248L80.72512 650.88v189.568l160.256 93.632 160.256-93.632v-32L288.08512 742.208a33.344 33.344 0 0 1-17.92-30.784V574.4l-29.12-17.152z m160.256 190.72V650.88l-79.616-45.696v96l79.616 46.72z m270.08-376.832V182.72L511.12512 89.088 350.80512 182.72v188.416l25.728 14.848 116.608-68.48a39.168 39.168 0 0 1 17.92-4.608c5.952 0 11.904 1.536 17.92 4.544l116.48 68.48 25.856-14.784z m-243.2 45.632l82.944 49.152 82.88-49.152-82.88-49.088-82.944 49.088z m272.32 61.696l-25.792-14.848L529.04512 550.4a39.232 39.232 0 0 1-17.92 4.544 39.168 39.168 0 0 1-17.92-4.544L347.47712 463.616l-25.792 14.848v32L464.08512 593.728c11.968 6.848 17.92 17.152 17.92 30.848v171.264l29.184 17.152 29.12-17.152V624.64c0-13.696 5.952-24 17.92-30.848l142.336-84.48v-30.848z m0 126.72L620.88512 650.88v98.176l79.552-46.784V605.184z m240.96 45.696l-160.256-93.632-29.184 17.152v136.96a33.344 33.344 0 0 1-17.92 30.848l-113.152 66.24v32l160.256 93.632 160.256-93.632V650.88z" fill="#dbdbdb" p-id="12400"></path></svg>