<?xml version="1.0" standalone="no"?>
<!DOCTYPE svg PUBLIC "-//W3C//DTD SVG 1.1//EN" "http://www.w3.org/Graphics/SVG/1.1/DTD/svg11.dtd" >
<!--
2013-9-30: Created.
-->
<svg>
<metadata>
Created by iconfont
</metadata>
<defs>

<font id="iconfont" horiz-adv-x="1024" >
  <font-face
    font-family="iconfont"
    font-weight="500"
    font-stretch="normal"
    units-per-em="1024"
    ascent="896"
    descent="-128"
  />
    <missing-glyph />
    
    <glyph glyph-name="msnui-time" unicode="&#59166;" d="M512 830.637c-246.283 0-446.637-200.354-446.637-446.637s200.354-446.637 446.637-446.637c246.283 0 446.637 200.353 446.637 446.637-0.001 246.283-200.354 446.637-446.637 446.637zM512 11.803c-205.23 0-372.197 166.969-372.197 372.197 0 205.23 166.968 372.197 372.197 372.197 205.229 0 372.197-166.968 372.197-372.197-0-205.229-166.968-372.197-372.197-372.197zM684.997 274.537l-154.388 89.291v243.491c0 20.545-16.676 37.22-37.22 37.22-20.545 0-37.22-16.675-37.22-37.22v-260.539c0-13.808 17.158-25.384 28.324-31.785 3.090-4.652 11.576-8.86 16.749-11.838l153.531-93.049c17.792-10.273 37.072-4.169 47.344 13.623 10.274 17.793 0.708 40.533-17.121 50.806z"  horiz-adv-x="1024" />

    
    <glyph glyph-name="iconfontadd" unicode="&#58906;" d="M863.328 413.44l-317.344 1.12L545.984 733.184c0 17.664-14.336 32-32 32s-32-14.336-32-32l0-318.4L159.616 415.936c-0.032 0-0.064 0-0.096 0-17.632 0-31.936-14.24-32-31.904C127.424 366.368 141.728 352 159.392 351.936l322.592-1.152 0-319.168c0-17.696 14.336-32 32-32s32 14.304 32 32l0 318.944 317.088-1.12c0.064 0 0.096 0 0.128 0 17.632 0 31.936 14.24 32 31.904C895.264 399.008 880.96 413.376 863.328 413.44z"  horiz-adv-x="1024" />

    
    <glyph glyph-name="yonghuzhongxin_f" unicode="&#58993;" d="M511.449 835.623c-247.003 0-447.237-200.215-447.237-447.237 0-247.02 200.234-447.237 447.237-447.237 247.022 0 447.237 200.217 447.237 447.237 0 247.022-200.215 447.237-447.237 447.237z m315.209-709.034c-40.872 17.07-137.376 50.555-197.084 68.189-5.113 1.601-5.896 1.856-5.896 23.057 0 17.506 7.188 35.14 14.213 50.063 7.624 16.214 16.65 43.475 19.872 67.933 9.081 10.519 21.419 31.264 29.335 70.809 6.969 34.849 3.712 47.534-0.893 59.436-0.49 1.254-1.001 2.491-1.345 3.731-1.748 8.17 0.637 50.627 6.606 83.564 4.13 22.602-1.038 70.663-32.156 110.427-19.654 25.131-57.271 55.977-125.949 60.273l-37.67-0.037c-67.514-4.258-105.13-35.104-124.785-60.235-31.118-39.763-36.286-87.824-32.173-110.408 5.986-32.956 8.371-75.413 6.66-83.421-0.382-1.401-0.893-2.639-1.383-3.893-4.605-11.902-7.862-24.587-0.893-59.436 7.916-39.545 20.254-60.289 29.335-70.809 3.222-24.458 12.249-51.719 19.872-67.933 5.587-11.865 8.19-28.006 8.19-50.827 0-21.201-0.783-21.456-5.568-22.967-61.765-18.234-160.072-53.756-196.723-69.808-60.289 71.392-96.741 163.547-96.741 264.092 0 226.058 183.911 409.967 409.967 409.967 226.058 0 409.967-183.909 409.967-409.967 0-99.455-35.631-190.736-94.758-261.8z"  horiz-adv-x="1024" />

    
    <glyph glyph-name="weituoguanli-moren" unicode="&#59001;" d="M216.64 455.168h549.12c12.928 0 21.76-8.704 21.76-21.44 0-12.672-8.832-21.44-21.76-21.44h-549.12c-12.8 0-21.696 8.768-21.696 21.44 0 12.736 8.832 21.44 21.696 21.44zM156.416-22.464h499.2c11.392 0 21.76-10.88 21.76-23.296 0-12.736-8.896-21.44-21.76-21.44h-499.2c-53.504 0-95.616 41.6-95.616 94.464V740.736C60.8 793.6 102.912 835.2 156.416 835.2h647.168c53.504 0 95.616-41.6 95.616-94.464v-401.472c0-12.672-8.832-21.44-21.696-21.44-12.8 0-21.696 8.768-21.696 21.44l3.2 179.328h-184.896c-49.536 0-91.776 37.568-92.416 82.112h-366.08c-12.8 0-21.696 8.704-21.696 21.44s8.832 21.44 21.696 21.44l362.88-3.2 3.2 151.936H156.416a50.944 50.944 0 0 1-52.224-51.584v-711.68c0-29.248 22.592-51.52 52.224-51.52z m517.76 583.936l156.736-5.504-209.024 214.016v-156.992c0-29.248 22.592-51.52 52.224-51.52z m181.632 179.264a50.944 50.944 0 0 1-52.224 51.584l-156.8 5.44 209.024-213.952V740.736zM956.672 144.384c8.64-8.512 8.64-21.248 0-31.872l-160.896-158.592a23.296 23.296 0 0 0-15.168-6.4 23.296 23.296 0 0 0-15.232 6.4l-79.104 79.296-0.832 0.128a36.608 36.608 0 0 0-8.064-1.728 71.616 71.616 0 0 0-7.68-0.192H347.84c-13.824 0-26.496 4.224-42.112 13.056a57.6 57.6 0 0 0-17.472 13.376l-146.048 144a75.648 75.648 0 0 0-23.168 55.04c0 19.84 8.512 37.12 24.96 53.376 15.296 14.976 34.56 22.784 55.936 22.784 21.376 0 40.64-7.808 55.872-22.784l123.52-123.008 119.68-6.4a76.288 76.288 0 0 0-63.744 76.096c0 43.072 35.968 77.888 78.976 77.888h197.888c46.272 0 89.408-23.04 113.152-61.056l131.328-129.408z m-176-143.616l132.672 126.336-121.152 120.704 0.128-0.512c-1.28 1.216-1.92 2.368-1.472 2.496a91.648 91.648 0 0 1-78.72 44.032h-199.68a34.432 34.432 0 0 1-35.584-35.072c0-19.456 16.384-35.072 35.648-35.072h55.424c7.872 0 16.192-5.12 16-11.264a24.32 24.32 0 0 0-2.24-21.12l-24.448-35.072a25.6 25.6 0 0 0-17.024-8.192H366.4a20.032 20.032 0 0 0-15.168 6.4L219.776 283.968c-11.712 13.184-35.456 13.184-48.96-0.128a33.6 33.6 0 0 1-10.176-25.088c0-10.048 3.392-18.368 10.176-25.024l146.048-144c0.64-0.64 1.728-1.344 3.264-2.24l5.12-2.624 1.088-1.664 1.28-0.448a32.64 32.64 0 0 1 20.288-6.656h321.728a10.24 10.24 0 0 1 3.648 0.704 15.808 15.808 0 0 0 5.632 1.088h16.64c4.608 0 9.088-2.176 13.312-6.4l71.744-70.72z m-454.4 82.432l0.832-1.28c0 0.512-0.384 1.024-0.768 1.28z"  horiz-adv-x="1024" />

    
    <glyph glyph-name="gonggao-yiru" unicode="&#59002;" d="M907.641515 94.276267l-75.776 132.164266V502.715733c0 57.617067-21.162667 118.3744-59.392 171.008A340.650667 340.650667 0 0 1 617.166848 792.234667a472.746667 472.746667 0 0 1-14.062933 4.232533v9.216C603.172181 855.4496 562.280448 896 512.036181 896c-50.312533 0-91.204267-40.5504-91.204266-90.385067v-8.533333a396.9024 396.9024 0 0 1-12.765867-3.8912A339.968 339.968 0 0 1 251.257515 675.293867c-39.048533-53.0432-60.552533-114.346667-60.552534-172.578134v-276.2752L109.740715 84.923733a54.749867 54.749867 0 0 1 47.991466-82.1248h200.362667A155.579733 155.579733 0 0 1 512.036181-128c77.824 0 142.404267 56.866133 153.873067 130.798933h200.362667c30.5152 0 55.364267 24.576 55.364266 54.8864a53.930667 53.930667 0 0 1-13.994666 36.590934zM512.036181 848.827733c23.210667 0 42.325333-18.2272 43.485867-41.028266a365.090133 365.090133 0 0 1-14.7456 2.4576 24.302933 24.302933 0 0 1-6.280533 0.068266 135.099733 135.099733 0 0 1-23.210667 2.321067c-7.645867 0-14.5408-1.024-20.616533-1.911467l-2.2528-0.341333a23.9616 23.9616 0 0 1-6.485334 0 345.429333 345.429333 0 0 1-13.380266-2.184533A43.485867 43.485867 0 0 0 512.036181 848.896zM512.036181-80.896a108.1344 108.1344 0 0 0-105.472 83.626667h210.944c-10.922667-47.786667-54.0672-83.626667-105.472-83.626667z m354.235734 130.8672H157.732181a7.714133 7.714133 0 0 0-6.621866 3.6864 7.7824 7.7824 0 0 0-0.068267 7.7824l84.241067 147.0464a23.483733 23.483733 0 0 1 3.072 11.605333V502.784c0 102.126933 79.735467 207.803733 185.480533 245.9648 3.413333 1.092267 30.788267 9.557333 58.368 13.994667a23.825067 23.825067 0 0 1 5.051733 0c3.6864 0.4096 7.168 0.887467 10.513067 1.365333 5.051733 0.750933 9.4208 1.4336 13.5168 1.4336s8.465067-0.682667 13.585067-1.365333c3.2768-0.546133 6.7584-1.092267 10.4448-1.365334a23.893333 23.893333 0 0 1 4.5056-0.068266c28.672-4.778667 57.890133-13.858133 62.2592-15.223467 103.901867-39.048533 182.203733-144.1792 182.203733-244.736v-282.487467c0-4.096 1.024-8.192 3.072-11.6736l80.349867-140.151466a23.415467 23.415467 0 0 1 4.096-5.3248c1.501867-1.365333 2.2528-3.2768 2.2528-5.393067 0-4.3008-3.413333-7.645867-7.7824-7.645867z"  horiz-adv-x="1024" />

    
    <glyph glyph-name="gonggao-moren" unicode="&#59003;" d="M907.641515 94.276267l-75.776 132.164266V502.715733c0 57.617067-21.162667 118.3744-59.392 171.008A340.650667 340.650667 0 0 1 617.166848 792.234667a472.746667 472.746667 0 0 1-14.062933 4.232533v9.216C603.172181 855.4496 562.280448 896 512.036181 896c-50.312533 0-91.204267-40.5504-91.204266-90.385067v-8.533333a396.9024 396.9024 0 0 1-12.765867-3.8912A339.968 339.968 0 0 1 251.257515 675.293867c-39.048533-53.0432-60.552533-114.346667-60.552534-172.578134v-276.2752L109.740715 84.923733a54.749867 54.749867 0 0 1 47.991466-82.1248h200.362667A155.579733 155.579733 0 0 1 512.036181-128c77.824 0 142.404267 56.866133 153.873067 130.798933h200.362667c30.5152 0 55.364267 24.576 55.364266 54.8864a53.930667 53.930667 0 0 1-13.994666 36.590934zM512.036181 848.827733c23.210667 0 42.325333-18.2272 43.485867-41.028266a365.090133 365.090133 0 0 1-14.7456 2.4576 24.302933 24.302933 0 0 1-6.280533 0.068266 135.099733 135.099733 0 0 1-23.210667 2.321067c-7.645867 0-14.5408-1.024-20.616533-1.911467l-2.2528-0.341333a23.9616 23.9616 0 0 1-6.485334 0 345.429333 345.429333 0 0 1-13.380266-2.184533A43.485867 43.485867 0 0 0 512.036181 848.896zM512.036181-80.896a108.1344 108.1344 0 0 0-105.472 83.626667h210.944c-10.922667-47.786667-54.0672-83.626667-105.472-83.626667z m354.235734 130.8672H157.732181a7.714133 7.714133 0 0 0-6.621866 3.6864 7.7824 7.7824 0 0 0-0.068267 7.7824l84.241067 147.0464a23.483733 23.483733 0 0 1 3.072 11.605333V502.784c0 102.126933 79.735467 207.803733 185.480533 245.9648 3.413333 1.092267 30.788267 9.557333 58.368 13.994667a23.825067 23.825067 0 0 1 5.051733 0c3.6864 0.4096 7.168 0.887467 10.513067 1.365333 5.051733 0.750933 9.4208 1.4336 13.5168 1.4336s8.465067-0.682667 13.585067-1.365333c3.2768-0.546133 6.7584-1.092267 10.4448-1.365334a23.893333 23.893333 0 0 1 4.5056-0.068266c28.672-4.778667 57.890133-13.858133 62.2592-15.223467 103.901867-39.048533 182.203733-144.1792 182.203733-244.736v-282.487467c0-4.096 1.024-8.192 3.072-11.6736l80.349867-140.151466a23.415467 23.415467 0 0 1 4.096-5.3248c1.501867-1.365333 2.2528-3.2768 2.2528-5.393067 0-4.3008-3.413333-7.645867-7.7824-7.645867z"  horiz-adv-x="1024" />

    
    <glyph glyph-name="weituoguanli-yiru" unicode="&#59004;" d="M216.64 455.168h549.12c12.928 0 21.76-8.704 21.76-21.44 0-12.672-8.832-21.44-21.76-21.44h-549.12c-12.8 0-21.696 8.768-21.696 21.44 0 12.736 8.832 21.44 21.696 21.44zM156.416-22.464h499.2c11.392 0 21.76-10.88 21.76-23.296 0-12.736-8.896-21.44-21.76-21.44h-499.2c-53.504 0-95.616 41.6-95.616 94.464V740.736C60.8 793.6 102.912 835.2 156.416 835.2h647.168c53.504 0 95.616-41.6 95.616-94.464v-401.472c0-12.672-8.832-21.44-21.696-21.44-12.8 0-21.696 8.768-21.696 21.44l3.2 179.328h-184.896c-49.536 0-91.776 37.568-92.416 82.112h-366.08c-12.8 0-21.696 8.704-21.696 21.44s8.832 21.44 21.696 21.44l362.88-3.2 3.2 151.936H156.416a50.944 50.944 0 0 1-52.224-51.584v-711.68c0-29.248 22.592-51.52 52.224-51.52z m517.76 583.936l156.736-5.504-209.024 214.016v-156.992c0-29.248 22.592-51.52 52.224-51.52z m181.632 179.264a50.944 50.944 0 0 1-52.224 51.584l-156.8 5.44 209.024-213.952V740.736zM956.672 144.384c8.64-8.512 8.64-21.248 0-31.872l-160.896-158.592a23.296 23.296 0 0 0-15.168-6.4 23.296 23.296 0 0 0-15.232 6.4l-79.104 79.296-0.832 0.128a36.608 36.608 0 0 0-8.064-1.728 71.616 71.616 0 0 0-7.68-0.192H347.84c-13.824 0-26.496 4.224-42.112 13.056a57.6 57.6 0 0 0-17.472 13.376l-146.048 144a75.648 75.648 0 0 0-23.168 55.04c0 19.84 8.512 37.12 24.96 53.376 15.296 14.976 34.56 22.784 55.936 22.784 21.376 0 40.64-7.808 55.872-22.784l123.52-123.008 119.68-6.4a76.288 76.288 0 0 0-63.744 76.096c0 43.072 35.968 77.888 78.976 77.888h197.888c46.272 0 89.408-23.04 113.152-61.056l131.328-129.408z m-176-143.616l132.672 126.336-121.152 120.704 0.128-0.512c-1.28 1.216-1.92 2.368-1.472 2.496a91.648 91.648 0 0 1-78.72 44.032h-199.68a34.432 34.432 0 0 1-35.584-35.072c0-19.456 16.384-35.072 35.648-35.072h55.424c7.872 0 16.192-5.12 16-11.264a24.32 24.32 0 0 0-2.24-21.12l-24.448-35.072a25.6 25.6 0 0 0-17.024-8.192H366.4a20.032 20.032 0 0 0-15.168 6.4L219.776 283.968c-11.712 13.184-35.456 13.184-48.96-0.128a33.6 33.6 0 0 1-10.176-25.088c0-10.048 3.392-18.368 10.176-25.024l146.048-144c0.64-0.64 1.728-1.344 3.264-2.24l5.12-2.624 1.088-1.664 1.28-0.448a32.64 32.64 0 0 1 20.288-6.656h321.728a10.24 10.24 0 0 1 3.648 0.704 15.808 15.808 0 0 0 5.632 1.088h16.64c4.608 0 9.088-2.176 13.312-6.4l71.744-70.72z m-454.4 82.432l0.832-1.28c0 0.512-0.384 1.024-0.768 1.28z"  horiz-adv-x="1024" />

    
    <glyph glyph-name="zhanghu-yiru" unicode="&#59005;" d="M512 896a512 512 0 1 1 0-1024A512 512 0 0 1 512 896z m173.44-922.56a442.176 442.176 0 0 0-173.44-35.072 442.752 442.752 0 0 0-315.328 130.816 343.488 343.488 0 0 0 317.312 209.6 347.008 347.008 0 0 0 315.904-207.04l-2.752-2.944a444.032 444.032 0 0 0-141.696-95.488v0.128z m-171.52 384a143.808 143.808 0 0 0-143.616 143.552 143.744 143.744 0 0 0 143.68 143.552 143.68 143.68 0 0 0 143.488-143.552 143.744 143.744 0 0 0-143.488-143.552z m356.864-237.824a401.6 401.6 0 0 1-260.672 205.184 201.088 201.088 0 0 1 104.832 176.32 201.28 201.28 0 0 1-200.896 201.088A201.408 201.408 0 0 1 312.96 501.12a201.088 201.088 0 0 1 104.832-176.32 401.792 401.792 0 0 1-262.336-208.128A443.648 443.648 0 0 0 66.368 384a442.88 442.88 0 0 0 130.56 315.136A444.416 444.416 0 0 0 512 829.632a442.752 442.752 0 0 0 315.136-130.56A444.032 444.032 0 0 0 957.632 384a442.624 442.624 0 0 0-86.848-264.32z"  horiz-adv-x="1024" />

    
    <glyph glyph-name="zhanghu-moren" unicode="&#59006;" d="M512 896a512 512 0 1 1 0-1024A512 512 0 0 1 512 896z m173.44-922.56a442.176 442.176 0 0 0-173.44-35.072 442.752 442.752 0 0 0-315.328 130.816 343.488 343.488 0 0 0 317.312 209.6 347.008 347.008 0 0 0 315.904-207.04l-2.752-2.944a444.032 444.032 0 0 0-141.696-95.488v0.128z m-171.52 384a143.808 143.808 0 0 0-143.616 143.552 143.744 143.744 0 0 0 143.68 143.552 143.68 143.68 0 0 0 143.488-143.552 143.744 143.744 0 0 0-143.488-143.552z m356.864-237.824a401.6 401.6 0 0 1-260.672 205.184 201.088 201.088 0 0 1 104.832 176.32 201.28 201.28 0 0 1-200.896 201.088A201.408 201.408 0 0 1 312.96 501.12a201.088 201.088 0 0 1 104.832-176.32 401.792 401.792 0 0 1-262.336-208.128A443.648 443.648 0 0 0 66.368 384a442.88 442.88 0 0 0 130.56 315.136A444.416 444.416 0 0 0 512 829.632a442.752 442.752 0 0 0 315.136-130.56A444.032 444.032 0 0 0 957.632 384a442.624 442.624 0 0 0-86.848-264.32z"  horiz-adv-x="1024" />

    
    <glyph glyph-name="zichanguanli-moren" unicode="&#59007;" d="M372.736-127.268571H97.499429c-53.394286 0-96.841143 46.665143-96.841143 104.009142v279.405715c0 13.385143 10.532571 24.210286 23.478857 24.210285 13.019429 0 23.478857-10.825143 23.478857-24.210285v-279.405715c0-30.72 22.381714-55.588571 49.883429-55.588571h275.236571c12.946286 0 23.478857-10.825143 23.478857-24.210286a23.844571 23.844571 0 0 0-23.478857-24.210285zM926.793143-127.268571H651.702857a23.844571 23.844571 0 0 0-23.478857 24.137142c0 13.458286 10.459429 24.283429 23.405714 24.283429h275.236572c27.501714 0 49.883429 24.868571 49.883428 55.588571v279.405715c0 13.385143 10.532571 24.210286 23.478857 24.210285 13.019429 0 23.478857-10.825143 23.478858-24.210285v-279.405715c0-57.344-43.446857-104.009143-96.841143-104.009142zM24.137143 487.789714a23.844571 23.844571 0 0 0-23.478857 24.137143V791.405714C0.658286 848.822857 44.105143 895.488 97.499429 895.488h275.236571c12.946286 0 23.478857-10.825143 23.478857-24.137143a23.844571 23.844571 0 0 0-23.478857-24.283428H97.499429c-27.501714 0-49.883429-24.868571-49.883429-55.588572v-279.405714a23.844571 23.844571 0 0 0-23.405714-24.210286zM1000.155429 487.789714a23.844571 23.844571 0 0 0-23.478858 24.137143V791.405714c0 30.72-22.381714 55.661714-49.883428 55.661715H651.702857a23.844571 23.844571 0 0 0-23.478857 24.210285c0 13.385143 10.459429 24.210286 23.405714 24.210286h275.236572c53.394286 0 96.841143-46.665143 96.841143-104.009143v-279.405714a23.844571 23.844571 0 0 0-23.405715-24.210286zM284.013714 585.142857h69.705143v-71.899428h-69.705143zM284.013714 248.246857h69.705143v-71.826286h-69.705143zM839.460571 421.302857H186.660571V677.083429h652.8v-255.634286z m-605.842285 48.493714h558.811428V628.589714h-558.811428v-158.793143zM839.460571 84.48H186.660571V340.187429h652.8v-255.707429z m-605.842285 48.420571h558.811428V291.84h-558.811428v-158.866286z"  horiz-adv-x="1024" />

    
    <glyph glyph-name="zichanguanli-yiru" unicode="&#59008;" d="M372.736-127.268571H97.499429c-53.394286 0-96.841143 46.665143-96.841143 104.009142v279.405715c0 13.385143 10.532571 24.210286 23.478857 24.210285 13.019429 0 23.478857-10.825143 23.478857-24.210285v-279.405715c0-30.72 22.381714-55.588571 49.883429-55.588571h275.236571c12.946286 0 23.478857-10.825143 23.478857-24.210286a23.844571 23.844571 0 0 0-23.478857-24.210285zM926.793143-127.268571H651.702857a23.844571 23.844571 0 0 0-23.478857 24.137142c0 13.458286 10.459429 24.283429 23.405714 24.283429h275.236572c27.501714 0 49.883429 24.868571 49.883428 55.588571v279.405715c0 13.385143 10.532571 24.210286 23.478857 24.210285 13.019429 0 23.478857-10.825143 23.478858-24.210285v-279.405715c0-57.344-43.446857-104.009143-96.841143-104.009142zM24.137143 487.789714a23.844571 23.844571 0 0 0-23.478857 24.137143V791.405714C0.658286 848.822857 44.105143 895.488 97.499429 895.488h275.236571c12.946286 0 23.478857-10.825143 23.478857-24.137143a23.844571 23.844571 0 0 0-23.478857-24.283428H97.499429c-27.501714 0-49.883429-24.868571-49.883429-55.588572v-279.405714a23.844571 23.844571 0 0 0-23.405714-24.210286zM1000.155429 487.789714a23.844571 23.844571 0 0 0-23.478858 24.137143V791.405714c0 30.72-22.381714 55.661714-49.883428 55.661715H651.702857a23.844571 23.844571 0 0 0-23.478857 24.210285c0 13.385143 10.459429 24.210286 23.405714 24.210286h275.236572c53.394286 0 96.841143-46.665143 96.841143-104.009143v-279.405714a23.844571 23.844571 0 0 0-23.405715-24.210286zM284.013714 585.142857h69.705143v-71.899428h-69.705143zM284.013714 248.246857h69.705143v-71.826286h-69.705143zM839.460571 421.302857H186.660571V677.083429h652.8v-255.634286z m-605.842285 48.493714h558.811428V628.589714h-558.811428v-158.793143zM839.460571 84.48H186.660571V340.187429h652.8v-255.707429z m-605.842285 48.420571h558.811428V291.84h-558.811428v-158.866286z"  horiz-adv-x="1024" />

    
    <glyph glyph-name="xialajiantou-moren" unicode="&#59009;" d="M1417.728 896L1536 777.728l-768-768L0 777.728 118.272 896 768 246.272 1417.728 896z"  horiz-adv-x="1536" />

    
    <glyph glyph-name="liebiaojiantou-yiru" unicode="&#59010;" d="M246.0672 815.104l71.0656 70.9632 460.8-460.8-460.8-460.8-71.0656 71.0656L635.904 425.2672 246.0672 815.104z"  horiz-adv-x="1024" />

    
    <glyph glyph-name="liebiaojiantou-moren" unicode="&#59011;" d="M246.0672 815.104l71.0656 70.9632 460.8-460.8-460.8-460.8-71.0656 71.0656L635.904 425.2672 246.0672 815.104z"  horiz-adv-x="1024" />

    
    <glyph glyph-name="xialajiantou-yiru" unicode="&#59012;" d="M1417.728 896L1536 777.728l-768-768L0 777.728 118.272 896 768 246.272 1417.728 896z"  horiz-adv-x="1536" />

    
    <glyph glyph-name="yinsizhengce" unicode="&#59016;" d="M512 657.066667C300.202667 657.066667 128 480.853333 128 264.533333c0-216.32 172.202667-392.362667 384-392.362666 211.626667 0 383.914667 176.042667 383.914667 392.448 0 216.32-172.202667 392.362667-384 392.362666z m0-697.685334C347.306667-40.618667 213.333333 96.256 213.333333 264.533333c0 168.277333 133.973333 305.152 298.666667 305.152S810.666667 432.896 810.666667 264.618667c0-168.362667-133.973333-305.237333-298.666667-305.237334zM466.432 395.349333h91.050667v-261.546666H466.432V395.349333z m-93.866667 294.058667c0 65.706667 52.309333 119.210667 116.48 119.210667h45.738667c64.256 0 116.565333-53.418667 116.565333-119.210667v-16.896h85.333334V689.493333c0 113.834667-90.538667 206.421333-201.898667 206.421334h-45.738667c-111.274667 0-201.813333-92.586667-201.813333-206.421334v-16.896h85.333333V689.493333z"  horiz-adv-x="1024" />

    
    <glyph glyph-name="bangzhuzhongxin" unicode="&#59017;" d="M547.157333 200.533333H477.866667a17.066667 17.066667 0 0 1-16.981334-17.066666v-69.290667c0-9.386667 7.68-17.066667 17.066667-17.066667h69.973333a17.066667 17.066667 0 0 1 16.981334 17.066667V183.466667a17.92 17.92 0 0 1-17.664 17.066666zM640 629.162667c-32.256 28.16-75.178667 42.24-126.890667 42.24-48.810667 0-90.453333-14.677333-122.88-42.837334-32.256-28.842667-51.029333-68.266667-55.210666-116.48a15.530667 15.530667 0 0 1 4.778666-12.970666c3.413333-3.413333 8.021333-5.376 12.885334-5.205334h65.792a16.64 16.64 0 0 1 17.066666 14.762667c8.192 54.016 33.536 79.274667 78.762667 79.274667 23.04 0 41.728-7.082667 55.296-20.565334 14.08-13.568 20.48-30.549333 20.48-52.309333a59.904 59.904 0 0 0-7.68-29.952c-3.413333-7.082667-13.994667-20.650667-44.544-45.909333-27.648-23.552-47.018667-46.421333-58.282667-68.181334-11.093333-22.357333-16.384-54.613333-16.384-99.84 0-9.472 7.68-17.066667 17.066667-17.066666h59.306667a17.066667 17.066667 0 0 1 17.066666 17.066666c0 36.437333 4.181333 53.418667 7.68 61.098667 3.498667 7.68 14.677333 22.272 46.421334 48.725333 29.44 24.149333 49.92 47.018667 61.098666 68.266667 11.178667 21.76 17.066667 44.629333 17.066667 69.802667a135.424 135.424 0 0 1-48.810667 109.994666H640zM512 895.402667A511.829333 511.829333 0 0 1 0.512 384 511.317333 511.317333 0 1 1 511.914667 895.317333zM512-45.226667A429.226667 429.226667 0 0 0 82.773333 384 429.226667 429.226667 0 0 0 940.970667 384 429.226667 429.226667 0 0 0 512-45.056z"  horiz-adv-x="1024" />

    
    <glyph glyph-name="shouxufei" unicode="&#59018;" d="M102.4 793.6v-819.2h1024V793.6H102.4zM0 896h1228.8v-1024H0V896zM102.4 691.2h1024v-102.4H102.4zM102.4 486.4h1024v-102.4H102.4z"  horiz-adv-x="1228" />

    
    <glyph glyph-name="fuwutiaokuan" unicode="&#59019;" d="M102.4 793.6v-819.2h819.2V793.6H102.4zM0 896h1024v-1024H0V896zM204.8 588.8h102.4v-102.4H204.8zM409.6 588.8h409.6v-102.4H409.6zM204.8 384h102.4v-102.4H204.8zM409.6 384h409.6v-102.4H409.6zM204.8 179.2h102.4v-102.4H204.8zM409.6 179.2h409.6v-102.4H409.6z"  horiz-adv-x="1024" />

    
    <glyph glyph-name="facebook-icon-moren" unicode="&#59020;" d="M512 853.333333C252.8 853.333333 42.666667 643.2 42.666667 384s210.133333-469.333333 469.333333-469.333333 469.333333 210.133333 469.333333 469.333333S771.2 853.333333 512 853.333333z m0 42.666667c282.752 0 512-229.248 512-512s-229.248-512-512-512S0 101.248 0 384 229.248 896 512 896zM455.125333 487.466667v-68.010667H384v-68.010667h71.125333V170.666667h71.082667v180.778666H597.333333v68.010667h-71.125333v44.8c0 12.8 10.88 22.4 23.466667 22.4h46.805333V554.666667h-71.082667c-38.485333 0.768-70.272-29.610667-70.272-67.2z"  horiz-adv-x="1024" />

    
    <glyph glyph-name="youxiang-icon-moren" unicode="&#59021;" d="M512 853.333333C252.8 853.333333 42.666667 643.2 42.666667 384s210.133333-469.333333 469.333333-469.333333 469.333333 210.133333 469.333333 469.333333S771.2 853.333333 512 853.333333z m0 42.666667c282.752 0 512-229.248 512-512s-229.248-512-512-512S0 101.248 0 384 229.248 896 512 896zM512 338.218667l198.698667 173.098666C709.632 511.573333 708.693333 512 707.541333 512H316.458667c-1.109333 0-2.048-0.426667-3.157334-0.682667L512 338.218667z m213.333333 155.178666a18.176 18.176 0 0 1-1.066666 5.546667l-140.885334-122.752 141.098667-147.541333c0.341333 1.493333 0.853333 2.944 0.853333 4.522666v260.266667z m-425.557333 5.546667l140.885333-122.752-141.098666-147.541333c-0.341333 1.493333-0.896 2.901333-0.896 4.522666v260.266667c0 1.962667 0.554667 3.712 1.109333 5.546667z m269.482667-132.437333l141.354666-152.234667c-1.408-0.426667-2.773333-0.938667-4.309333-0.938667H317.653333c-1.493333 0-2.901333 0.554667-4.266666 0.938667l141.312 152.192 51.626666-46.293333a8.362667 8.362667 0 0 1 11.264 0l51.669334 46.336z"  horiz-adv-x="1024" />

    
    <glyph glyph-name="xinlang-icon-moren" unicode="&#59022;" d="M512 853.333333C252.8 853.333333 42.666667 643.2 42.666667 384s210.133333-469.333333 469.333333-469.333333 469.333333 210.133333 469.333333 469.333333S771.2 853.333333 512 853.333333z m0 42.666667c282.752 0 512-229.248 512-512s-229.248-512-512-512S0 101.248 0 384 229.248 896 512 896zM635.178667 389.632c-19.925333 4.053333-10.24 15.232-10.24 15.232s19.498667 33.493333-3.84 57.856c-28.928 30.165333-99.242667-3.84-99.242667-3.84-26.88-8.704-19.712 3.968-15.914667 25.514667 0 25.344-8.362667 68.266667-79.872 42.965333-71.466667-25.514667-132.821333-114.901333-132.821333-114.901333-42.666667-59.392-36.992-105.258667-36.992-105.258667 10.666667-101.333333 113.834667-129.152 194.133333-135.68 84.48-6.954667 198.442667 30.293333 233.045334 106.922667 34.56 76.672-28.245333 107.050667-48.213334 111.189333z m-178.517334-189.610667c-83.84-4.053333-151.637333 39.808-151.637333 98.133334 0 58.453333 67.754667 105.301333 151.637333 109.312 83.882667 4.053333 151.808-32 151.808-90.325334 0-58.368-67.925333-113.152-151.808-117.12z m-16.725333 168.96c-84.352-10.24-74.624-92.672-74.624-92.672s-0.853333-26.069333 22.613333-39.381333c49.365333-27.861333 100.181333-10.965333 125.866667 23.594667 25.685333 34.56 10.581333 118.698667-73.856 108.501333z m-21.290667-115.626666c-15.786667-1.92-28.416 7.552-28.416 21.290666 0 13.653333 11.264 27.989333 27.008 29.696 18.090667 1.834667 29.866667-9.045333 29.866667-22.784 0-13.653333-12.8-26.325333-28.458667-28.202666z m49.706667 44.16c-5.333333-4.138667-11.904-3.584-14.72 1.408a13.312 13.312 0 0 0 3.584 16.768c6.229333 4.864 12.757333 3.413333 15.573333-1.408 2.816-4.992 0.810667-12.458667-4.437333-16.768z m207.914667 127.786666a13.909333 13.909333 0 0 1 13.696 13.653334c10.325333 96.554667-75.861333 79.957333-75.861334 79.957333a14.08 14.08 0 0 1-13.781333-14.506667 14.08 14.08 0 0 1 13.781333-14.421333c61.866667 14.293333 48.213333-50.261333 48.213334-50.261333 0-8.021333 6.272-14.421333 13.952-14.421334z m-10.069334 168.576c-29.781333 7.253333-60.416 1.024-69.034666-0.682666-0.64-0.085333-1.28-0.725333-1.877334-0.853334-0.298667-0.042667-0.512-0.426667-0.512-0.426666a20.992 20.992 0 0 1-14.634666-20.266667c0-11.52 8.96-20.992 20.096-20.992 0 0 10.837333 1.536 18.218666 4.522667 7.296 3.072 69.034667 2.261333 99.669334-51.413334 16.725333-39.168 7.338667-65.408 6.186666-69.632 0 0-4.010667-10.154667-4.010666-20.181333 0-11.562667 8.96-18.858667 20.053333-18.858667 9.258667 0 17.066667 1.322667 19.328 17.664h0.128c32.896 114.389333-40.277333 168.149333-93.610667 181.12z"  horiz-adv-x="1024" />

    
    <glyph glyph-name="dianbaoqun-icon-moren" unicode="&#59023;" d="M512 853.333333C252.8 853.333333 42.666667 643.2 42.666667 384s210.133333-469.333333 469.333333-469.333333 469.333333 210.133333 469.333333 469.333333S771.2 853.333333 512 853.333333z m0 42.666667c282.752 0 512-229.248 512-512s-229.248-512-512-512S0 101.248 0 384 229.248 896 512 896zM485.973333 262.826667c-19.754667-19.072-39.125333-37.546667-58.154666-56.277334-6.698667-6.570667-14.208-10.410667-23.893334-9.941333-6.912 0.298667-10.709333 3.285333-12.8 9.770667-14.72 45.781333-29.824 91.434667-44.586666 137.130666-1.365333 4.138667-3.669333 5.674667-7.466667 6.826667-34.986667 10.752-69.888 21.546667-104.789333 32.554667a54.186667 54.186667 0 0 0-13.738667 5.973333c-8.618667 5.418667-9.813333 14.037333-1.92 20.48 6.229333 5.12 13.696 9.386667 21.290667 12.373333 40.32 15.829333 80.853333 31.189333 121.301333 46.72L691.2 594.858667c20.224 7.722667 35.84-3.285333 34.048-25.088-1.109333-12.288-4.181333-24.32-6.826667-36.309334-23.893333-112.341333-47.914667-224.554667-71.936-336.853333-5.717333-26.666667-24.106667-33.408-46.165333-17.28l-108.501333 79.573333c-1.834667 1.152-3.712 2.304-5.845334 3.968z m-80.896-34.816c0.554667 2.56 0.981333 3.754667 1.152 4.906666 2.346667 24.832 4.778667 49.621333 6.826667 74.453334a19.370667 19.370667 0 0 0 6.826667 13.909333c55.765333 49.834667 111.445333 99.754667 167.168 149.674667 15.061333 13.525333 30.208 26.965333 45.098666 40.576 1.664 1.536 2.218667 4.352 3.328 6.570666-2.56 0.768-5.376 2.602667-7.594666 2.133334a49.066667 49.066667 0 0 1-13.141334-5.546667c-82.346667-51.456-164.48-102.997333-246.826666-154.368-4.266667-2.730667-5.248-4.949333-3.584-9.856 13.013333-38.826667 25.685333-77.738667 38.4-116.565333 0.469333-1.664 1.152-3.114667 2.346666-5.888z"  horiz-adv-x="1024" />

    
    <glyph glyph-name="twitter-icon-moren" unicode="&#59024;" d="M512 853.333333C252.8 853.333333 42.666667 643.2 42.666667 384s210.133333-469.333333 469.333333-469.333333 469.333333 210.133333 469.333333 469.333333S771.2 853.333333 512 853.333333z m0 42.666667c282.752 0 512-229.248 512-512s-229.248-512-512-512S0 101.248 0 384 229.248 896 512 896zM725.248 514.176a181.162667 181.162667 0 0 0-43.861333-44.544 241.066667 241.066667 0 0 0-10.026667-80.384 261.376 261.376 0 0 0-81.194667-122.453333 223.317333 223.317333 0 0 0-69.802666-38.912 258.986667 258.986667 0 0 0-87.466667-14.549334A245.461333 245.461333 0 0 0 298.666667 251.989333c6.314667-0.682667 13.354667-1.024 21.12-1.024 40.576 0 76.8 12.245333 108.544 36.778667a86.229333 86.229333 0 0 0-50.901334 17.194667 84.181333 84.181333 0 0 0-30.890666 42.538666c5.973333-0.853333 11.52-1.28 16.554666-1.28 7.765333 0 15.402667 0.938667 22.997334 2.901334a86.314667 86.314667 0 0 0-50.218667 29.738666 82.432 82.432 0 0 0-19.882667 54.784v1.066667c12.288-6.784 25.429333-10.410667 39.552-10.922667a86.4 86.4 0 0 0-28.416 30.634667 83.285333 83.285333 0 0 0-10.581333 41.088c0 15.658667 3.968 30.122667 11.946667 43.434667a246.912 246.912 0 0 1 79.701333-63.573334 246.613333 246.613333 0 0 1 100.565333-26.538666 95.061333 95.061333 0 0 0-2.133333 19.712c0 23.850667 8.533333 44.16 25.557333 60.970666 17.066667 16.768 37.632 25.173333 61.866667 25.173334a84.906667 84.906667 0 0 0 63.872-27.221334c19.626667 3.754667 38.186667 10.666667 55.466667 20.821334-6.656-20.48-19.456-36.266667-38.4-47.488A175.616 175.616 0 0 1 725.333333 514.133333l-0.085333 0.042667z"  horiz-adv-x="1024" />

    
    <glyph glyph-name="facebook-icon-yiru" unicode="&#59025;" d="M512 853.333333C252.8 853.333333 42.666667 643.2 42.666667 384s210.133333-469.333333 469.333333-469.333333 469.333333 210.133333 469.333333 469.333333S771.2 853.333333 512 853.333333z m0 42.666667c282.752 0 512-229.248 512-512s-229.248-512-512-512S0 101.248 0 384 229.248 896 512 896zM455.125333 487.466667v-68.010667H384v-68.010667h71.125333V170.666667h71.082667v180.778666H597.333333v68.010667h-71.125333v44.8c0 12.8 10.88 22.4 23.466667 22.4h46.805333V554.666667h-71.082667c-38.485333 0.768-70.272-29.610667-70.272-67.2z"  horiz-adv-x="1024" />

    
    <glyph glyph-name="youxiang-icon-yiru" unicode="&#59026;" d="M512 853.333333C252.8 853.333333 42.666667 643.2 42.666667 384s210.133333-469.333333 469.333333-469.333333 469.333333 210.133333 469.333333 469.333333S771.2 853.333333 512 853.333333z m0 42.666667c282.752 0 512-229.248 512-512s-229.248-512-512-512S0 101.248 0 384 229.248 896 512 896zM512 338.218667l198.698667 173.098666C709.632 511.573333 708.693333 512 707.541333 512H316.458667c-1.109333 0-2.048-0.426667-3.157334-0.682667L512 338.218667z m213.333333 155.178666a18.176 18.176 0 0 1-1.066666 5.546667l-140.885334-122.752 141.098667-147.541333c0.341333 1.493333 0.853333 2.944 0.853333 4.522666v260.266667z m-425.557333 5.546667l140.885333-122.752-141.098666-147.541333c-0.341333 1.493333-0.896 2.901333-0.896 4.522666v260.266667c0 1.962667 0.554667 3.712 1.109333 5.546667z m269.482667-132.437333l141.354666-152.234667c-1.408-0.426667-2.773333-0.938667-4.309333-0.938667H317.653333c-1.493333 0-2.901333 0.554667-4.266666 0.938667l141.312 152.192 51.626666-46.293333a8.362667 8.362667 0 0 1 11.264 0l51.669334 46.336z"  horiz-adv-x="1024" />

    
    <glyph glyph-name="twitter-icon-yiru" unicode="&#59027;" d="M512 853.333333C252.8 853.333333 42.666667 643.2 42.666667 384s210.133333-469.333333 469.333333-469.333333 469.333333 210.133333 469.333333 469.333333S771.2 853.333333 512 853.333333z m0 42.666667c282.752 0 512-229.248 512-512s-229.248-512-512-512S0 101.248 0 384 229.248 896 512 896zM725.248 514.176a181.162667 181.162667 0 0 0-43.861333-44.544 241.066667 241.066667 0 0 0-10.026667-80.384 261.376 261.376 0 0 0-81.194667-122.453333 223.317333 223.317333 0 0 0-69.802666-38.912 258.986667 258.986667 0 0 0-87.466667-14.549334A245.461333 245.461333 0 0 0 298.666667 251.989333c6.314667-0.682667 13.354667-1.024 21.12-1.024 40.576 0 76.8 12.245333 108.544 36.778667a86.229333 86.229333 0 0 0-50.901334 17.194667 84.181333 84.181333 0 0 0-30.890666 42.538666c5.973333-0.853333 11.52-1.28 16.554666-1.28 7.765333 0 15.402667 0.938667 22.997334 2.901334a86.314667 86.314667 0 0 0-50.218667 29.738666 82.432 82.432 0 0 0-19.882667 54.784v1.066667c12.288-6.784 25.429333-10.410667 39.552-10.922667a86.4 86.4 0 0 0-28.416 30.634667 83.285333 83.285333 0 0 0-10.581333 41.088c0 15.658667 3.968 30.122667 11.946667 43.434667a246.912 246.912 0 0 1 79.701333-63.573334 246.613333 246.613333 0 0 1 100.565333-26.538666 95.061333 95.061333 0 0 0-2.133333 19.712c0 23.850667 8.533333 44.16 25.557333 60.970666 17.066667 16.768 37.632 25.173333 61.866667 25.173334a84.906667 84.906667 0 0 0 63.872-27.221334c19.626667 3.754667 38.186667 10.666667 55.466667 20.821334-6.656-20.48-19.456-36.266667-38.4-47.488A175.616 175.616 0 0 1 725.333333 514.133333l-0.085333 0.042667z"  horiz-adv-x="1024" />

    
    <glyph glyph-name="dianbaoqun-icon-yiru" unicode="&#59028;" d="M512 853.333333C252.8 853.333333 42.666667 643.2 42.666667 384s210.133333-469.333333 469.333333-469.333333 469.333333 210.133333 469.333333 469.333333S771.2 853.333333 512 853.333333z m0 42.666667c282.752 0 512-229.248 512-512s-229.248-512-512-512S0 101.248 0 384 229.248 896 512 896zM485.973333 262.826667c-19.754667-19.072-39.125333-37.546667-58.154666-56.277334-6.698667-6.570667-14.208-10.410667-23.893334-9.941333-6.912 0.298667-10.709333 3.285333-12.8 9.770667-14.72 45.781333-29.824 91.434667-44.586666 137.130666-1.365333 4.138667-3.669333 5.674667-7.466667 6.826667-34.986667 10.752-69.888 21.546667-104.789333 32.554667a54.186667 54.186667 0 0 0-13.738667 5.973333c-8.618667 5.418667-9.813333 14.037333-1.92 20.48 6.229333 5.12 13.696 9.386667 21.290667 12.373333 40.32 15.829333 80.853333 31.189333 121.301333 46.72L691.2 594.858667c20.224 7.722667 35.84-3.285333 34.048-25.088-1.109333-12.288-4.181333-24.32-6.826667-36.309334-23.893333-112.341333-47.914667-224.554667-71.936-336.853333-5.717333-26.666667-24.106667-33.408-46.165333-17.28l-108.501333 79.573333c-1.834667 1.152-3.712 2.304-5.845334 3.968z m-80.896-34.816c0.554667 2.56 0.981333 3.754667 1.152 4.906666 2.346667 24.832 4.778667 49.621333 6.826667 74.453334a19.370667 19.370667 0 0 0 6.826667 13.909333c55.765333 49.834667 111.445333 99.754667 167.168 149.674667 15.061333 13.525333 30.208 26.965333 45.098666 40.576 1.664 1.536 2.218667 4.352 3.328 6.570666-2.56 0.768-5.376 2.602667-7.594666 2.133334a49.066667 49.066667 0 0 1-13.141334-5.546667c-82.346667-51.456-164.48-102.997333-246.826666-154.368-4.266667-2.730667-5.248-4.949333-3.584-9.856 13.013333-38.826667 25.685333-77.738667 38.4-116.565333 0.469333-1.664 1.152-3.114667 2.346666-5.888z"  horiz-adv-x="1024" />

    
    <glyph glyph-name="xinlang-icon-yiru" unicode="&#59029;" d="M512 853.333333C252.8 853.333333 42.666667 643.2 42.666667 384s210.133333-469.333333 469.333333-469.333333 469.333333 210.133333 469.333333 469.333333S771.2 853.333333 512 853.333333z m0 42.666667c282.752 0 512-229.248 512-512s-229.248-512-512-512S0 101.248 0 384 229.248 896 512 896zM635.178667 389.632c-19.925333 4.053333-10.24 15.232-10.24 15.232s19.498667 33.493333-3.84 57.856c-28.928 30.165333-99.242667-3.84-99.242667-3.84-26.88-8.704-19.712 3.968-15.914667 25.514667 0 25.344-8.362667 68.266667-79.872 42.965333-71.466667-25.514667-132.821333-114.901333-132.821333-114.901333-42.666667-59.392-36.992-105.258667-36.992-105.258667 10.666667-101.333333 113.834667-129.152 194.133333-135.68 84.48-6.954667 198.442667 30.293333 233.045334 106.922667 34.56 76.672-28.245333 107.050667-48.213334 111.189333z m-178.517334-189.610667c-83.84-4.053333-151.637333 39.808-151.637333 98.133334 0 58.453333 67.754667 105.301333 151.637333 109.312 83.882667 4.053333 151.808-32 151.808-90.325334 0-58.368-67.925333-113.152-151.808-117.12z m-16.725333 168.96c-84.352-10.24-74.624-92.672-74.624-92.672s-0.853333-26.069333 22.613333-39.381333c49.365333-27.861333 100.181333-10.965333 125.866667 23.594667 25.685333 34.56 10.581333 118.698667-73.856 108.501333z m-21.290667-115.626666c-15.786667-1.92-28.416 7.552-28.416 21.290666 0 13.653333 11.264 27.989333 27.008 29.696 18.090667 1.834667 29.866667-9.045333 29.866667-22.784 0-13.653333-12.8-26.325333-28.458667-28.202666z m49.706667 44.16c-5.333333-4.138667-11.904-3.584-14.72 1.408a13.312 13.312 0 0 0 3.584 16.768c6.229333 4.864 12.757333 3.413333 15.573333-1.408 2.816-4.992 0.810667-12.458667-4.437333-16.768z m207.914667 127.786666a13.909333 13.909333 0 0 1 13.696 13.653334c10.325333 96.554667-75.861333 79.957333-75.861334 79.957333a14.08 14.08 0 0 1-13.781333-14.506667 14.08 14.08 0 0 1 13.781333-14.421333c61.866667 14.293333 48.213333-50.261333 48.213334-50.261333 0-8.021333 6.272-14.421333 13.952-14.421334z m-10.069334 168.576c-29.781333 7.253333-60.416 1.024-69.034666-0.682666-0.64-0.085333-1.28-0.725333-1.877334-0.853334-0.298667-0.042667-0.512-0.426667-0.512-0.426666a20.992 20.992 0 0 1-14.634666-20.266667c0-11.52 8.96-20.992 20.096-20.992 0 0 10.837333 1.536 18.218666 4.522667 7.296 3.072 69.034667 2.261333 99.669334-51.413334 16.725333-39.168 7.338667-65.408 6.186666-69.632 0 0-4.010667-10.154667-4.010666-20.181333 0-11.562667 8.96-18.858667 20.053333-18.858667 9.258667 0 17.066667 1.322667 19.328 17.664h0.128c32.896 114.389333-40.277333 168.149333-93.610667 181.12z"  horiz-adv-x="1024" />

    
    <glyph glyph-name="jiantizhongwen" unicode="&#59030;" d="M0 896h1536v-1024H0zM288 723.2L320 627.2h96l-76.8-57.6 32-96-83.2 57.6-83.2-57.6 32 96-76.8 57.6H256l32 96z m256 44.8v-32l32-12.8-38.4-6.4v-32l-19.2 25.6-32-6.4 25.6 25.6-19.2 25.6 32-12.8 19.2 25.6z m108.8-102.4l-12.8-32 25.6-25.6-38.4 12.8-12.8-32-6.4 32-32 6.4 32 12.8-6.4 32 25.6-25.6 25.6 19.2z m-32-134.4l12.8-32h32l-25.6-12.8 12.8-32-32 19.2-25.6-19.2 12.8 32-32 19.2h32l12.8 25.6zM544 435.2v-32l32-12.8-38.4-6.4v-32l-19.2 25.6-32-6.4 25.6 25.6-19.2 25.6 32-12.8 19.2 25.6z"  horiz-adv-x="1536" />

    
    <glyph glyph-name="English" unicode="&#59031;" d="M6.4 896H1536v-1024H6.4zM6.4 537.6H1536v-307.2H6.4zM915.2 896v-1024H614.4V896zM1536-12.8V-128h-185.6L6.4 768V896h179.2zM1536 780.8V896h-185.6L6.4 0v-128h179.2zM6.4 812.8l409.6-275.2h121.6L6.4 896v-83.2zM1536-44.8l-409.6 275.2h-121.6L1536-128v83.2z m-620.8 608v-32h83.2L1536 896h-134.4l-486.4-332.8z m-288-364.8v32H544L6.4-128h134.4l486.4 326.4zM678.4 896h179.2v-1024h-179.2V896zM0 294.4V473.6h1536v-179.2z"  horiz-adv-x="1536" />

    
    <glyph glyph-name="fantizhongwen" unicode="&#59032;" d="M0 896h1536v-1024H0zM761.6 390.4l6.4-12.8-6.4-6.4-6.4 6.4zM761.6 377.6c-83.2 38.4-128 153.6-89.6 243.2 19.2 51.2 89.6 115.2 179.2 96-32-19.2-57.6-44.8-32-76.8 25.6-38.4 12.8-96-32-121.6s-76.8-89.6-25.6-140.8zM761.6 377.6c-19.2 12.8-44.8 32-51.2 96v19.2c0 51.2 25.6 76.8 25.6 76.8v-6.4s-6.4-6.4-12.8-19.2-12.8-32-12.8-57.6v-19.2c6.4-57.6 32-70.4 51.2-89.6z m-25.6 249.6l12.8-19.2 19.2 12.8-6.4-19.2 12.8-12.8h-19.2l-6.4-19.2-6.4 19.2h-19.2l19.2 12.8-6.4 25.6zM761.6 377.6c6.4 96 96 172.8 185.6 166.4 51.2 0 134.4-57.6 140.8-153.6-25.6 32-57.6 44.8-83.2 12.8-25.6-38.4-83.2-44.8-121.6 0-25.6 25.6-96 38.4-121.6-25.6zM761.6 377.6c6.4 25.6 12.8 57.6 70.4 83.2l19.2 6.4c44.8 12.8 76.8 0 76.8 0s-6.4 6.4-19.2 6.4-32 0-51.2-6.4l-25.6-6.4c-57.6-25.6-57.6-57.6-70.4-83.2z m211.2 102.4l-6.4-19.2 12.8-12.8H960l-6.4-19.2-6.4 19.2h-19.2l19.2 12.8-6.4 19.2 12.8-12.8 19.2 12.8zM761.6 377.6c89.6 25.6 185.6-44.8 204.8-140.8 12.8-51.2-12.8-153.6-96-185.6 19.2 38.4 25.6 70.4-12.8 83.2-38.4 19.2-64 70.4-38.4 121.6 19.2 38.4 6.4 115.2-57.6 121.6zM761.6 384c25.6 0 57.6 6.4 96-44.8l12.8-12.8c25.6-38.4 25.6-76.8 25.6-76.8v25.6c0 12.8-6.4 32-19.2 51.2l-12.8 12.8c-51.2 38.4-76.8 38.4-102.4 44.8z m153.6-185.6H896l-6.4-19.2-6.4 19.2h-19.2l19.2 12.8-6.4 19.2 12.8-12.8 19.2 12.8-6.4-19.2 12.8-12.8zM761.6 377.6c51.2-83.2 19.2-198.4-64-249.6-44.8-25.6-140.8-38.4-198.4 38.4 38.4-6.4 70.4 0 70.4 44.8s44.8 89.6 96 76.8c44.8-12.8 108.8 19.2 96 89.6zM761.6 377.6c6.4-25.6 19.2-57.6-6.4-108.8l-12.8-19.2c-25.6-38.4-64-51.2-64-51.2s6.4 0 19.2 6.4 25.6 19.2 38.4 38.4l12.8 19.2c32 64 19.2 89.6 12.8 115.2z m-115.2-211.2l-6.4 19.2h-19.2l19.2 12.8-6.4 19.2 12.8-12.8 19.2 12.8-6.4-19.2 12.8-12.8h-19.2l-6.4-19.2zM761.6 377.6c-57.6-70.4-172.8-76.8-243.2-12.8-38.4 38.4-76.8 128-25.6 211.2 0-38.4 19.2-70.4 57.6-57.6 44.8 12.8 89.6-19.2 96-70.4 6.4-51.2 57.6-102.4 115.2-70.4zM761.6 377.6c-19.2-12.8-44.8-38.4-102.4-25.6l-19.2 6.4c-44.8 12.8-64 51.2-64 51.2v6.4s6.4-6.4 12.8-19.2c12.8-12.8 25.6-19.2 44.8-32l19.2-6.4c64-12.8 89.6 6.4 108.8 19.2z m-230.4 51.2l19.2 12.8-6.4 19.2 12.8-12.8 19.2 6.4-6.4-19.2 12.8-12.8h-19.2l-6.4-12.8-6.4 19.2h-19.2z"  horiz-adv-x="1536" />

    
    <glyph glyph-name="search-bizhong" unicode="&#59033;" d="M993.883256-22.768941l-263.770352 263.770353a387.734588 387.734588 0 0 1 82.522352 239.676235 388.517647 388.517647 0 0 1-114.688 276.600471A388.336941 388.336941 0 0 1 421.346786 871.905882a388.336941 388.336941 0 0 1-276.600471-114.627764A388.517647 388.517647 0 0 1 30.118551 480.677647a388.517647 388.517647 0 0 1 114.627764-276.660706 388.336941 388.336941 0 0 1 276.600471-114.627765c87.943529 0 171.369412 29.153882 239.616 82.462118l263.770353-263.710118L993.883256-22.768941z m-572.53647 209.980235a291.418353 291.418353 0 0 0-207.450353 85.89553 291.418353 291.418353 0 0 0-85.955765 207.570823c0 78.305882 30.479059 152.033882 85.955765 207.450353a291.237647 291.237647 0 0 0 207.450353 85.955765c78.426353 0 152.033882-30.539294 207.450353-85.955765a291.358118 291.358118 0 0 0 86.016-207.450353 291.418353 291.418353 0 0 0-86.016-207.570823 291.418353 291.418353 0 0 0-207.450353-85.89553z"  horiz-adv-x="1024" />

    
    <glyph glyph-name="paixujiantou-moren" unicode="&#59034;" d="M494.3872 46.7968L241.0496 300.2368a51.2 51.2 0 1 1-72.4992-72.3968l289.6896-289.6896a51.2 51.2 0 0 1 72.3968 0L820.224 227.84a51.2 51.2 0 1 1-72.3968 72.3968L494.3872 46.7968zM494.3872 686.08L241.0496 432.64a51.2 51.2 0 1 0-72.4992 72.3968L458.24 794.624a51.2 51.2 0 0 0 72.3968 0L820.224 505.0368a51.2 51.2 0 1 0-72.3968-72.3968L494.3872 686.08z"  horiz-adv-x="1024" />

    
    <glyph glyph-name="paixujiantou-zhengxu" unicode="&#59035;" d="M491.52 46.08L245.76 302.08c-20.48 20.48-51.2 20.48-71.68 0-20.48-20.48-20.48-51.2-10.24-71.68l286.72-286.72c20.48-20.48 51.2-20.48 71.68 0L819.2 230.4c20.48 20.48 20.48 51.2 0 71.68-20.48 20.48-51.2 20.48-71.68 0L491.52 46.08zM491.52 680.96L245.76 435.2c-20.48-20.48-51.2-20.48-71.68 0S153.6 486.4 163.84 506.88L460.8 793.6c20.48 20.48 51.2 20.48 71.68 0L819.2 506.88c20.48-20.48 20.48-51.2 0-71.68-20.48-20.48-51.2-20.48-71.68 0L491.52 680.96z"  horiz-adv-x="1024" />

    
    <glyph glyph-name="paixujiantou-daoxu" unicode="&#59036;" d="M491.52 721.92L245.76 465.92c-20.48-20.48-51.2-20.48-71.68 0-20.48 20.48-20.48 51.2-10.24 71.68L450.56 824.32c20.48 20.48 51.2 20.48 71.68 0L819.2 537.6c20.48-20.48 20.48-51.2 0-71.68-20.48-20.48-51.2-20.48-71.68 0L491.52 721.92zM491.52 87.04L245.76 332.8c-20.48 20.48-51.2 20.48-71.68 0s-20.48-51.2-10.24-71.68L460.8-25.6c20.48-20.48 51.2-20.48 71.68 0L819.2 261.12c20.48 20.48 20.48 51.2 0 71.68-20.48 20.48-51.2 20.48-71.68 0L491.52 87.04z"  horiz-adv-x="1024" />

    
    <glyph glyph-name="fanhui-yiru" unicode="&#59037;" d="M787.576695 822.709657L323.062316 383.971953l464.514379-438.737704a43.762472 43.762472 0 0 0 0-60.590768 40.73516 40.73516 0 0 0-58.765477 0L234.513428 351.517383a43.628914 43.628914 0 0 0-11.797615 32.499089 42.961125 42.961125 0 0 0 11.797615 32.499089L728.855738 883.433982a40.73516 40.73516 0 0 0 58.765476 0 43.851511 43.851511 0 0 0 0-60.724325z"  horiz-adv-x="1024" />

    
    <glyph glyph-name="zhengque" unicode="&#59038;" d="M9.588364 298.728727a31.650909 31.650909 0 0 0-2.978909 41.984l37.888 46.545455a32.581818 32.581818 0 0 0 42.263272 5.957818L424.494545 173.800727c26.437818-17.221818 68.049455-15.173818 92.532364 4.189091L1417.402182 888.832a33.512727 33.512727 0 0 0 42.542545-2.420364l19.549091-18.990545a27.368727 27.368727 0 0 0-0.093091-39.842909L513.303273-111.243636a58.926545 58.926545 0 0 0-81.361455-0.465455L9.588364 298.728727z"  horiz-adv-x="1489" />

    
    <glyph glyph-name="yincangmima-guan" unicode="&#59039;" d="M1637.888 384.1024c0-163.1232-337.6128-511.2832-818.688-511.2832-468.7872 0-818.5856 342.4256-818.5856 511.2832C0.6144 553.0624 351.8464 894.976 819.2 894.976c484.864 0 818.7904-341.8112 818.688-510.7712zM819.9168 801.5872c-217.8048 0-394.4448-186.9824-394.4448-417.792 0-230.6048 176.64-417.6896 394.4448-417.6896 218.0096 0 394.6496 187.0848 394.6496 417.792S1037.9264 801.6896 819.9168 801.6896zM819.2 650.5472c-138.752 0-251.1872-119.0912-251.1872-266.0352 0-146.8416 112.4352-265.9328 251.1872-265.9328 138.752 0 251.1872 119.0912 251.1872 265.9328 0 146.944-112.4352 266.0352-251.1872 266.0352z"  horiz-adv-x="1638" />

    
    <glyph glyph-name="denglu-tishi" unicode="&#59040;" d="M511.780572 895.852983C380.928094 895.852983 250.148758 846.115876 149.943116 746.056519a512.219063 512.219063 0 0 1 0-723.674912 509.732207 509.732207 0 0 1 361.837456-149.869607c130.925621 0 261.704956 49.737107 361.837455 149.94275a512.219063 512.219063 0 0 1 0 723.601769A509.732207 509.732207 0 0 1 511.780572 895.999269z m0-51.199963c59.9771 0 118.491344-11.702849 173.275304-33.645691 57.051388-23.332555 108.178208-56.978245 152.063892-101.522213 44.617111-43.885683 78.189658-95.085646 101.595356-152.137034 21.942841-54.783961 33.64569-113.225062 33.64569-173.202162 0-59.9771-11.702849-118.418201-33.64569-173.202162-23.405698-57.051388-57.051388-108.251351-101.668499-152.137034-43.885683-44.543968-95.012504-78.189658-151.990749-101.522213-54.857104-21.942841-113.371348-33.64569-173.275304-33.645691-59.9771 0-118.418201 11.702849-173.275305 33.645691-57.051388 23.405698-108.178208 57.051388-151.990749 101.595356-44.617111 43.885683-78.262801 95.012504-101.668499 152.063891C62.903178 265.800862 51.200329 324.241963 51.200329 384.14592c0 59.9771 11.702849 118.491344 33.64569 173.275305 23.405698 57.051388 57.051388 108.178208 101.668499 152.063891 43.885683 44.617111 95.012504 78.189658 151.990749 101.595356 54.857104 21.942841 113.371348 33.64569 173.348447 33.64569zM517.851424 153.307228c15.140561 0 28.15998-5.266282 38.985115-15.871989 10.825135-10.532564 16.237703-23.405698 16.237703-38.546258 0-15.359989-5.412568-28.306265-16.237703-38.765687a54.271961 54.271961 0 0 0-38.985115-15.579417 54.271961 54.271961 0 0 0-38.985115 15.579417 51.565677 51.565677 0 0 0-16.237702 38.765687c0 15.140561 5.412568 28.013694 16.237702 38.546258a53.906247 53.906247 0 0 0 38.985115 15.871989z m41.98397 564.955025l-9.435421-474.550519H482.742878L473.234313 718.262253h86.527939z"  horiz-adv-x="1024" />

    
    <glyph glyph-name="zhucewenanicon" unicode="&#59041;" d="M512 896C229.699368 896 0 666.300632 0 384S229.699368-128 512-128 1024 101.699368 1024 384 794.300632 896 512 896z m0-967.087158c-250.933895 0-455.087158 204.153263-455.087158 455.087158 0 250.933895 204.153263 455.087158 455.087158 455.087158 250.933895 0 455.087158-204.153263 455.087158-455.087158 0-250.933895-204.153263-455.087158-455.087158-455.087158zM776.353684 593.758316L417.145263 234.603789 247.646316 404.102737a28.456421 28.456421 0 1 1-40.205474-40.205474l189.655579-189.655579a28.456421 28.456421 0 0 1 40.205474 0l379.257263 379.257263a28.456421 28.456421 0 1 1-40.205474 40.259369z"  horiz-adv-x="1024" />

    
    <glyph glyph-name="denglu-suo" unicode="&#59042;" d="M834.047573 466.773333h-70.997333V637.098667C763.05024 779.605333 650.751573 896 511.999573 896 373.759573 896 260.948907 779.690667 260.948907 637.098667V466.773333H189.951573A62.72 62.72 0 0 1 127.999573 402.773333v-466.858666c0-35.498667 27.562667-63.914667 61.952-63.914667h644.096A62.72 62.72 0 0 1 895.999573-64.085333V402.773333a62.72 62.72 0 0 1-61.952 63.914667z m-167.424 0H357.375573V632.746667c0 87.893333 69.376 159.488 154.624 159.488 85.333333 0 154.624-71.509333 154.624-159.488V466.773333z"  horiz-adv-x="1024" />

    
    <glyph glyph-name="fanhui-moren" unicode="&#59043;" d="M787.576695 822.709657L323.062316 383.971953l464.514379-438.737704a43.762472 43.762472 0 0 0 0-60.590768 40.73516 40.73516 0 0 0-58.765477 0L234.513428 351.517383a43.628914 43.628914 0 0 0-11.797615 32.499089 42.961125 42.961125 0 0 0 11.797615 32.499089L728.855738 883.433982a40.73516 40.73516 0 0 0 58.765476 0 43.851511 43.851511 0 0 0 0-60.724325z"  horiz-adv-x="1024" />

    
    <glyph glyph-name="youxiangyanzheng" unicode="&#59044;" d="M1212.245333 894.506667H66.133333C29.610667 894.506667 0 865.194667 0 829.141333v-890.453333c0-36.053333 29.610667-65.365333 66.090667-65.365333h1146.325333c36.437333 0 66.090667 29.312 66.090667 65.365333V829.141333A66.048 66.048 0 0 1 1212.245333 894.506667zM84.224 811.221333h5.504a24.746667 24.746667 0 0 0-5.504-12.672v12.672z m1109.888 0v-12.672a23.466667 23.466667 0 0 0-5.504 12.672h5.504z m-24.448 0L639.146667 378.752 108.672 811.221333h1060.992zM84.224-43.221333V723.2l515.328-420.010667c10.837333-9.856 24.789333-15.146667 39.594667-15.146666 14.848 0 28.8 5.461333 39.637333 15.146666L1194.112 723.2v-766.378667H84.224z"  horiz-adv-x="1280" />

    
    <glyph glyph-name="yincangmima-kai" unicode="&#59045;" d="M1637.888 384.1024c0-163.1232-337.6128-511.2832-818.688-511.2832-468.7872 0-818.5856 342.4256-818.5856 511.2832C0.6144 553.0624 351.8464 894.976 819.2 894.976c484.864 0 818.7904-341.8112 818.688-510.7712zM819.9168 801.5872c-217.8048 0-394.4448-186.9824-394.4448-417.792 0-230.6048 176.64-417.6896 394.4448-417.6896 218.0096 0 394.6496 187.0848 394.6496 417.792S1037.9264 801.6896 819.9168 801.6896zM819.2 650.5472c-138.752 0-251.1872-119.0912-251.1872-266.0352 0-146.8416 112.4352-265.9328 251.1872-265.9328 138.752 0 251.1872 119.0912 251.1872 265.9328 0 146.944-112.4352 266.0352-251.1872 266.0352z"  horiz-adv-x="1638" />

    
    <glyph glyph-name="xuanze-weixuan" unicode="&#59046;" d="M0 896m146.285714 0l731.428572 0q146.285714 0 146.285714-146.285714l0-731.428572q0-146.285714-146.285714-146.285714l-731.428572 0q-146.285714 0-146.285714 146.285714l0 731.428572q0 146.285714 146.285714 146.285714Z"  horiz-adv-x="1024" />

    
    <glyph glyph-name="yanzheng-duanxin" unicode="&#59047;" d="M748.765405-128H275.234595c-52.307027 0-94.706162 43.672216-94.706163 97.529081V798.470919C180.528432 852.327784 222.955243 896 275.234595 896h473.53081c52.307027 0 94.706162-43.672216 94.706163-97.529081v-828.941838c0-53.856865-42.426811-97.529081-94.706163-97.529081z m47.325406 926.470919c0 26.956108-21.171892 48.764541-47.325406 48.76454H275.234595c-26.153514 0-47.325405-21.808432-47.325406-48.76454v-24.354595h568.181622v24.354595z m0-73.146811H227.936865v-682.648216h568.181621V725.324108z m0-731.412757H227.936865v-24.38227c0-26.956108 21.171892-48.764541 47.325405-48.76454h473.530811c26.153514 0 47.325405 21.808432 47.325405 48.76454v24.354595z"  horiz-adv-x="1024" />

    
    <glyph glyph-name="yanzheng-guge" unicode="&#59048;" d="M968.51027 663.801081c-40.683243 2.850595-81.532541 10.599784-116.597621 21.974487-11.347027 3.487135-22.694054 7.306378-34.151784 11.457729-24.077838 7.195676-56.873514 21.476324-94.069622 41.790271l-1.190054 0.63654a843.554595 843.554595 0 0 0-26.790054 15.332324 820.445405 820.445405 0 0 0-36.587243 22.666379l-1.383784 0.913297a828.332973 828.332973 0 0 0-26.015135 17.712433c-5.618162 3.929946-11.236324 8.081297-16.854487 12.204973-4.206703 3.127351-8.441081 6.088649-12.675459 9.326702A903.887568 903.887568 0 0 0 512.276757 895.750919a905.465081 905.465081 0 0 0-89.945946-77.934703c-4.206703-3.238054-8.441081-6.199351-12.67546-9.326702-5.618162-4.151351-11.236324-8.302703-16.82681-12.177298a843.554595 843.554595 0 0 0-26.015136-17.740108l-1.383783-0.913297c-12.177297-7.942919-24.299243-15.55373-36.587244-22.694054-9.132973-5.396757-18.072216-10.516757-26.817729-15.304649l-1.162379-0.63654c-37.223784-20.341622-70.019459-34.594595-94.097297-41.790271-11.430054-4.151351-22.777081-7.99827-34.124108-11.457729-35.065081-11.374703-75.942054-19.123892-116.597622-21.974487H55.904865c1.190054-18.487351 2.407784-43.008 3.846919-69.548973 0.221405 0 0.498162 0 0.747243 0.055351 6.863568-99.078919 26.457946-240.003459 55.987892-322.809081 1.328432-3.597838 2.435459-7.389405 3.763892-10.959567 0.636541-1.688216 1.356108-3.26573 1.964973-4.92627 70.711351-185.094919 193.536-319.792432 341.130378-369.165838v-0.498162c19.511351-6.531459 35.923027-10.572108 48.902919-13.090595a390.614486 390.614486 0 0 1 48.930595 13.090595v0.498162c147.594378 49.373405 270.391351 184.043243 341.102702 369.165838 0.636541 1.660541 1.383784 3.238054 1.992649 4.92627 1.300757 3.570162 2.435459 7.334054 3.763892 10.959567 29.529946 82.805622 49.124324 223.730162 55.987892 322.809081a5.535135 5.535135 0 0 1 0.747243-0.055351c1.411459 26.568649 2.629189 51.061622 3.819243 69.548973h-0.083027z m-53.358702-47.851243l-0.553514-10.848865c-0.608865-2.490811-0.996324-4.981622-1.162378-7.555459-6.393081-92.215351-24.354595-228.933189-53.248-309.967568-0.83027-2.214054-1.577514-4.428108-2.297081-6.669838-0.470486-1.383784-0.940973-2.795243-1.660541-4.621838a107.71373 107.71373 0 0 1-1.522162-3.874594c-65.757405-172.115027-178.784865-295.991351-310.188973-339.940325a50.314378 50.314378 0 0 1-6.144-2.518486c-8.911568-2.822919-17.657081-5.258378-26.125838-7.195676-8.38573 1.937297-17.075892 4.345081-25.987459 7.168a48.709189 48.709189 0 0 1-6.254703 2.546162c-131.376432 43.948973-244.431568 167.825297-310.050595 339.608217a126.394811 126.394811 0 0 1-1.909621 4.73254c-0.498162 1.356108-0.940973 2.739892-1.383784 4.151351-0.774919 2.214054-1.522162 4.483459-2.214054 6.33773-29.004108 81.338811-46.965622 218.028973-53.331027 310.244325a46.218378 46.218378 0 0 1-1.162379 7.583135l-0.553513 10.599783-0.276757 5.092325a515.321081 515.321081 0 0 1 78.820325 18.542702c11.402378 3.459459 22.970811 7.334054 35.369513 11.817514 28.395243 8.662486 63.598703 24.243892 101.929514 45.166703l1.881945 0.996324c9.271351 5.064649 18.736432 10.489081 27.952433 15.968865a867.909189 867.909189 0 0 1 40.295784 25.018811 864.864865 864.864865 0 0 1 42.537513 29.612973l2.767568 1.992648 4.538811 3.321081c2.905946 2.131027 5.811892 4.234378 8.496432 6.310054A957.799784 957.799784 0 0 1 512.276757 827.641081a954.893838 954.893838 0 0 1 67.030486-54.382703l4.815568-3.51481 1.743567-1.273082c5.369081-3.957622 10.793514-7.915243 15.719784-11.347027 9.132973-6.503784 18.376649-12.758486 26.734703-18.23827l2.324757-1.522162c13.948541-9.132973 26.651676-16.992865 38.358486-23.801081a892.429838 892.429838 0 0 1 29.917406-17.048216c38.496865-21.033514 73.838703-36.67027 102.316972-45.388108 12.398703-4.455784 23.967135-8.302703 34.456217-11.513081 24.908108-8.081297 51.891892-14.446703 79.733621-18.81946a643.736216 643.736216 0 0 1-0.276756-4.870919z m-179.642811-116.597622l-263.998271-274.376648-135.140324 140.481729a23.330595 23.330595 0 0 1-33.902703 0 25.6 25.6 0 0 1 0-35.231135l152.105514-158.083459a23.413622 23.413622 0 0 1 33.902703 0l280.908108 291.978378a25.6 25.6 0 0 1 0 35.231135 23.330595 23.330595 0 0 1-33.875027 0z"  horiz-adv-x="1024" />

    
    <glyph glyph-name="yanzhengfangshixuanze" unicode="&#59050;" d="M512 896C231.747368 896 0 664.252632 0 384S231.747368-128 512-128 1024 103.747368 1024 384 792.252632 896 512 896zM776.084211 594.189474l-361.094737-361.094737-167.073685 172.463158c-10.778947 10.778947-26.947368 10.778947-37.726315 0-10.778947-10.778947-10.778947-26.947368 0-37.726316l188.631579-188.631579c5.389474-5.389474 10.778947-10.778947 21.557894-10.778947 5.389474 0 16.168421 5.389474 21.557895 10.778947l377.263158 377.263158c10.778947 10.778947 10.778947 26.947368 0 37.726316-16.168421 10.778947-32.336842 10.778947-43.115789 0z"  horiz-adv-x="1024" />

    
    <glyph glyph-name="xuanze-yixuan" unicode="&#59049;" d="M146.285714 896h731.428572c80.457143 0 146.285714-65.828571 146.285714-146.285714v-731.428572c0-80.457143-65.828571-146.285714-146.285714-146.285714H146.285714c-80.457143 0-146.285714 65.828571-146.285714 146.285714V749.714286C0 830.171429 65.828571 896 146.285714 896zM475.428571 186.514286c0 7.314286 0 7.314286 0 0l321.828572 351.085714c14.628571 14.628571 14.628571 36.571429 0 51.2-14.628571 14.628571-36.571429 14.628571-51.2 0L438.857143 259.657143 277.942857 442.514286c-7.314286 0-14.628571 7.314286-21.942857 7.314285-7.314286 0-14.628571-7.314286-21.942857-14.628571-14.628571-14.628571-14.628571-36.571429-7.314286-51.2l190.171429-212.114286c14.628571-14.628571 36.571429-14.628571 43.885714 0 7.314286 7.314286 7.314286 14.628571 14.628571 14.628572z"  horiz-adv-x="1024" />

    
    <glyph glyph-name="shoucang-da-moren" unicode="&#59052;" d="M345.621999 559.262302L443.002901 808.402693a105.799344 105.799344 0 0 0 20.704818 36.631601c12.172613 14.334105 29.237023 21.501157 48.804213 21.501157v-28.440684 28.440684c11.376274 0 22.069971-3.014712 31.626041-9.214781 7.110171-4.721154 13.31024-10.523053 17.974512-16.780004 3.75417-4.834916 7.110171-10.068002 10.352409-15.983664 2.389017-4.550509 4.15234-8.020273 6.484476-13.082715l95.105647-250.448663 267.228667-27.87187c16.097427-4.550509 28.213158-10.238646 37.655465-19.055258 10.864341-10.80746 15.642376-25.312209 15.642376-42.205975a68.257641 68.257641 0 0 0-13.253358-41.238992c-5.119323-6.882646-11.433155-15.187325-22.354378-28.781972l-176.616647-174.341393c7.849629-39.873839 15.187325-78.61005 24.288344-127.24362 4.15234-20.932343 7.337696-37.996754 10.181765-54.719876 2.616543-16.268071 5.40373-32.081092 8.418442-48.2354l6.939527-37.541702c1.877085-11.262511 2.787187-16.154308 3.640408-20.192886 3.299119-23.321361-2.844068-43.514246-22.183734-55.174927a76.903609 76.903609 0 0 0-38.565567-10.124883c-7.565222 0-15.357969 2.047729-23.947056 5.688136l-17.633224 7.735866-220.870352 141.3502a6915.067897 6915.067897 0 0 0-146.526404-92.602867c-27.416819-17.405699-30.37465-19.282784-39.816957-25.596616-15.016681-9.897358-24.060819-15.699258-32.42238-20.647936-9.214782-5.517493-15.926783-9.271663-18.998377-10.750579a58.985979 58.985979 0 0 0-36.745363-6.25695 64.275946 64.275946 0 0 0-29.293905 12.798307 63.877776 63.877776 0 0 0-20.477292 26.051667 57.052012 57.052012 0 0 0-3.242238 34.868278l4.550509 19.453428c2.104611 9.101019 4.493628 19.96536 7.963392 36.233432 2.673424 12.798308 5.745018 26.677362 10.523053 47.609705 4.15234 18.543326 8.247798 36.005906 12.229494 52.615265l27.303056 123.660094a17784.414727 17784.414727 0 0 1-84.184424 79.406389l-35.550855 33.161838c-9.55607 8.759731-11.376274 10.466172-32.137973 30.147125l-22.980073 21.785564-10.921222 10.295527a154.774202 154.774202 0 0 0-22.923192 30.317769c-8.020273 14.277223-11.319392 29.578311-9.271662 44.708756 1.877085 15.357969 7.963392 28.668209 18.3158 38.849974 9.1579 8.930375 20.022242 14.846037 35.152685 17.860749l262.450632 26.16543z m166.889933 278.889347v-28.440684c-3.583526 0-4.607391-0.455051-5.915662-1.933967a52.899672 52.899672 0 0 1-10.124883-18.71397L385.894007 506.078223l-17.348817-1.706441-276.670973-27.359938a7.849629 7.849629 0 0 1-3.981696-2.389017c-0.739458-0.682576-1.308271-1.990848-1.706441-5.517493-0.39817-2.730306 0.227525-5.688137 2.161492-9.1579a96.698325 96.698325 0 0 1 13.424003-18.031394l10.124883-9.499188 23.036954-21.899327c20.477292-19.339665 22.183733-21.046106 31.626041-29.692074l35.77838-33.332482c24.800276-23.207598 50.965706-47.950993 96.129512-90.725782l11.66068-11.034985-3.412882-15.756139-30.943464-139.814402c-3.981696-16.893766-8.020273-34.128821-12.115731-52.38774-4.721154-20.761699-7.792747-34.413228-10.409291-46.927129-3.526645-16.552478-5.972544-27.701226-8.190917-37.314177l-4.436746-18.998377c0.568814-1.25139 1.25139-2.161492 3.185356-3.583526a8.247798 8.247798 0 0 1 3.811052-1.64956c3.924814 2.104611 9.385426 5.176204 17.06441 9.783596 7.394578 4.379865 15.926783 9.897358 30.147125 19.282783 9.954239 6.598239 12.912071 8.475324 40.954585 26.279192a7373.531722 7373.531722 0 0 1 161.258678 102.158937l15.35797 9.95424 15.41485-9.897358 231.905337-148.85854 13.253359-5.517493c3.697289-1.25139 5.119323-1.137627 6.427595-0.910102a685.761771 685.761771 0 0 0-3.242238 18.372682l-6.825765 37.086652c-3.071594 16.495597-5.972544 32.706787-8.645968 49.316146-2.673424 15.926783-5.8019 32.42238-9.897358 53.24096-10.238646 54.833639-18.202038 96.812088-27.189293 141.975894l-2.957832 15.016682 10.864342 10.750578 185.03509 182.304784c8.190917 10.466172 14.277223 18.429563 19.055258 24.857158a11.546918 11.546918 0 0 1 2.10461 7.451459c-0.455051 2.673424-4.209221 4.379865-7.053289 5.574374l-297.31891 30.602176-6.256951 16.381834-100.395614 264.725886a230.881472 230.881472 0 0 1-4.322984 8.418443 63.252081 63.252081 0 0 1-5.517493 8.532205 15.869902 15.869902 0 0 1-3.867933 3.583526l-0.455051 28.440684z m270.925956-905.323852a16.438715 16.438715 0 0 1 1.137627 0.511933l-1.137627-0.511933z"  horiz-adv-x="1024" />

    
    <glyph glyph-name="shoucang-da-xuanzhong" unicode="&#59053;" d="M512.505976 894.976a35.719529 35.719529 0 0 1-28.732235-12.167529 82.823529 82.823529 0 0 1-16.263529-28.852706l-110.411294-282.50353-296.297412-29.515294a37.767529 37.767529 0 0 1-29.696-33.731765 45.417412 45.417412 0 0 1 6.204235-28.912941c5.481412-9.396706 12.047059-18.070588 19.636706-25.901176l10.541177-9.938824 24.455529-23.190588c10.059294-9.517176 21.082353-20.058353 33.731765-31.563294l37.767529-35.297882c30.117647-28.129882 63.849412-60.114824 101.677177-95.954824l-32.527059-147.576471c-4.577882-18.913882-8.854588-37.466353-13.010824-55.777882-4.156235-18.251294-7.890824-34.936471-11.083294-50.115765-3.252706-15.058824-6.023529-27.949176-8.553412-38.912l-4.818823-20.60047a30.057412 30.057412 0 0 1 1.807059-18.371765 37.345882 37.345882 0 0 1 12.047058-15.299765 39.213176 39.213176 0 0 1 22.648471-8.31247 32.527059 32.527059 0 0 1 15.179294 4.035765 272.865882 272.865882 0 0 1 18.733177 10.541176c9.336471 5.601882 20.299294 12.709647 33.129411 21.142588 12.709647 8.432941 27.045647 17.468235 42.646589 27.407059a7913.833412 7913.833412 0 0 1 171.188705 108.423529l250.277648-160.105411 13.854117-5.782589c6.023529-2.529882 10.721882-3.674353 13.914353-3.674352 9.637647 0 18.191059 2.409412 25.901177 6.806588 7.649882 4.577882 10.601412 13.854118 8.613647 28.009412a510.795294 510.795294 0 0 0-3.734589 20.60047l-7.228235 39.333647c-3.011765 15.600941-6.023529 32.768-9.095529 51.742118-3.192471 18.974118-6.806588 37.948235-10.541177 56.862117-8.432941 45.056-17.950118 95.292235-28.912941 150.588236l198.595765 196.065882c8.312471 10.661647 15.058824 19.516235 20.60047 26.925177a42.164706 42.164706 0 0 1 8.131765 25.780705c0 10.541176-2.529882 18.251294-7.589647 23.250824-5.240471 4.879059-14.215529 9.035294-26.864941 12.649412l-296.357647 30.479059L554.610447 856.064A276.48 276.48 0 0 1 549.369976 866.484706 95.051294 95.051294 0 0 1 541.238212 879.134118a47.344941 47.344941 0 0 1-11.926588 11.083294 30.298353 30.298353 0 0 1-16.865883 4.818823"  horiz-adv-x="1024" />

    
    <glyph glyph-name="shoucang-da-yiru" unicode="&#59054;" d="M345.621999 559.262302L443.002901 808.402693a105.799344 105.799344 0 0 0 20.704818 36.631601c12.172613 14.334105 29.237023 21.501157 48.804213 21.501157v-28.440684 28.440684c11.376274 0 22.069971-3.014712 31.626041-9.214781 7.110171-4.721154 13.31024-10.523053 17.974512-16.780004 3.75417-4.834916 7.110171-10.068002 10.352409-15.983664 2.389017-4.550509 4.15234-8.020273 6.484476-13.082715l95.105647-250.448663 267.228667-27.87187c16.097427-4.550509 28.213158-10.238646 37.655465-19.055258 10.864341-10.80746 15.642376-25.312209 15.642376-42.205975a68.257641 68.257641 0 0 0-13.253358-41.238992c-5.119323-6.882646-11.433155-15.187325-22.354378-28.781972l-176.616647-174.341393c7.849629-39.873839 15.187325-78.61005 24.288344-127.24362 4.15234-20.932343 7.337696-37.996754 10.181765-54.719876 2.616543-16.268071 5.40373-32.081092 8.418442-48.2354l6.939527-37.541702c1.877085-11.262511 2.787187-16.154308 3.640408-20.192886 3.299119-23.321361-2.844068-43.514246-22.183734-55.174927a76.903609 76.903609 0 0 0-38.565567-10.124883c-7.565222 0-15.357969 2.047729-23.947056 5.688136l-17.633224 7.735866-220.870352 141.3502a6915.067897 6915.067897 0 0 0-146.526404-92.602867c-27.416819-17.405699-30.37465-19.282784-39.816957-25.596616-15.016681-9.897358-24.060819-15.699258-32.42238-20.647936-9.214782-5.517493-15.926783-9.271663-18.998377-10.750579a58.985979 58.985979 0 0 0-36.745363-6.25695 64.275946 64.275946 0 0 0-29.293905 12.798307 63.877776 63.877776 0 0 0-20.477292 26.051667 57.052012 57.052012 0 0 0-3.242238 34.868278l4.550509 19.453428c2.104611 9.101019 4.493628 19.96536 7.963392 36.233432 2.673424 12.798308 5.745018 26.677362 10.523053 47.609705 4.15234 18.543326 8.247798 36.005906 12.229494 52.615265l27.303056 123.660094a17784.414727 17784.414727 0 0 1-84.184424 79.406389l-35.550855 33.161838c-9.55607 8.759731-11.376274 10.466172-32.137973 30.147125l-22.980073 21.785564-10.921222 10.295527a154.774202 154.774202 0 0 0-22.923192 30.317769c-8.020273 14.277223-11.319392 29.578311-9.271662 44.708756 1.877085 15.357969 7.963392 28.668209 18.3158 38.849974 9.1579 8.930375 20.022242 14.846037 35.152685 17.860749l262.450632 26.16543z m166.889933 278.889347v-28.440684c-3.583526 0-4.607391-0.455051-5.915662-1.933967a52.899672 52.899672 0 0 1-10.124883-18.71397L385.894007 506.078223l-17.348817-1.706441-276.670973-27.359938a7.849629 7.849629 0 0 1-3.981696-2.389017c-0.739458-0.682576-1.308271-1.990848-1.706441-5.517493-0.39817-2.730306 0.227525-5.688137 2.161492-9.1579a96.698325 96.698325 0 0 1 13.424003-18.031394l10.124883-9.499188 23.036954-21.899327c20.477292-19.339665 22.183733-21.046106 31.626041-29.692074l35.77838-33.332482c24.800276-23.207598 50.965706-47.950993 96.129512-90.725782l11.66068-11.034985-3.412882-15.756139-30.943464-139.814402c-3.981696-16.893766-8.020273-34.128821-12.115731-52.38774-4.721154-20.761699-7.792747-34.413228-10.409291-46.927129-3.526645-16.552478-5.972544-27.701226-8.190917-37.314177l-4.436746-18.998377c0.568814-1.25139 1.25139-2.161492 3.185356-3.583526a8.247798 8.247798 0 0 1 3.811052-1.64956c3.924814 2.104611 9.385426 5.176204 17.06441 9.783596 7.394578 4.379865 15.926783 9.897358 30.147125 19.282783 9.954239 6.598239 12.912071 8.475324 40.954585 26.279192a7373.531722 7373.531722 0 0 1 161.258678 102.158937l15.35797 9.95424 15.41485-9.897358 231.905337-148.85854 13.253359-5.517493c3.697289-1.25139 5.119323-1.137627 6.427595-0.910102a685.761771 685.761771 0 0 0-3.242238 18.372682l-6.825765 37.086652c-3.071594 16.495597-5.972544 32.706787-8.645968 49.316146-2.673424 15.926783-5.8019 32.42238-9.897358 53.24096-10.238646 54.833639-18.202038 96.812088-27.189293 141.975894l-2.957832 15.016682 10.864342 10.750578 185.03509 182.304784c8.190917 10.466172 14.277223 18.429563 19.055258 24.857158a11.546918 11.546918 0 0 1 2.10461 7.451459c-0.455051 2.673424-4.209221 4.379865-7.053289 5.574374l-297.31891 30.602176-6.256951 16.381834-100.395614 264.725886a230.881472 230.881472 0 0 1-4.322984 8.418443 63.252081 63.252081 0 0 1-5.517493 8.532205 15.869902 15.869902 0 0 1-3.867933 3.583526l-0.455051 28.440684z m270.925956-905.323852a16.438715 16.438715 0 0 1 1.137627 0.511933l-1.137627-0.511933z"  horiz-adv-x="1024" />

    
    <glyph glyph-name="cebianlanshouqi-yiru" unicode="&#59056;" d="M568.888889 384v-483.555556a28.444444 28.444444 0 0 0-28.444445-28.444444c-16.213333 0-29.809778 12.174222-31.573333 28.273778L455.111111 384 508.871111 867.726222A31.772444 31.772444 0 0 0 540.444444 896a28.444444 28.444444 0 0 0 28.444445-28.444444v-483.555556z"  horiz-adv-x="1024" />

    
    <glyph glyph-name="cebianlanshouqi-moren" unicode="&#59057;" d="M568.888889 384v-483.555556a28.444444 28.444444 0 0 0-28.444445-28.444444c-16.213333 0-29.809778 12.174222-31.573333 28.273778L455.111111 384 508.871111 867.726222A31.772444 31.772444 0 0 0 540.444444 896a28.444444 28.444444 0 0 0 28.444445-28.444444v-483.555556z"  horiz-adv-x="1024" />

    
    <glyph glyph-name="cebianlanzhankai-yiru" unicode="&#59058;" d="M455.111111 384v-483.555556a28.444444 28.444444 0 0 1 28.444445-28.444444c16.213333 0 29.809778 12.174222 31.573333 28.273778L568.888889 384 515.128889 867.726222A31.772444 31.772444 0 0 1 483.555556 896a28.444444 28.444444 0 0 1-28.444445-28.444444v-483.555556z"  horiz-adv-x="1024" />

    
    <glyph glyph-name="cebianlanzhankai-moren" unicode="&#59059;" d="M455.111111 384v-483.555556a28.444444 28.444444 0 0 1 28.444445-28.444444c16.213333 0 29.809778 12.174222 31.573333 28.273778L568.888889 384 515.128889 867.726222A31.772444 31.772444 0 0 1 483.555556 896a28.444444 28.444444 0 0 1-28.444445-28.444444v-483.555556z"  horiz-adv-x="1024" />

    
    <glyph glyph-name="bangzhutishi" unicode="&#59060;" d="M512 895.744C229.973333 895.744 1.194667 667.904 1.194667 386.816c0-281.088 228.693333-508.928 510.976-508.928 282.197333 0 510.976 227.84 510.976 508.928 0 281.088-228.778667 508.928-510.976 508.928z m0.085333-787.114667a52.821333 52.821333 0 1 0 0 105.386667 52.821333 52.821333 0 1 0 0-105.386667z m144.469334 348.16c-8.448-15.018667-23.722667-30.976-45.653334-47.786666a832.512 832.512 0 0 1-40.789333-32.512 47.786667 47.786667 0 0 1-11.946667-17.493334 79.701333 79.701333 0 0 1-4.181333-28.842666v-51.882667a29.013333 29.013333 0 0 0-8.533333-20.821333c-5.717333-5.973333-16.213333-9.386667-31.573334-10.24-15.36-0.938667-26.88 1.877333-34.389333 8.533333-7.594667 6.570667-11.349333 16.298667-11.349333 29.269333v46.677334c0 29.354667 3.925333 50.944 11.946666 64.938666 7.936 13.994667 15.530667 24.064 22.869334 30.122667 7.253333 6.058667 17.578667 14.506667 30.976 25.173333 13.397333 10.666667 25.088 22.272 34.986666 34.816a54.272 54.272 0 0 1 13.312 38.656c-1.621333 14.506667-10.24 27.221333-25.856 38.144a98.133333 98.133333 0 0 1-51.712 18.090667c-21.930667 1.024-40.106667-2.816-54.442666-11.52a89.6 89.6 0 0 1-30.634667-27.904 110.848 110.848 0 0 1-13.482667-35.84c-2.901333-13.994667-5.973333-23.552-9.130666-28.757333a27.392 27.392 0 0 0-14.762667-11.264 55.466667 55.466667 0 0 0-46.08 3.157333 33.194667 33.194667 0 0 0-15.957333 22.186667 90.88 90.88 0 0 0 0.426666 36.864c4.266667 21.845333 9.728 39.509333 16.298667 52.906666 6.656 13.226667 15.616 25.770667 26.88 37.376s24.490667 20.992 39.765333 28.16c15.189333 7.082667 30.549333 12.373333 46.08 15.957334 15.530667 3.584 31.573333 5.461333 48.298667 5.802666 22.272 0.256 42.496-2.56 60.586667-8.362666 18.261333-5.802667 34.133333-13.482667 47.616-22.954667 13.482667-9.472 24.490667-19.029333 32.938666-28.501333 8.533333-9.557333 16.213333-23.04 22.869334-40.789334 6.826667-17.664 9.813333-36.864 8.96-57.429333a120.917333 120.917333 0 0 0-14.336-53.845333z"  horiz-adv-x="1024" />

    
    <glyph glyph-name="bangzhutishi-yiru" unicode="&#59061;" d="M512 895.744C229.973333 895.744 1.194667 667.904 1.194667 386.816c0-281.088 228.693333-508.928 510.976-508.928 282.197333 0 510.976 227.84 510.976 508.928 0 281.088-228.778667 508.928-510.976 508.928z m0.085333-787.114667a52.821333 52.821333 0 1 0 0 105.386667 52.821333 52.821333 0 1 0 0-105.386667z m144.469334 348.16c-8.448-15.018667-23.722667-30.976-45.653334-47.786666a832.512 832.512 0 0 1-40.789333-32.512 47.786667 47.786667 0 0 1-11.946667-17.493334 79.701333 79.701333 0 0 1-4.181333-28.842666v-51.882667a29.013333 29.013333 0 0 0-8.533333-20.821333c-5.717333-5.973333-16.213333-9.386667-31.573334-10.24-15.36-0.938667-26.88 1.877333-34.389333 8.533333-7.594667 6.570667-11.349333 16.298667-11.349333 29.269333v46.677334c0 29.354667 3.925333 50.944 11.946666 64.938666 7.936 13.994667 15.530667 24.064 22.869334 30.122667 7.253333 6.058667 17.578667 14.506667 30.976 25.173333 13.397333 10.666667 25.088 22.272 34.986666 34.816a54.272 54.272 0 0 1 13.312 38.656c-1.621333 14.506667-10.24 27.221333-25.856 38.144a98.133333 98.133333 0 0 1-51.712 18.090667c-21.930667 1.024-40.106667-2.816-54.442666-11.52a89.6 89.6 0 0 1-30.634667-27.904 110.848 110.848 0 0 1-13.482667-35.84c-2.901333-13.994667-5.973333-23.552-9.130666-28.757333a27.392 27.392 0 0 0-14.762667-11.264 55.466667 55.466667 0 0 0-46.08 3.157333 33.194667 33.194667 0 0 0-15.957333 22.186667 90.88 90.88 0 0 0 0.426666 36.864c4.266667 21.845333 9.728 39.509333 16.298667 52.906666 6.656 13.226667 15.616 25.770667 26.88 37.376s24.490667 20.992 39.765333 28.16c15.189333 7.082667 30.549333 12.373333 46.08 15.957334 15.530667 3.584 31.573333 5.461333 48.298667 5.802666 22.272 0.256 42.496-2.56 60.586667-8.362666 18.261333-5.802667 34.133333-13.482667 47.616-22.954667 13.482667-9.472 24.490667-19.029333 32.938666-28.501333 8.533333-9.557333 16.213333-23.04 22.869334-40.789334 6.826667-17.664 9.813333-36.864 8.96-57.429333a120.917333 120.917333 0 0 0-14.336-53.845333z"  horiz-adv-x="1024" />

    
    <glyph glyph-name="danxuan-yixuan" unicode="&#59062;" d="M512-42.666667A426.666667 426.666667 0 1 1 512 810.666667a426.666667 426.666667 0 0 1 0-853.333334z m0-85.333333A512 512 0 1 0 512 896a512 512 0 0 0 0-1024zM512 384m-256 0a256 256 0 1 1 512 0 256 256 0 1 1-512 0Z"  horiz-adv-x="1024" />

    
    <glyph glyph-name="danxuan-moren" unicode="&#59063;" d="M512-42.666667A426.666667 426.666667 0 1 1 512 810.666667a426.666667 426.666667 0 0 1 0-853.333334z m0-85.333333A512 512 0 1 0 512 896a512 512 0 0 0 0-1024z"  horiz-adv-x="1024" />

    
    <glyph glyph-name="danxuan-yiru" unicode="&#59064;" d="M512-42.666667A426.666667 426.666667 0 1 1 512 810.666667a426.666667 426.666667 0 0 1 0-853.333334z m0-85.333333A512 512 0 1 0 512 896a512 512 0 0 0 0-1024z"  horiz-adv-x="1024" />

    
    <glyph glyph-name="gonggao-moren1" unicode="&#59065;" d="M898.98585 94.252522l-74.128695 132.185043V502.739478c0 57.566609-20.658087 118.338783-58.145392 170.963479-38.110609 53.604174-91.670261 95.543652-150.706086 118.116173a454.967652 454.967652 0 0 1-14.82574 4.58574V805.62087C601.179937 855.485217 561.154894 896 512.002894 896 462.806372 896 422.82585 855.485217 422.82585 805.62087v-8.548174a381.952 381.952 0 0 1-12.55513-3.873392c-59.970783-21.993739-114.42087-63.888696-153.33287-117.938087-38.15513-53.025391-59.213913-114.331826-59.213913-172.521739v-276.301913L118.43072 84.947478c-9.572174-16.918261-9.48313-37.843478 0.133565-54.806261 9.616696-16.873739 27.558957-27.291826 46.881392-27.291826h195.984695C372.64985-71.145739 435.915242-128 512.002894-128s139.308522 56.854261 150.528 130.849391h195.984696c29.874087 0 54.182957 24.576 54.182956 54.850783 0 13.712696-4.85287 26.579478-13.712696 36.552348zM512.002894 848.806957c22.750609 0 41.405217-18.209391 42.562783-41.004522a350.029913 350.029913 0 0 1-14.425044 2.448695 23.28487 23.28487 0 0 1-6.144 0.089044 129.380174 129.380174 0 0 1-22.706087 2.31513c-7.568696 0-14.246957-1.024-20.212869-1.914434l-2.137044-0.356174a22.928696 22.928696 0 0 1-6.366609 0c-4.407652-0.623304-8.770783-1.335652-13.133913-2.137044A42.918957 42.918957 0 0 0 512.002894 848.806957z m0-929.613914c-50.309565 0-92.560696 35.84-103.201391 83.656348h206.35826c-10.640696-47.816348-52.847304-83.70087-103.156869-83.700869z m346.512696 130.80487H165.445677a7.479652 7.479652 0 0 0-6.544696 3.695304 7.92487 7.92487 0 0 0-0.044522 7.835826l82.365218 147.010783a23.863652 23.863652 0 0 1 3.072 11.664696V502.739478c0 102.088348 77.913043 207.782957 181.426086 245.938087 3.383652 1.113043 30.141217 9.527652 57.121392 14.024348a22.79513 22.79513 0 0 1 4.897391 0c3.650783 0.356174 6.989913 0.890435 10.24 1.335652 4.986435 0.801391 9.260522 1.424696 13.267478 1.424696s8.325565-0.623304 13.267479-1.380174c3.294609-0.534261 6.678261-1.024 10.24-1.380174a22.839652 22.839652 0 0 1 4.452174-0.044522c28.048696-4.763826 56.58713-13.801739 60.905739-15.226434 101.64313-39.045565 178.220522-144.161391 178.220521-244.691479v-282.534956c0-4.096 1.024-8.102957 3.027479-11.664696l78.580869-140.154435a23.373913 23.373913 0 0 1 4.051478-5.342608c1.380174-1.335652 2.137043-3.250087 2.137044-5.342609a7.568696 7.568696 0 0 0-7.613217-7.702261z"  horiz-adv-x="1024" />

    
    <glyph glyph-name="gonggao-yiru1" unicode="&#59066;" d="M898.98585 94.252522l-74.128695 132.185043V502.739478c0 57.566609-20.658087 118.338783-58.145392 170.963479-38.110609 53.604174-91.670261 95.543652-150.706086 118.116173a454.967652 454.967652 0 0 1-14.82574 4.58574V805.62087C601.179937 855.485217 561.154894 896 512.002894 896 462.806372 896 422.82585 855.485217 422.82585 805.62087v-8.548174a381.952 381.952 0 0 1-12.55513-3.873392c-59.970783-21.993739-114.42087-63.888696-153.33287-117.938087-38.15513-53.025391-59.213913-114.331826-59.213913-172.521739v-276.301913L118.43072 84.947478c-9.572174-16.918261-9.48313-37.843478 0.133565-54.806261 9.616696-16.873739 27.558957-27.291826 46.881392-27.291826h195.984695C372.64985-71.145739 435.915242-128 512.002894-128s139.308522 56.854261 150.528 130.849391h195.984696c29.874087 0 54.182957 24.576 54.182956 54.850783 0 13.712696-4.85287 26.579478-13.712696 36.552348zM512.002894 848.806957c22.750609 0 41.405217-18.209391 42.562783-41.004522a350.029913 350.029913 0 0 1-14.425044 2.448695 23.28487 23.28487 0 0 1-6.144 0.089044 129.380174 129.380174 0 0 1-22.706087 2.31513c-7.568696 0-14.246957-1.024-20.212869-1.914434l-2.137044-0.356174a22.928696 22.928696 0 0 1-6.366609 0c-4.407652-0.623304-8.770783-1.335652-13.133913-2.137044A42.918957 42.918957 0 0 0 512.002894 848.806957z m0-929.613914c-50.309565 0-92.560696 35.84-103.201391 83.656348h206.35826c-10.640696-47.816348-52.847304-83.70087-103.156869-83.700869z m346.512696 130.80487H165.445677a7.479652 7.479652 0 0 0-6.544696 3.695304 7.92487 7.92487 0 0 0-0.044522 7.835826l82.365218 147.010783a23.863652 23.863652 0 0 1 3.072 11.664696V502.739478c0 102.088348 77.913043 207.782957 181.426086 245.938087 3.383652 1.113043 30.141217 9.527652 57.121392 14.024348a22.79513 22.79513 0 0 1 4.897391 0c3.650783 0.356174 6.989913 0.890435 10.24 1.335652 4.986435 0.801391 9.260522 1.424696 13.267478 1.424696s8.325565-0.623304 13.267479-1.380174c3.294609-0.534261 6.678261-1.024 10.24-1.380174a22.839652 22.839652 0 0 1 4.452174-0.044522c28.048696-4.763826 56.58713-13.801739 60.905739-15.226434 101.64313-39.045565 178.220522-144.161391 178.220521-244.691479v-282.534956c0-4.096 1.024-8.102957 3.027479-11.664696l78.580869-140.154435a23.373913 23.373913 0 0 1 4.051478-5.342608c1.380174-1.335652 2.137043-3.250087 2.137044-5.342609a7.568696 7.568696 0 0 0-7.613217-7.702261z"  horiz-adv-x="1024" />

    
    <glyph glyph-name="xinwen-xuanzhong" unicode="&#59067;" d="M673.938286 499.224381h-433.005715c-14.823619 0-27.014095-14.726095-27.014095-33.01181 0-18.285714 12.190476-33.01181 27.014095-33.011809h433.005715c15.018667 0 27.062857 14.726095 27.062857 33.011809 0 18.285714-12.04419 33.01181-27.062857 33.01181z m0-164.815238h-433.005715c-14.823619 0-27.014095-14.726095-27.014095-33.01181 0-18.334476 12.190476-33.060571 27.014095-33.060571h433.005715c15.018667 0 27.062857 14.726095 27.062857 33.060571 0 18.285714-12.04419 33.01181-27.062857 33.01181zM972.8 796.135619c-15.018667 0-27.062857-14.726095-27.062857-33.011809v-758.686477c0-36.425143-24.234667-65.877333-54.125714-65.877333H132.827429c-29.93981 0-54.174476 29.598476-54.174477 65.877333V763.172571c0 36.376381 24.234667 65.828571 54.125715 65.828572H783.11619c29.93981 0 54.174476-29.598476 54.174477-65.828572V70.460952c0-18.285714 12.04419-33.01181 27.111619-33.011809 15.018667 0 27.062857 14.726095 27.062857 33.011809V829.19619c0 36.425143-24.234667 65.877333-54.125714 65.877334H105.71581C60.854857 895.073524 24.527238 850.748952 24.527238 796.135619v-824.563809c0-54.613333 36.327619-98.937905 81.237333-98.937905h812.714667c44.860952 0 81.286095 44.373333 81.286095 98.937905V763.270095c0.146286 18.139429-12.04419 32.865524-26.965333 32.865524zM673.938286 169.447619h-433.005715c-14.823619 0-27.014095-14.774857-27.014095-33.060571 0-18.285714 12.190476-33.01181 27.014095-33.01181h433.005715c15.018667 0 27.062857 14.726095 27.062857 33.01181 0 18.285714-12.04419 33.01181-27.062857 33.011809z m-441.782857 411.452952a14.823619 14.823619 0 0 1 11.215238 4.729905c2.779429 3.120762 4.291048 7.899429 4.291047 14.140953V695.442286l61.927619-95.085715 5.36381-7.558095a41.642667 41.642667 0 0 1 5.851428-6.534095 19.504762 19.504762 0 0 1 6.631619-4.047238 22.723048 22.723048 0 0 1 8.045715-1.316572c11.897905 0 17.846857 7.119238 17.846857 21.406477V730.697143c0 6.241524-1.365333 11.02019-4.193524 14.140952a14.238476 14.238476 0 0 1-11.264 4.729905 13.848381 13.848381 0 0 1-11.02019-4.729905c-2.681905-3.169524-3.998476-7.899429-3.998477-14.140952v-97.133714L259.364571 729.721905c-1.755429 2.82819-3.559619 5.510095-5.168761 8.192a39.789714 39.789714 0 0 1-4.924953 6.387809 17.554286 17.554286 0 0 1-13.06819 5.36381 19.407238 19.407238 0 0 1-17.554286-11.312762 35.693714 35.693714 0 0 1-1.804191-12.629333v-125.805715c0-6.144 1.365333-10.922667 4.193524-14.140952 2.681905-3.31581 6.339048-4.924952 11.117715-4.924952z m264.630857 140.434286c5.168762 0 9.216 1.170286 11.702857 3.559619a12.190476 12.190476 0 0 1 3.900952 9.264762 12.239238 12.239238 0 0 1-3.900952 9.167238c-2.486857 2.438095-6.534095 3.608381-11.702857 3.608381h-87.28381a28.135619 28.135619 0 0 1-11.410286-2.096762 13.653333 13.653333 0 0 1-6.729142-6.534095 28.379429 28.379429 0 0 1-2.048-11.605333V603.91619c0-7.168 1.609143-12.336762 4.729904-15.457523 3.120762-3.169524 8.289524-4.778667 15.457524-4.778667H499.321905c5.217524 0 9.069714 1.170286 11.751619 3.559619a11.946667 11.946667 0 0 1 4.047238 9.362286 12.336762 12.336762 0 0 1-4.047238 9.703619c-2.681905 2.389333-6.534095 3.559619-11.702857 3.559619H422.278095v46.421333h68.559238c5.022476 0 8.923429 1.170286 11.264 3.559619a12.336762 12.336762 0 0 1 3.754667 9.069715 11.215238 11.215238 0 0 1-3.754667 8.923428c-2.535619 2.243048-6.241524 3.413333-11.264 3.413333H422.278095v39.984762h74.508191z m233.764571-1.219047c1.657905 6.729143 2.438095 11.605333 2.438095 14.628571a14.140952 14.140952 0 0 1-4.486095 10.678857 15.506286 15.506286 0 0 1-11.02019 4.291048c-4.291048 0-7.558095-0.975238-9.752381-3.267048a18.67581 18.67581 0 0 1-4.778667-7.558095c-0.926476-2.82819-1.950476-6.729143-2.974476-11.751619l-21.455238-95.378286-24.039619 89.234286a178.95619 178.95619 0 0 1-4.778667 15.798857 19.21219 19.21219 0 0 1-19.309714 12.775619 20.72381 20.72381 0 0 1-13.068191-3.85219 21.796571 21.796571 0 0 1-6.826666-9.264762c-1.365333-3.510857-2.974476-8.777143-4.778667-15.60381l-23.893333-89.088-21.455238 95.378286c-1.462857 7.314286-3.413333 12.921905-5.510096 16.774095-2.048 3.900952-6.046476 5.851429-12.190476 5.851429a15.506286 15.506286 0 0 1-10.971428-4.388572 14.140952 14.140952 0 0 1-4.486096-10.678857c0-3.267048 0.78019-8.192 2.438096-14.579809l27.16038-109.909334c0.731429-3.267048 1.80419-6.826667 2.828191-10.581333a40.96 40.96 0 0 1 3.998476-9.947429c1.657905-2.82819 3.754667-4.924952 6.38781-6.436571 2.681905-1.462857 5.948952-2.194286 10.142476-2.194286a18.724571 18.724571 0 0 1 12.190476 3.852191 21.796571 21.796571 0 0 1 6.339048 8.630857c1.219048 3.267048 2.876952 8.484571 4.924952 15.896381l26.770286 97.913904 26.331428-97.913904c2.048-7.558095 3.85219-13.06819 5.022477-16.188953a20.041143 20.041143 0 0 1 6.387809-8.484571 18.383238 18.383238 0 0 1 12.190476-3.705905 18.041905 18.041905 0 0 1 12.336762 3.900953 20.870095 20.870095 0 0 1 6.241524 9.020952c1.219048 3.413333 2.82819 8.923429 4.632381 16.384l27.062857 109.763048z"  horiz-adv-x="1024" />

    
    <glyph glyph-name="duopingkanban-moren" unicode="&#59068;" d="M61.44 834.56v-901.12h440.32V834.56H61.44zM40.2432 896h482.7136c22.2208 0 40.2432-18.0224 40.2432-40.2432v-943.5136a40.2432 40.2432 0 0 0-40.2432-40.2432H40.2432A40.2432 40.2432 0 0 0 0-87.7568V855.7568C0 877.9776 18.0224 896 40.2432 896zM727.04 496.64h337.92V834.56h-337.92v-337.92zM705.8432 896h380.3136c22.2208 0 40.2432-18.0224 40.2432-40.2432v-380.3136a40.2432 40.2432 0 0 0-40.2432-40.2432h-380.3136A40.2432 40.2432 0 0 0 665.6 475.4432V855.7568c0 22.2208 18.0224 40.2432 40.2432 40.2432zM727.04-66.56h337.92v337.92h-337.92v-337.92z m-21.1968 399.36h380.3136c22.2208 0 40.2432-18.0224 40.2432-40.2432v-380.3136a40.2432 40.2432 0 0 0-40.2432-40.2432h-380.3136a40.2432 40.2432 0 0 0-40.2432 40.2432v380.3136c0 22.2208 18.0224 40.2432 40.2432 40.2432z"  horiz-adv-x="1126" />

    
    <glyph glyph-name="bibijiaoyi-moren" unicode="&#59069;" d="M946.816 653.397333a25.173333 25.173333 0 0 1-6.656 13.994667c-0.896 0.896-2.048 1.28-2.986667 1.962667A511.445333 511.445333 0 0 1 512 896C229.248 896 0 666.794667 0 384c0-282.752 229.248-512 512-512s512 229.248 512 512c0 98.986667-28.544 191.061333-77.184 269.397333zM512-76.8c-154.752 0-291.584 76.885333-375.168 194.176l512.725333 512.853333c0.469333 0.469333 0.682667 1.194667 1.194667 1.706667a25.173333 25.173333 0 0 1-20.309333 44.117333l-222.037334-29.696a25.6 25.6 0 0 1-21.888-28.842666 25.472 25.472 0 0 1 28.8-22.016l146.944 19.669333-453.589333-453.546667A457.173333 457.173333 0 0 0 51.114667 384C51.114667 638.165333 257.834667 844.8 512 844.8c154.752 0 291.584-76.885333 375.082667-194.176L374.4 137.856c-0.64-0.64-0.896-1.493333-1.408-2.176a24.96 24.96 0 0 1-8.192-21.674667 25.6 25.6 0 0 1 28.714667-21.973333l222.037333 29.696a25.6 25.6 0 1 1-6.698667 50.688l-147.072-19.712L915.328 606.336A458.666667 458.666667 0 0 0 972.8 384c0-254.08-206.634667-460.8-460.757333-460.8z"  horiz-adv-x="1024" />

    
    <glyph glyph-name="xinwen-yiru" unicode="&#59070;" d="M673.938286 499.224381h-433.005715c-14.823619 0-27.014095-14.726095-27.014095-33.01181 0-18.285714 12.190476-33.01181 27.014095-33.011809h433.005715c15.018667 0 27.062857 14.726095 27.062857 33.011809 0 18.285714-12.04419 33.01181-27.062857 33.01181z m0-164.815238h-433.005715c-14.823619 0-27.014095-14.726095-27.014095-33.01181 0-18.334476 12.190476-33.060571 27.014095-33.060571h433.005715c15.018667 0 27.062857 14.726095 27.062857 33.060571 0 18.285714-12.04419 33.01181-27.062857 33.01181zM972.8 796.135619c-15.018667 0-27.062857-14.726095-27.062857-33.011809v-758.686477c0-36.425143-24.234667-65.877333-54.125714-65.877333H132.827429c-29.93981 0-54.174476 29.598476-54.174477 65.877333V763.172571c0 36.376381 24.234667 65.828571 54.125715 65.828572H783.11619c29.93981 0 54.174476-29.598476 54.174477-65.828572V70.460952c0-18.285714 12.04419-33.01181 27.111619-33.011809 15.018667 0 27.062857 14.726095 27.062857 33.011809V829.19619c0 36.425143-24.234667 65.877333-54.125714 65.877334H105.71581C60.854857 895.073524 24.527238 850.748952 24.527238 796.135619v-824.563809c0-54.613333 36.327619-98.937905 81.237333-98.937905h812.714667c44.860952 0 81.286095 44.373333 81.286095 98.937905V763.270095c0.146286 18.139429-12.04419 32.865524-26.965333 32.865524zM673.938286 169.447619h-433.005715c-14.823619 0-27.014095-14.774857-27.014095-33.060571 0-18.285714 12.190476-33.01181 27.014095-33.01181h433.005715c15.018667 0 27.062857 14.726095 27.062857 33.01181 0 18.285714-12.04419 33.01181-27.062857 33.011809z m-441.782857 411.452952a14.823619 14.823619 0 0 1 11.215238 4.729905c2.779429 3.120762 4.291048 7.899429 4.291047 14.140953V695.442286l61.927619-95.085715 5.36381-7.558095a41.642667 41.642667 0 0 1 5.851428-6.534095 19.504762 19.504762 0 0 1 6.631619-4.047238 22.723048 22.723048 0 0 1 8.045715-1.316572c11.897905 0 17.846857 7.119238 17.846857 21.406477V730.697143c0 6.241524-1.365333 11.02019-4.193524 14.140952a14.238476 14.238476 0 0 1-11.264 4.729905 13.848381 13.848381 0 0 1-11.02019-4.729905c-2.681905-3.169524-3.998476-7.899429-3.998477-14.140952v-97.133714L259.364571 729.721905c-1.755429 2.82819-3.559619 5.510095-5.168761 8.192a39.789714 39.789714 0 0 1-4.924953 6.387809 17.554286 17.554286 0 0 1-13.06819 5.36381 19.407238 19.407238 0 0 1-17.554286-11.312762 35.693714 35.693714 0 0 1-1.804191-12.629333v-125.805715c0-6.144 1.365333-10.922667 4.193524-14.140952 2.681905-3.31581 6.339048-4.924952 11.117715-4.924952z m264.630857 140.434286c5.168762 0 9.216 1.170286 11.702857 3.559619a12.190476 12.190476 0 0 1 3.900952 9.264762 12.239238 12.239238 0 0 1-3.900952 9.167238c-2.486857 2.438095-6.534095 3.608381-11.702857 3.608381h-87.28381a28.135619 28.135619 0 0 1-11.410286-2.096762 13.653333 13.653333 0 0 1-6.729142-6.534095 28.379429 28.379429 0 0 1-2.048-11.605333V603.91619c0-7.168 1.609143-12.336762 4.729904-15.457523 3.120762-3.169524 8.289524-4.778667 15.457524-4.778667H499.321905c5.217524 0 9.069714 1.170286 11.751619 3.559619a11.946667 11.946667 0 0 1 4.047238 9.362286 12.336762 12.336762 0 0 1-4.047238 9.703619c-2.681905 2.389333-6.534095 3.559619-11.702857 3.559619H422.278095v46.421333h68.559238c5.022476 0 8.923429 1.170286 11.264 3.559619a12.336762 12.336762 0 0 1 3.754667 9.069715 11.215238 11.215238 0 0 1-3.754667 8.923428c-2.535619 2.243048-6.241524 3.413333-11.264 3.413333H422.278095v39.984762h74.508191z m233.764571-1.219047c1.657905 6.729143 2.438095 11.605333 2.438095 14.628571a14.140952 14.140952 0 0 1-4.486095 10.678857 15.506286 15.506286 0 0 1-11.02019 4.291048c-4.291048 0-7.558095-0.975238-9.752381-3.267048a18.67581 18.67581 0 0 1-4.778667-7.558095c-0.926476-2.82819-1.950476-6.729143-2.974476-11.751619l-21.455238-95.378286-24.039619 89.234286a178.95619 178.95619 0 0 1-4.778667 15.798857 19.21219 19.21219 0 0 1-19.309714 12.775619 20.72381 20.72381 0 0 1-13.068191-3.85219 21.796571 21.796571 0 0 1-6.826666-9.264762c-1.365333-3.510857-2.974476-8.777143-4.778667-15.60381l-23.893333-89.088-21.455238 95.378286c-1.462857 7.314286-3.413333 12.921905-5.510096 16.774095-2.048 3.900952-6.046476 5.851429-12.190476 5.851429a15.506286 15.506286 0 0 1-10.971428-4.388572 14.140952 14.140952 0 0 1-4.486096-10.678857c0-3.267048 0.78019-8.192 2.438096-14.579809l27.16038-109.909334c0.731429-3.267048 1.80419-6.826667 2.828191-10.581333a40.96 40.96 0 0 1 3.998476-9.947429c1.657905-2.82819 3.754667-4.924952 6.38781-6.436571 2.681905-1.462857 5.948952-2.194286 10.142476-2.194286a18.724571 18.724571 0 0 1 12.190476 3.852191 21.796571 21.796571 0 0 1 6.339048 8.630857c1.219048 3.267048 2.876952 8.484571 4.924952 15.896381l26.770286 97.913904 26.331428-97.913904c2.048-7.558095 3.85219-13.06819 5.022477-16.188953a20.041143 20.041143 0 0 1 6.387809-8.484571 18.383238 18.383238 0 0 1 12.190476-3.705905 18.041905 18.041905 0 0 1 12.336762 3.900953 20.870095 20.870095 0 0 1 6.241524 9.020952c1.219048 3.413333 2.82819 8.923429 4.632381 16.384l27.062857 109.763048z"  horiz-adv-x="1024" />

    
    <glyph glyph-name="bibijiaoyi-xuanzhong" unicode="&#59071;" d="M946.816 653.397333a25.173333 25.173333 0 0 1-6.656 13.994667c-0.896 0.896-2.048 1.28-2.986667 1.962667A511.445333 511.445333 0 0 1 512 896C229.248 896 0 666.794667 0 384c0-282.752 229.248-512 512-512s512 229.248 512 512c0 98.986667-28.544 191.061333-77.184 269.397333zM512-76.8c-154.752 0-291.584 76.885333-375.168 194.176l512.725333 512.853333c0.469333 0.469333 0.682667 1.194667 1.194667 1.706667a25.173333 25.173333 0 0 1-20.309333 44.117333l-222.037334-29.696a25.6 25.6 0 0 1-21.888-28.842666 25.472 25.472 0 0 1 28.8-22.016l146.944 19.669333-453.589333-453.546667A457.173333 457.173333 0 0 0 51.114667 384C51.114667 638.165333 257.834667 844.8 512 844.8c154.752 0 291.584-76.885333 375.082667-194.176L374.4 137.856c-0.64-0.64-0.896-1.493333-1.408-2.176a24.96 24.96 0 0 1-8.192-21.674667 25.6 25.6 0 0 1 28.714667-21.973333l222.037333 29.696a25.6 25.6 0 1 1-6.698667 50.688l-147.072-19.712L915.328 606.336A458.666667 458.666667 0 0 0 972.8 384c0-254.08-206.634667-460.8-460.757333-460.8z"  horiz-adv-x="1024" />

    
    <glyph glyph-name="duopingkanban-xuanzhong" unicode="&#59072;" d="M61.44 834.56v-901.12h440.32V834.56H61.44zM40.2432 896h482.7136c22.2208 0 40.2432-18.0224 40.2432-40.2432v-943.5136a40.2432 40.2432 0 0 0-40.2432-40.2432H40.2432A40.2432 40.2432 0 0 0 0-87.7568V855.7568C0 877.9776 18.0224 896 40.2432 896zM727.04 496.64h337.92V834.56h-337.92v-337.92zM705.8432 896h380.3136c22.2208 0 40.2432-18.0224 40.2432-40.2432v-380.3136a40.2432 40.2432 0 0 0-40.2432-40.2432h-380.3136A40.2432 40.2432 0 0 0 665.6 475.4432V855.7568c0 22.2208 18.0224 40.2432 40.2432 40.2432zM727.04-66.56h337.92v337.92h-337.92v-337.92z m-21.1968 399.36h380.3136c22.2208 0 40.2432-18.0224 40.2432-40.2432v-380.3136a40.2432 40.2432 0 0 0-40.2432-40.2432h-380.3136a40.2432 40.2432 0 0 0-40.2432 40.2432v380.3136c0 22.2208 18.0224 40.2432 40.2432 40.2432z"  horiz-adv-x="1126" />

    
    <glyph glyph-name="dengguang-kaiguan" unicode="&#59073;" d="M512 590.5408a206.4384 206.4384 0 1 1 0-412.928 206.4384 206.4384 0 1 1 0 412.928z m0 64a270.4384 270.4384 0 0 0 270.4896-270.4384A270.4384 270.4384 0 0 0 512 113.6128a270.4384 270.4384 0 0 0-270.4896 270.4896A270.4384 270.4384 0 0 0 512 654.5408zM237.6704 154.5216l-67.072-67.072a31.744 31.744 0 0 1 0-44.7488c12.288-12.288 32.4608-12.288 44.7488 0l67.072 67.072a31.744 31.744 0 0 1 0 44.7488 31.744 31.744 0 0 1-44.7488 0z m-19.2512 477.952a31.9488 31.9488 0 0 1 45.1584 45.1584L195.84 745.3696a31.9488 31.9488 0 0 1-45.1072-45.1584l67.6864-67.7376z m-89.6-216.4736H32.9216a31.8464 31.8464 0 0 1-31.8976-31.8976c0-17.7152 14.336-31.9488 31.8976-31.9488h95.7952a31.8464 31.8464 0 0 1 31.9488 31.9488 32 32 0 0 1-31.9488 31.8976zM512 735.3344a31.8464 31.8464 0 0 1 31.9488 31.9488V863.0784A31.8464 31.8464 0 0 1 489.4208 885.76a31.8464 31.8464 0 0 1-9.3696-22.6304v-95.744c0-17.7664 14.336-32 31.9488-32z m307.3024-88.7296l67.072 67.072a31.744 31.744 0 0 1 0 44.7488 31.744 31.744 0 0 1-44.7488 0l-67.072-67.072a31.744 31.744 0 0 1 0-44.7488c12.288-12.4416 32.4096-12.4416 44.7488 0z m171.7248-230.6048h-95.8464a31.8464 31.8464 0 0 1-22.5792-54.528 31.8464 31.8464 0 0 1 22.5792-9.3184h95.8464a31.8464 31.8464 0 0 1 31.8976 31.9488 31.9488 31.9488 0 0 1-31.8976 31.8976z m-185.4464-280.32a31.9488 31.9488 0 0 1-45.1584-45.1584l67.6864-67.7376a31.9488 31.9488 0 0 1 45.1584 45.1584l-67.6864 67.7376zM512 32.768a31.8464 31.8464 0 0 1-31.9488-31.8976v-95.7952a31.8464 31.8464 0 0 1 54.528-22.6304 31.8464 31.8464 0 0 1 9.3696 22.6304v95.7952a31.9488 31.9488 0 0 1-31.9488 31.9488z"  horiz-adv-x="1024" />

    
    <glyph glyph-name="dengguang-kaiguan-yiru" unicode="&#59074;" d="M512 654.5408a270.4384 270.4384 0 0 1-270.4896-270.4384A270.4384 270.4384 0 0 1 512 113.6128a270.4384 270.4384 0 0 1 270.4896 270.4896A270.4384 270.4384 0 0 1 512 654.5408zM237.6704 154.5216l-67.072-67.072a31.744 31.744 0 0 1 0-44.7488c12.288-12.288 32.4608-12.288 44.7488 0l67.072 67.072a31.744 31.744 0 0 1 0 44.7488 31.744 31.744 0 0 1-44.7488 0z m-19.2512 477.952a31.9488 31.9488 0 0 1 45.1584 45.1584L195.84 745.3696a31.9488 31.9488 0 0 1-45.1072-45.1584l67.6864-67.7376z m-89.6-216.4736H32.9216a31.8464 31.8464 0 0 1-31.8976-31.8976c0-17.7152 14.336-31.9488 31.8976-31.9488h95.7952a31.8464 31.8464 0 0 1 31.9488 31.9488 32 32 0 0 1-31.9488 31.8976zM512 735.3344a31.8464 31.8464 0 0 1 31.9488 31.9488V863.0784A31.8464 31.8464 0 0 1 489.4208 885.76a31.8464 31.8464 0 0 1-9.3696-22.6304v-95.744c0-17.7664 14.336-32 31.9488-32z m307.3024-88.7296l67.072 67.072a31.744 31.744 0 0 1 0 44.7488 31.744 31.744 0 0 1-44.7488 0l-67.072-67.072a31.744 31.744 0 0 1 0-44.7488c12.288-12.4416 32.4096-12.4416 44.7488 0z m171.7248-230.6048h-95.8464a31.8464 31.8464 0 0 1-22.5792-54.528 31.8464 31.8464 0 0 1 22.5792-9.3184h95.8464a31.8464 31.8464 0 0 1 31.8976 31.9488 31.9488 31.9488 0 0 1-31.8976 31.8976z m-185.4464-280.32a31.9488 31.9488 0 0 1-45.1584-45.1584l67.6864-67.7376a31.9488 31.9488 0 0 1 45.1584 45.1584l-67.6864 67.7376zM512 32.768a31.8464 31.8464 0 0 1-31.9488-31.8976v-95.7952a31.8464 31.8464 0 0 1 54.528-22.6304 31.8464 31.8464 0 0 1 9.3696 22.6304v95.7952a31.9488 31.9488 0 0 1-31.9488 31.9488z"  horiz-adv-x="1024" />

    
    <glyph glyph-name="liaotianshi-yiru" unicode="&#59075;" d="M1151.36 495.552C1141.12 692.224 992 862.08 798.912 884.032 647.552 901.12 494.72 899.008 342.912 883.328c-84.608-8.704-157.056-49.664-216.32-111.232-218.432-226.56-144.128-584.128 145.792-701.568 30.208-12.288 33.408-25.728 23.04-53.76-16.448-44.608-29.76-90.24-47.36-144.768 58.432 19.712 108.16 37.312 158.464 53.184 143.168 45.248 282.112 102.4 431.232 131.072 194.112 37.312 324.48 231.872 313.6 439.296zM331.264 382.08c-46.016-0.832-84.928 39.68-83.52 86.912 1.28 45.184 39.36 82.56 83.264 81.92 44.288-0.64 80.96-38.784 80.96-84.224 0.064-45.44-36.48-83.712-80.704-84.608z m246.144 0c-45.952-0.576-84.736 40.192-83.072 87.424 1.6 45.248 39.808 82.432 83.776 81.472 44.288-1.024 80.64-39.36 80.448-84.8-0.192-45.44-36.864-83.456-81.152-84.032z m246.4 0c-45.952-0.448-84.608 40.32-82.88 87.552 1.664 45.248 39.936 82.368 83.84 81.28 44.352-1.088 80.704-39.488 80.384-84.928-0.256-45.44-37.056-83.392-81.28-83.84z"  horiz-adv-x="1152" />

    
    <glyph glyph-name="gonggao-xuanzhong" unicode="&#59076;" d="M898.98585 94.252522l-74.128695 132.185043V502.739478c0 57.566609-20.658087 118.338783-58.145392 170.963479-38.110609 53.604174-91.670261 95.543652-150.706086 118.116173a454.967652 454.967652 0 0 1-14.82574 4.58574V805.62087C601.179937 855.485217 561.154894 896 512.002894 896 462.806372 896 422.82585 855.485217 422.82585 805.62087v-8.548174a381.952 381.952 0 0 1-12.55513-3.873392c-59.970783-21.993739-114.42087-63.888696-153.33287-117.938087-38.15513-53.025391-59.213913-114.331826-59.213913-172.521739v-276.301913L118.43072 84.947478c-9.572174-16.918261-9.48313-37.843478 0.133565-54.806261 9.616696-16.873739 27.558957-27.291826 46.881392-27.291826h195.984695C372.64985-71.145739 435.915242-128 512.002894-128s139.308522 56.854261 150.528 130.849391h195.984696c29.874087 0 54.182957 24.576 54.182956 54.850783 0 13.712696-4.85287 26.579478-13.712696 36.552348zM512.002894 848.806957c22.750609 0 41.405217-18.209391 42.562783-41.004522a350.029913 350.029913 0 0 1-14.425044 2.448695 23.28487 23.28487 0 0 1-6.144 0.089044 129.380174 129.380174 0 0 1-22.706087 2.31513c-7.568696 0-14.246957-1.024-20.212869-1.914434l-2.137044-0.356174a22.928696 22.928696 0 0 1-6.366609 0c-4.407652-0.623304-8.770783-1.335652-13.133913-2.137044A42.918957 42.918957 0 0 0 512.002894 848.806957z m0-929.613914c-50.309565 0-92.560696 35.84-103.201391 83.656348h206.35826c-10.640696-47.816348-52.847304-83.70087-103.156869-83.700869z m346.512696 130.80487H165.445677a7.479652 7.479652 0 0 0-6.544696 3.695304 7.92487 7.92487 0 0 0-0.044522 7.835826l82.365218 147.010783a23.863652 23.863652 0 0 1 3.072 11.664696V502.739478c0 102.088348 77.913043 207.782957 181.426086 245.938087 3.383652 1.113043 30.141217 9.527652 57.121392 14.024348a22.79513 22.79513 0 0 1 4.897391 0c3.650783 0.356174 6.989913 0.890435 10.24 1.335652 4.986435 0.801391 9.260522 1.424696 13.267478 1.424696s8.325565-0.623304 13.267479-1.380174c3.294609-0.534261 6.678261-1.024 10.24-1.380174a22.839652 22.839652 0 0 1 4.452174-0.044522c28.048696-4.763826 56.58713-13.801739 60.905739-15.226434 101.64313-39.045565 178.220522-144.161391 178.220521-244.691479v-282.534956c0-4.096 1.024-8.102957 3.027479-11.664696l78.580869-140.154435a23.373913 23.373913 0 0 1 4.051478-5.342608c1.380174-1.335652 2.137043-3.250087 2.137044-5.342609a7.568696 7.568696 0 0 0-7.613217-7.702261z"  horiz-adv-x="1024" />

    
    <glyph glyph-name="liaotianshi-moren" unicode="&#59077;" d="M1151.36 495.552C1141.12 692.224 992 862.08 798.912 884.032 647.552 901.12 494.72 899.008 342.912 883.328c-84.608-8.704-157.056-49.664-216.32-111.232-218.432-226.56-144.128-584.128 145.792-701.568 30.208-12.288 33.408-25.728 23.04-53.76-16.448-44.608-29.76-90.24-47.36-144.768 58.432 19.712 108.16 37.312 158.464 53.184 143.168 45.248 282.112 102.4 431.232 131.072 194.112 37.312 324.48 231.872 313.6 439.296zM331.264 382.08c-46.016-0.832-84.928 39.68-83.52 86.912 1.28 45.184 39.36 82.56 83.264 81.92 44.288-0.64 80.96-38.784 80.96-84.224 0.064-45.44-36.48-83.712-80.704-84.608z m246.144 0c-45.952-0.576-84.736 40.192-83.072 87.424 1.6 45.248 39.808 82.432 83.776 81.472 44.288-1.024 80.64-39.36 80.448-84.8-0.192-45.44-36.864-83.456-81.152-84.032z m246.4 0c-45.952-0.448-84.608 40.32-82.88 87.552 1.664 45.248 39.936 82.368 83.84 81.28 44.352-1.088 80.704-39.488 80.384-84.928-0.256-45.44-37.056-83.392-81.28-83.84z"  horiz-adv-x="1152" />

    
    </font>
</defs>
</svg>
